<svg width="40" height="40" viewBox="0 0 40 40" fill="none" xmlns="http://www.w3.org/2000/svg">
<path d="M38.8 11.3826C39.3095 11.3826 39.5642 11.6425 39.5642 12.1624C39.5642 12.6822 39.3095 12.9421 38.8 12.9421H35.9722C35.8194 13.8778 35.3736 14.6705 34.6348 15.3203C33.896 15.97 33.0171 16.2949 31.9981 16.2949H28.1005C27.9476 16.5548 27.7183 16.6848 27.4126 16.6848H24.7378C24.6359 18.4002 23.9608 19.8557 22.7125 21.0513C21.4642 22.2468 19.9994 22.8446 18.318 22.8446H10.8284V23.7803C10.8284 24.3001 10.5609 24.56 10.0259 24.56C9.49094 24.56 9.22346 24.3001 9.22346 23.7803V22.8446H8.84133V25.3398C8.84133 25.6516 8.71396 25.8856 8.45921 26.0415L7.46568 26.5873V29.7062C7.46568 30.6939 7.12177 31.5386 6.43394 32.2403C5.74611 32.9421 4.91818 33.293 3.95012 33.293C3.13492 33.293 2.42162 32.9941 1.81022 32.3963C1.19882 31.7985 0.867646 31.0837 0.816696 30.252L0.43457 20.1936C0.43457 20.1416 0.43457 20.0636 0.43457 19.9596L2.57447 12.1624C1.35167 11.6945 0.740271 10.8108 0.740271 9.51129C0.740271 8.73157 1.00776 8.0558 1.54273 7.484C2.07771 6.9122 2.7528 6.6263 3.568 6.6263H23.1328C23.8971 6.6263 24.4066 6.99018 24.6613 7.71792H27.4126C27.7183 7.71792 27.9476 7.84787 28.1005 8.10778H31.9981C32.9662 8.10778 33.8196 8.41967 34.5584 9.04346C35.2972 9.66724 35.7684 10.447 35.9722 11.3826H38.8ZM18.318 21.2072C19.6427 21.2072 20.7891 20.7264 21.7572 19.7647C22.7252 18.803 23.2092 17.6464 23.2092 16.2949V8.26373L23.1328 8.18576H3.568C3.21135 8.18576 2.90565 8.31571 2.6509 8.57562C2.39615 8.83553 2.26877 9.14742 2.26877 9.51129C2.26877 9.87516 2.39615 10.1741 2.6509 10.408C2.90565 10.6419 3.21135 10.7589 3.568 10.7589H13.0447C13.5542 10.7589 13.809 11.0318 13.809 11.5776C13.809 12.1234 13.5542 12.3963 13.0447 12.3963H4.10297L1.96307 20.2715L2.42162 30.1741C2.42162 30.5899 2.57447 30.9538 2.88017 31.2657C3.18587 31.5776 3.54252 31.7335 3.95012 31.7335C4.51058 31.7335 4.98186 31.5386 5.36399 31.1487C5.74611 30.7589 5.93718 30.278 5.93718 29.7062V26.0415C5.93718 25.7296 6.06455 25.4957 6.3193 25.3398L7.31283 24.8719V22.0649C7.31283 21.4931 7.56758 21.2072 8.07708 21.2072H18.318ZM26.6484 15.0474V9.27737H24.7378V15.0474H26.6484ZM31.9981 14.7355C32.7114 14.7355 33.3101 14.4886 33.7941 13.9947C34.2782 13.5009 34.5202 12.9031 34.5202 12.2014C34.5202 11.4996 34.2782 10.9018 33.7941 10.408C33.3101 9.91415 32.7114 9.66724 31.9981 9.66724H28.1769V14.7355H31.9981ZM16.0253 10.7589C16.5348 10.7589 16.7895 11.0318 16.7895 11.5776C16.7895 12.1234 16.5348 12.3963 16.0253 12.3963H15.6432C15.0827 12.3963 14.8025 12.1234 14.8025 11.5776C14.8025 11.0318 15.0827 10.7589 15.6432 10.7589H16.0253ZM18.2416 19.024C18.8021 19.024 19.0823 19.2839 19.0823 19.8037C19.0823 20.3235 18.8021 20.5834 18.2416 20.5834H15.7196C15.2101 20.5834 14.9553 20.3235 14.9553 19.8037C14.9553 19.2839 15.2101 19.024 15.7196 19.024H18.2416ZM18.2416 16.7628C18.8021 16.7628 19.0823 17.0357 19.0823 17.5815C19.0823 18.1273 18.8021 18.4002 18.2416 18.4002H15.7196C15.2101 18.4002 14.9553 18.1273 14.9553 17.5815C14.9553 17.0357 15.2101 16.7628 15.7196 16.7628H18.2416ZM18.2416 14.5795C18.8021 14.5795 19.0823 14.8394 19.0823 15.3592C19.0823 15.8791 18.8021 16.139 18.2416 16.139H15.7196C15.2101 16.139 14.9553 15.8791 14.9553 15.3592C14.9553 14.8394 15.2101 14.5795 15.7196 14.5795H18.2416Z" fill="#00AFF9"/>
</svg>
