<svg width="40" height="40" viewBox="0 0 40 40" fill="none" xmlns="http://www.w3.org/2000/svg">
<path d="M38.8 14.5795C39.3095 14.5795 39.5642 14.8654 39.5642 15.4372V36.4898C39.5642 37.0096 39.3095 37.2695 38.8 37.2695H1.19882C0.689321 37.2695 0.43457 37.0096 0.43457 36.4898V3.42937C0.43457 2.90956 0.689321 2.64965 1.19882 2.64965H17.4774C17.9869 2.64965 18.2416 2.90956 18.2416 3.42937V14.5795H38.8ZM16.7131 35.7101V4.2091H1.96307V35.7101H16.7131ZM34.2145 35.7101V30.4859H22.0629V32.2793H29.7818C30.2913 32.2793 30.5461 32.5392 30.5461 33.059C30.5461 33.5788 30.2913 33.8387 29.7818 33.8387H22.0629V35.7101H34.2145ZM34.2145 28.9265V27.1331H22.0629V28.9265H34.2145ZM22.0629 25.5736H34.2145V23.7023H22.0629V25.5736ZM38.0357 35.7101V16.2169H18.2416V35.7101H20.4579V22.9226C20.4579 22.3508 20.7127 22.0649 21.2222 22.0649H34.9787C35.5392 22.0649 35.8194 22.3508 35.8194 22.9226V35.7101H38.0357ZM12.6626 21.8309C13.1721 21.8309 13.4268 22.1168 13.4268 22.6886V31.5775C13.4268 32.0973 13.1721 32.3573 12.6626 32.3573H6.0136C5.5041 32.3573 5.24935 32.0973 5.24935 31.5775V22.6886C5.24935 22.1168 5.5041 21.8309 6.0136 21.8309H12.6626ZM8.53563 30.7978V23.4684H6.77785V30.7978H8.53563ZM11.8983 30.7978V23.4684H10.1406V30.7978H11.8983ZM12.6626 7.56193C13.1721 7.56193 13.4268 7.82184 13.4268 8.34166V17.2305C13.4268 17.8023 13.1721 18.0882 12.6626 18.0882H6.0136C5.5041 18.0882 5.24935 17.8023 5.24935 17.2305V8.34166C5.24935 7.82184 5.5041 7.56193 6.0136 7.56193H12.6626ZM8.53563 16.4508V9.12138H6.77785V16.4508H8.53563ZM11.8983 16.4508V9.12138H10.1406V16.4508H11.8983ZM32.4567 32.2793C32.9662 32.2793 33.2209 32.5392 33.2209 33.059C33.2209 33.5788 32.9662 33.8387 32.4567 33.8387H32.2274C31.7179 33.8387 31.4632 33.5788 31.4632 33.059C31.4632 32.5392 31.7179 32.2793 32.2274 32.2793H32.4567Z" fill="#00AFF9"/>
</svg>
