<svg width="40" height="40" viewBox="0 0 40 40" fill="none" xmlns="http://www.w3.org/2000/svg">
<g clip-path="url(#clip0_378_196)">
<path d="M32.3048 16.9199C32.8143 16.9199 33.069 17.2058 33.069 17.7776V32.8264C33.069 34.8017 32.3939 36.4781 31.0438 37.8556C29.6936 39.2331 28.0504 39.9219 26.1143 39.9219H13.8863C11.9502 39.9219 10.3071 39.2331 8.95691 37.8556C7.60673 36.4781 6.93164 34.8017 6.93164 32.8264V17.7776C6.93164 17.2058 7.18639 16.9199 7.69589 16.9199H8.99512V11.2279C8.99512 8.16099 10.0651 5.52291 12.205 3.31369C14.3449 1.10446 16.9433 -0.000152588 20.0003 -0.000152588C23.0573 -0.000152588 25.6558 1.10446 27.7957 3.31369C29.9356 5.52291 31.0055 8.16099 31.0055 11.2279V16.9199H32.3048ZM10.5236 11.2279V16.9199H11.5936V11.2279C11.5936 8.88874 12.4088 6.87444 14.0392 5.18503C15.6696 3.49562 17.6566 2.65092 20.0003 2.65092C22.344 2.65092 24.3311 3.49562 25.9615 5.18503C27.5919 6.87444 28.4071 8.88874 28.4071 11.2279V16.9199H29.477V11.2279C29.477 8.57685 28.5472 6.30264 26.6875 4.4053C24.8279 2.50797 22.5988 1.5593 20.0003 1.5593C17.4019 1.5593 15.1728 2.50797 13.3131 4.4053C11.4535 6.30264 10.5236 8.57685 10.5236 11.2279ZM26.8786 11.2279C26.8786 9.30459 26.2035 7.65417 24.8533 6.27665C23.5031 4.89913 21.8855 4.21037 20.0003 4.21037C18.1152 4.21037 16.4975 4.89913 15.1473 6.27665C13.7972 7.65417 13.1221 9.30459 13.1221 11.2279V16.9199H26.8786V11.2279ZM31.4641 32.8264V18.5574H8.53657V32.8264C8.53657 34.3338 9.05881 35.6334 10.1033 36.725C11.1478 37.8166 12.4088 38.3624 13.8863 38.3624H26.1143C27.5919 38.3624 28.8529 37.8166 29.8974 36.725C30.9419 35.6334 31.4641 34.3338 31.4641 32.8264ZM17.8986 23.9765C17.8986 23.9765 18.0451 23.827 18.3381 23.5281C18.631 23.2292 19.1851 23.0798 20.0003 23.0798C20.8155 23.0798 21.5161 23.3787 22.102 23.9765C22.6879 24.5742 22.9809 25.289 22.9809 26.1207C22.9809 27.1084 22.6243 27.8881 21.911 28.4599V32.2805C21.911 32.8004 21.6562 33.0603 21.1467 33.0603H18.854C18.3445 33.0603 18.0897 32.8004 18.0897 32.2805V28.4599C17.3764 27.8881 17.0198 27.1084 17.0198 26.1207C17.0198 25.289 17.3127 24.5742 17.8986 23.9765ZM20.7646 27.3683C21.2231 27.1084 21.4524 26.6925 21.4524 26.1207C21.4524 25.7568 21.3123 25.4319 21.0321 25.146C20.7518 24.8601 20.4079 24.7172 20.0003 24.7172C19.5927 24.7172 19.2488 24.8601 18.9686 25.146C18.6884 25.4319 18.5483 25.7568 18.5483 26.1207C18.5483 26.6925 18.7775 27.1084 19.2361 27.3683C19.4908 27.5242 19.6182 27.7581 19.6182 28.07V31.5008H20.3825V28.07C20.3825 27.7581 20.5098 27.5242 20.7646 27.3683ZM18.2426 19.2591C18.7521 19.2591 19.0068 19.532 19.0068 20.0778C19.0068 20.6236 18.7521 20.8965 18.2426 20.8965H10.0651C9.55557 20.8965 9.30082 20.6236 9.30082 20.0778C9.30082 19.532 9.55557 19.2591 10.0651 19.2591H18.2426ZM21.0703 19.2591C21.5798 19.2591 21.8345 19.532 21.8345 20.0778C21.8345 20.6236 21.5798 20.8965 21.0703 20.8965H20.5353C20.0258 20.8965 19.7711 20.6236 19.7711 20.0778C19.7711 19.532 20.0258 19.2591 20.5353 19.2591H21.0703Z" fill="#00AFF9"/>
</g>
<defs>
<clipPath id="clip0_378_196">
<rect width="40" height="40" fill="white" transform="matrix(1 0 0 -1 0 40)"/>
</clipPath>
</defs>
</svg>
