<svg width="40" height="40" viewBox="0 0 40 40" fill="none" xmlns="http://www.w3.org/2000/svg">
<g clip-path="url(#clip0_378_61)">
<path d="M37.6547 35.3995C38.1642 35.3995 38.4189 35.6854 38.4189 36.2572V39.1421C38.4189 39.662 38.1642 39.9219 37.6547 39.9219H2.34628C1.83678 39.9219 1.58203 39.662 1.58203 39.1421V36.2572C1.58203 35.6854 1.83678 35.3995 2.34628 35.3995H4.10406V0.779575C4.10406 0.259758 4.35881 -0.000152588 4.86831 -0.000152588H35.1326C35.6422 -0.000152588 35.8969 0.259758 35.8969 0.779575V35.3995H37.6547ZM5.70899 1.5593V35.3995H34.292V1.5593H5.70899ZM36.8904 38.3624V37.0369H3.11053V38.3624H36.8904ZM18.5484 3.11876C19.1089 3.11876 19.3891 3.40466 19.3891 3.97646V33.2162C19.3891 33.736 19.1089 33.9959 18.5484 33.9959H7.77246C7.21201 33.9959 6.93179 33.736 6.93179 33.2162V3.97646C6.93179 3.40466 7.21201 3.11876 7.77246 3.11876H18.5484ZM8.53672 4.75618V28.148C9.96332 26.5885 11.1989 24.7042 12.2433 22.495C13.2878 20.2857 14.0648 17.9985 14.5743 15.6334C15.0838 13.2682 15.4532 11.2539 15.6825 9.59049C15.9117 7.92707 16.0773 6.31564 16.1792 4.75618H8.53672ZM8.53672 32.4365H17.7842V4.75618H17.7077C17.5039 8.91473 16.9435 12.8134 16.0264 16.4521C14.396 22.6899 11.8994 27.3423 8.53672 30.4092V32.4365ZM12.7401 6.93942C12.7401 6.4196 12.9948 6.15969 13.5043 6.15969C14.0138 6.15969 14.2686 6.4196 14.2686 6.93942V9.35657C14.2686 9.87639 14.0138 10.1363 13.5043 10.1363C12.9948 10.1363 12.7401 9.87639 12.7401 9.35657V6.93942ZM9.91237 6.86145C9.91237 6.34163 10.1671 6.08172 10.6766 6.08172C11.1861 6.08172 11.4409 6.34163 11.4409 6.86145V17.2318C11.4409 17.8036 11.1861 18.0895 10.6766 18.0895C10.1671 18.0895 9.91237 17.8036 9.91237 17.2318V6.86145ZM32.2285 3.11876C32.7889 3.11876 33.0692 3.40466 33.0692 3.97646V33.2162C33.0692 33.736 32.7889 33.9959 32.2285 33.9959H21.4526C20.8921 33.9959 20.6119 33.736 20.6119 33.2162V3.97646C20.6119 3.40466 20.8921 3.11876 21.4526 3.11876H32.2285ZM31.4642 32.4365V30.4092C28.1015 27.3423 25.605 22.6899 23.9746 16.4521C23.0575 12.8134 22.497 8.91473 22.2932 4.75618H22.2168V32.4365H31.4642ZM31.4642 28.148V4.75618H23.8217C23.9236 6.31564 24.0892 7.92707 24.3185 9.59049C24.5478 11.2539 24.9172 13.2682 25.4267 15.6334C25.9362 17.9985 26.7132 20.2857 27.7576 22.495C28.8021 24.7042 30.0376 26.5885 31.4642 28.148ZM25.7324 6.93942C25.7324 6.4196 25.9871 6.15969 26.4966 6.15969C27.0061 6.15969 27.2609 6.4196 27.2609 6.93942V9.35657C27.2609 9.87639 27.0061 10.1363 26.4966 10.1363C25.9871 10.1363 25.7324 9.87639 25.7324 9.35657V6.93942ZM28.5601 16.842C28.5601 16.3221 28.8148 16.0622 29.3243 16.0622C29.8338 16.0622 30.0886 16.3221 30.0886 16.842V17.2318C30.0886 17.8036 29.8338 18.0895 29.3243 18.0895C28.8148 18.0895 28.5601 17.8036 28.5601 17.2318V16.842ZM28.5601 6.86145C28.5601 6.34163 28.8148 6.08172 29.3243 6.08172C29.8338 6.08172 30.0886 6.34163 30.0886 6.86145V14.2689C30.0886 14.7887 29.8338 15.0486 29.3243 15.0486C28.8148 15.0486 28.5601 14.7887 28.5601 14.2689V6.86145Z" fill="#00AFF9"/>
</g>
<defs>
<clipPath id="clip0_378_61">
<rect width="40" height="40" fill="white" transform="matrix(1 0 0 -1 0 40)"/>
</clipPath>
</defs>
</svg>
