<svg width="40" height="40" viewBox="0 0 40 40" fill="none" xmlns="http://www.w3.org/2000/svg">
<path d="M9.37631 14.1897C9.88581 14.1897 10.1406 14.4756 10.1406 15.0474V20.8953C10.1406 21.4151 9.88581 21.675 9.37631 21.675H3.8737C3.568 21.675 3.33872 21.5581 3.18587 21.3242C3.03302 21.0902 3.00755 20.8433 3.10945 20.5834L5.63148 14.7355C5.73338 14.3716 5.96265 14.1897 6.3193 14.1897H9.37631ZM5.02008 20.1156H8.61206V15.8271H6.85428L5.02008 20.1156ZM39.4114 17.3865C38.6471 18.2702 37.8319 19.1019 36.9658 19.8817V26.1195H37.8829C38.3924 26.1195 38.6471 26.3794 38.6471 26.8992V30.6419C38.6471 31.2137 38.3924 31.4996 37.8829 31.4996H36.0487C35.8958 32.0194 35.5901 32.4483 35.1316 32.7861C34.673 33.124 34.1635 33.293 33.6031 33.293C32.3803 33.293 31.5651 32.7472 31.1575 31.6555C30.6989 32.7472 29.8837 33.293 28.7119 33.293C28.1514 33.293 27.6419 33.124 27.1834 32.7861C26.7248 32.4483 26.4191 32.0194 26.2663 31.4996H11.8219C11.6691 32.0194 11.3634 32.4483 10.9048 32.7861C10.4463 33.124 9.93676 33.293 9.37631 33.293C8.81586 33.293 8.30636 33.124 7.84781 32.7861C7.38925 32.4483 7.08355 32.0194 6.9307 31.4996H1.19882C0.689321 31.4996 0.43457 31.2137 0.43457 30.6419V20.6614C0.43457 20.5574 0.460045 20.4535 0.510995 20.3495L3.79727 12.0844C3.95012 11.7725 4.20488 11.6166 4.56153 11.6166H13.9618C14.5223 11.6166 14.8025 11.8765 14.8025 12.3963V15.4372C14.8025 15.4892 14.8025 15.5152 14.8025 15.5152L18.2416 26.1195H19.6173V24.56C19.4644 24.508 19.337 24.4821 19.2351 24.4821C18.9804 24.3781 18.8021 24.1962 18.7002 23.9362L15.6432 14.8914C15.5413 14.6315 15.5922 14.3976 15.796 14.1897C16.5603 13.202 17.4264 12.2923 18.3945 11.4606C22.3686 8.02981 26.9796 6.41838 32.2274 6.6263C33.4502 6.67828 34.673 6.83423 35.8958 7.09414C36.2015 7.14612 36.4053 7.32806 36.5072 7.63995L39.4878 16.6068C39.5897 16.8667 39.5642 17.1266 39.4114 17.3865ZM34.138 15.5932L32.151 9.74521L22.2921 19.8037L22.98 21.831L29.4761 15.2033C29.8328 14.8394 30.1894 14.8394 30.5461 15.2033C30.9027 15.5672 30.9027 15.931 30.5461 16.2949L23.6678 23.3904C24.7378 23.3904 25.7822 23.2865 26.8012 23.0785L34.138 15.5932ZM32.151 26.1195L35.4373 22.7667V21.1292C31.9217 23.6763 27.9986 24.9499 23.6678 24.9499V26.1195H32.151ZM35.4373 25.0279L34.3673 26.1195H35.4373V25.0279ZM29.7054 22.2988C31.7943 21.6231 33.6795 20.5834 35.3608 19.1799L34.673 17.2306L29.7054 22.2988ZM31.4632 8.18576C30.5461 8.18576 29.629 8.26373 28.7119 8.41967L21.0693 16.139L21.7572 18.0883L31.4632 8.18576ZM25.8077 9.04346C23.6168 9.7712 21.6043 10.8628 19.7701 12.3183L20.5344 14.5015L25.8077 9.04346ZM17.2481 14.8134L19.9994 23.0006C20.6108 23.1045 21.2222 23.1825 21.8336 23.2345L18.5473 13.4879C18.0888 13.9038 17.6557 14.3456 17.2481 14.8134ZM22.1393 24.8719C21.8336 24.8719 21.5279 24.8459 21.2222 24.7939V26.1195H22.1393V24.8719ZM14.8025 20.5054V26.1195H16.5603L14.8025 20.5054ZM8.61206 31.4216C8.61206 31.4216 8.66301 31.4736 8.76491 31.5776C8.86681 31.6815 9.07061 31.7335 9.37631 31.7335C9.68201 31.7335 9.93676 31.6296 10.1406 31.4216C10.3444 31.2137 10.4463 30.9668 10.4463 30.6809C10.4463 30.395 10.3444 30.1481 10.1406 29.9401C9.93676 29.7322 9.68201 29.6283 9.37631 29.6283C9.07061 29.6283 8.81586 29.7322 8.61206 29.9401C8.40826 30.1481 8.30636 30.395 8.30636 30.6809C8.30636 30.9668 8.40826 31.2137 8.61206 31.4216ZM28.024 31.4216C28.024 31.4216 28.075 31.4736 28.1769 31.5776C28.2788 31.6815 28.4698 31.7335 28.7501 31.7335C29.0303 31.7335 29.2723 31.6296 29.4761 31.4216C29.6799 31.2137 29.7818 30.9668 29.7818 30.6809C29.7818 30.395 29.6799 30.1481 29.4761 29.9401C29.2723 29.7322 29.0303 29.6283 28.7501 29.6283C28.4698 29.6283 28.2278 29.7322 28.024 29.9401C27.8202 30.1481 27.7183 30.395 27.7183 30.6809C27.7183 30.9668 27.8202 31.2137 28.024 31.4216ZM32.8388 31.4216C32.8388 31.4216 32.8898 31.4736 32.9917 31.5776C33.0936 31.6815 33.2846 31.7335 33.5648 31.7335C33.8451 31.7335 34.0871 31.6296 34.2909 31.4216C34.4947 31.2137 34.5966 30.9668 34.5966 30.6809C34.5966 30.395 34.4947 30.1481 34.2909 29.9401C34.0871 29.7322 33.8451 29.6283 33.5648 29.6283C33.2846 29.6283 33.0426 29.7322 32.8388 29.9401C32.635 30.1481 32.5331 30.395 32.5331 30.6809C32.5331 30.9668 32.635 31.2137 32.8388 31.4216ZM37.1186 27.6789H13.9618C13.4523 27.6789 13.1976 27.419 13.1976 26.8992V13.176H5.0965L1.96307 20.8173V23.3904H3.10945C3.61895 23.3904 3.8737 23.6633 3.8737 24.2091C3.8737 24.755 3.61895 25.0279 3.10945 25.0279H1.96307V25.8856H3.10945C3.61895 25.8856 3.8737 26.1455 3.8737 26.6653C3.8737 27.1851 3.61895 27.445 3.10945 27.445H1.96307V29.8622H6.9307C7.08355 29.3424 7.38925 28.9135 7.84781 28.5756C8.30636 28.2377 8.81586 28.0688 9.37631 28.0688C9.93676 28.0688 10.4463 28.2377 10.9048 28.5756C11.3634 28.9135 11.6691 29.3424 11.8219 29.8622H26.2663C26.4191 29.3424 26.7248 28.9135 27.1834 28.5756C27.6419 28.2377 28.1514 28.0688 28.7119 28.0688C29.8837 28.0688 30.6989 28.6146 31.1575 29.7062C31.5651 28.6146 32.3803 28.0688 33.6031 28.0688C34.1635 28.0688 34.673 28.2377 35.1316 28.5756C35.5901 28.9135 35.8958 29.3424 36.0487 29.8622H37.1186V27.6789ZM36.6601 18.0883C37.0677 17.6205 37.4753 17.1526 37.8829 16.6848L35.1316 8.57562C34.5202 8.41967 33.9088 8.31571 33.2974 8.26373L36.6601 18.0883ZM31.3103 13.332C31.667 12.9681 32.0236 12.9681 32.3803 13.332C32.7369 13.6958 32.7369 14.0857 32.3803 14.5015L32.3038 14.5795C32.151 14.7355 31.9727 14.8134 31.7689 14.8134C31.5651 14.8134 31.3867 14.7355 31.2339 14.5795C30.8263 14.1637 30.8263 13.7738 31.2339 13.4099L31.3103 13.332Z" fill="#00AFF9"/>
</svg>
