<svg width="40" height="40" viewBox="0 0 40 40" fill="none" xmlns="http://www.w3.org/2000/svg">
<g clip-path="url(#clip0_378_89)">
<path d="M35.5908 13.4891C35.5908 12.9693 35.8456 12.7094 36.3551 12.7094C36.8646 12.7094 37.1193 12.9693 37.1193 13.4891V13.723C37.1193 14.2948 36.8646 14.5807 36.3551 14.5807C35.8456 14.5807 35.5908 14.2948 35.5908 13.723V13.4891ZM36.9665 23.4696C37.8836 23.8335 38.3421 24.5093 38.3421 25.4969C38.3421 26.0687 38.1256 26.5755 37.6925 27.0174C37.2594 27.4592 36.7627 27.6802 36.2022 27.6802C35.5908 27.6802 35.0813 27.4852 34.6737 27.0954C34.2661 26.7055 34.0623 26.2247 34.0623 25.6529C34.0623 25.1331 34.3171 24.8731 34.8266 24.8731C35.3361 24.8731 35.5908 25.1331 35.5908 25.6529C35.5908 25.9128 35.7819 26.0427 36.164 26.0427C36.5461 26.0427 36.7372 25.8478 36.7372 25.4579C36.7372 25.0681 36.5589 24.8731 36.2022 24.8731C35.6418 24.8731 35.3615 24.6132 35.3615 24.0934V22.7679H35.0558C34.5463 22.7679 34.2916 22.482 34.2916 21.9102V19.1032C34.2916 18.5833 34.5463 18.3234 35.0558 18.3234H35.5908V16.2182C35.5908 15.6984 35.8456 15.4384 36.3551 15.4384C36.8646 15.4384 37.1193 15.6984 37.1193 16.2182V18.3234H37.3486C37.909 18.3234 38.1893 18.5833 38.1893 19.1032V21.9102C38.1893 22.482 37.909 22.7679 37.3486 22.7679H36.9665V23.4696ZM36.5843 21.1305V19.8829H35.8201V21.1305H36.5843ZM37.5779 10.1363C37.9855 10.2922 38.1638 10.5911 38.1128 11.033C38.0619 11.4748 37.8071 11.6958 37.3486 11.6958H13.5804V32.3585L20.0765 38.5184C20.3313 38.7783 20.395 39.0772 20.2676 39.4151C20.1402 39.7529 19.8982 39.9219 19.5415 39.9219H6.09072C5.78502 39.9219 5.55575 39.7919 5.4029 39.532C5.25005 39.2721 5.25005 39.0122 5.4029 38.7523L9.0713 32.4365V11.6958H2.49874C2.14209 11.6958 1.90008 11.5268 1.7727 11.1889C1.64533 10.851 1.68354 10.5781 1.88734 10.3702L9.0713 3.04078V0.779575C9.0713 0.259758 9.32605 -0.000152588 9.83555 -0.000152588H12.8161C13.3256 -0.000152588 13.5804 0.259758 13.5804 0.779575V2.72889L37.5779 10.1363ZM9.0713 10.1363V5.30199L4.33295 10.1363H9.0713ZM9.0713 38.3624V35.5554L7.38995 38.3624H9.0713ZM11.9755 38.3624V11.6958H10.5998V38.3624H11.9755ZM11.9755 10.1363V4.1324H10.5998V10.1363H11.9755ZM11.9755 2.57295V1.5593H10.5998V2.57295H11.9755ZM13.5804 34.5418V38.3624H17.5545L13.5804 34.5418ZM13.5804 4.44429V8.88874L16.9431 5.45794L13.5804 4.44429ZM14.5739 10.1363H21.9107L18.2423 6.39361L14.5739 10.1363ZM23.6685 9.66846L25.2734 8.03104L20.6879 6.62753L23.6685 9.66846ZM25.4263 10.1363H32.0753L26.9548 8.49887L25.4263 10.1363Z" fill="#00AFF9"/>
</g>
<defs>
<clipPath id="clip0_378_89">
<rect width="40" height="40" fill="white" transform="matrix(1 0 0 -1 0 40)"/>
</clipPath>
</defs>
</svg>
