<svg width="14" height="20" viewBox="0 0 14 20" fill="none" xmlns="http://www.w3.org/2000/svg">
<path d="M6.78605 0.00277178C7.5645 -0.0169967 8.315 0.0683945 9.05986 0.277663C9.09413 0.286992 9.1284 0.29632 9.16371 0.305931C9.52487 0.40674 9.85577 0.555477 10.19 0.716908C10.2587 0.749843 10.3279 0.781642 10.3971 0.813579C10.5413 0.88206 10.6882 0.952478 10.8189 1.04228C10.8189 1.0603 10.8189 1.07833 10.8189 1.0969C10.839 1.10337 10.8591 1.10985 10.8799 1.11652C10.9785 1.158 11.0543 1.21203 11.1397 1.2744C11.224 1.33575 11.3071 1.39603 11.3956 1.4519C11.3956 1.46992 11.3956 1.48795 11.3956 1.50651C11.4114 1.5131 11.4272 1.51968 11.4436 1.52646C11.5264 1.56912 11.5935 1.62171 11.6659 1.67889C11.6939 1.701 11.722 1.72311 11.7508 1.74588C11.7763 1.76602 11.8018 1.78615 11.8281 1.8069C11.8453 1.81971 11.8625 1.83253 11.8802 1.84573C11.9816 1.92154 12.0636 2.00731 12.1469 2.10014C12.2329 2.19487 12.3231 2.28598 12.4128 2.37759C12.4625 2.43498 12.4625 2.43498 12.4625 2.4896C12.4815 2.4896 12.5006 2.4896 12.5202 2.4896C12.5297 2.52564 12.5392 2.56169 12.549 2.59883C12.568 2.59883 12.5871 2.59883 12.6067 2.59883C12.722 2.74661 12.722 2.74661 12.722 2.81729C12.7411 2.81729 12.7601 2.81729 12.7797 2.81729C12.8233 2.87915 12.8632 2.94068 12.9023 3.00503C12.9258 3.04326 12.9494 3.08148 12.973 3.1197C12.9844 3.13834 12.9959 3.15697 13.0076 3.17617C13.0454 3.23677 13.0856 3.2957 13.1257 3.35491C13.2642 3.57353 13.3653 3.81251 13.4718 4.04614C13.4803 4.0645 13.4887 4.08286 13.4975 4.10177C13.718 4.58134 13.8445 5.08791 13.9331 5.60268C13.9409 5.64422 13.9409 5.64422 13.9488 5.68659C13.9958 5.96021 14.0011 6.22912 13.9998 6.50555C13.9998 6.52909 13.9997 6.55264 13.9996 6.5769C13.9981 6.93117 13.9869 7.27654 13.9043 7.62346C13.8981 7.64948 13.8919 7.6755 13.8856 7.70231C13.8113 8.00525 13.7264 8.29684 13.5871 8.57924C13.5693 8.61827 13.5516 8.65735 13.5339 8.69647C13.4332 8.91844 13.3276 9.13022 13.1934 9.33607C13.1509 9.39941 13.1509 9.39941 13.1257 9.48039C13.1067 9.48039 13.0877 9.48039 13.0681 9.48039C13.0627 9.50451 13.0627 9.50451 13.0572 9.52912C13.0286 9.62544 12.9683 9.70443 12.9113 9.78761C12.8995 9.80535 12.8877 9.82309 12.8756 9.84137C12.8453 9.88594 12.8127 9.92908 12.7797 9.97193C12.7607 9.97193 12.7416 9.97193 12.722 9.97193C12.7149 9.98672 12.7078 10.0015 12.7004 10.0167C12.6563 10.0956 12.6041 10.1658 12.549 10.2382C12.5288 10.2651 12.5086 10.292 12.4877 10.3197C12.4699 10.3401 12.4521 10.3605 12.4337 10.3816C12.4146 10.3816 12.3956 10.3816 12.376 10.3816C12.3677 10.3979 12.3593 10.4142 12.3508 10.431C12.3183 10.4908 12.3183 10.4908 12.2607 10.5727C12.2416 10.5727 12.2226 10.5727 12.203 10.5727C12.1935 10.5997 12.184 10.6268 12.1741 10.6546C12.1551 10.6546 12.1361 10.6546 12.1165 10.6546C12.107 10.6817 12.0974 10.7087 12.0876 10.7366C12.0686 10.7366 12.0496 10.7366 12.03 10.7366C12.0205 10.7636 12.0109 10.7906 12.0011 10.8185C11.9821 10.8185 11.9631 10.8185 11.9435 10.8185C11.9339 10.8455 11.9244 10.8725 11.9146 10.9004C11.8956 10.9004 11.8766 10.9004 11.857 10.9004C11.8474 10.9274 11.8379 10.9545 11.8281 10.9823C11.8091 10.9823 11.7901 10.9823 11.7704 10.9823C11.7609 11.0094 11.7514 11.0364 11.7416 11.0642C11.7226 11.0642 11.7035 11.0642 11.6839 11.0642C11.6744 11.0913 11.6649 11.1183 11.6551 11.1462C11.6361 11.1462 11.617 11.1462 11.5974 11.1462C11.5879 11.1732 11.5784 11.2002 11.5686 11.2281C11.5496 11.2281 11.5305 11.2281 11.5109 11.2281C11.5014 11.2551 11.4919 11.2822 11.4821 11.31C11.4631 11.31 11.444 11.31 11.4244 11.31C11.4149 11.3371 11.4054 11.3641 11.3956 11.3919C11.3494 11.435 11.3494 11.435 11.291 11.4807C11.2099 11.5457 11.1329 11.6119 11.0586 11.6838C10.983 11.7567 10.9041 11.8207 10.8189 11.8835C10.7983 11.9046 10.7983 11.9046 10.7774 11.9261C10.6494 12.0377 10.5257 12.0561 10.3589 12.0529C10.2998 12.0473 10.2998 12.0473 10.2133 12.02C10.2133 12.002 10.2133 11.984 10.2133 11.9654C10.1752 11.9564 10.1372 11.9474 10.098 11.9381C10.098 11.9201 10.098 11.902 10.098 11.8835C10.0759 11.8756 10.0539 11.8677 10.0313 11.8596C9.95377 11.8289 9.95377 11.8289 9.86727 11.7742C9.86727 11.7562 9.86727 11.7382 9.86727 11.7196C9.8503 11.712 9.83333 11.7044 9.81585 11.6966C9.756 11.667 9.70555 11.6352 9.6519 11.5966C9.63323 11.5833 9.61456 11.5699 9.59532 11.5562C9.57563 11.542 9.55594 11.5278 9.53565 11.5131C9.49405 11.4833 9.45245 11.4535 9.41085 11.4237C9.39038 11.409 9.36992 11.3943 9.34884 11.3792C9.26956 11.3223 9.18995 11.2658 9.11032 11.2093C8.7715 10.9687 8.7715 10.9687 8.68623 10.9078C8.6248 10.8644 8.56317 10.8217 8.50082 10.7795C8.47693 10.7632 8.47693 10.7632 8.45255 10.7465C8.40811 10.7161 8.36346 10.6859 8.31879 10.6558C8.25245 10.6 8.25245 10.6 8.21922 10.5484C8.22665 10.451 8.30222 10.3949 8.3714 10.3286C8.38545 10.3146 8.3995 10.3007 8.41397 10.2862C8.50277 10.1982 8.59403 10.1125 8.68499 10.0265C8.70146 10.0103 8.71792 9.99409 8.73489 9.97737C8.77483 9.93813 8.81639 9.90036 8.858 9.8627C8.87704 9.8627 8.89607 9.8627 8.91568 9.8627C8.91568 9.84468 8.91568 9.82666 8.91568 9.80809C8.96467 9.76665 9.01547 9.72712 9.06707 9.68862C9.1479 9.62807 9.22529 9.56967 9.2973 9.49981C9.34822 9.45309 9.34822 9.45309 9.40589 9.45309C9.41541 9.42605 9.42492 9.39902 9.43472 9.37116C9.45376 9.37116 9.47279 9.37116 9.4924 9.37116C9.4924 9.35314 9.4924 9.33512 9.4924 9.31655C9.53576 9.27612 9.53576 9.27612 9.59513 9.2295C9.79973 9.07485 9.79973 9.07485 9.95377 8.87962C9.97281 8.87962 9.99184 8.87962 10.0114 8.87962C10.021 8.85259 10.0305 8.82555 10.0403 8.7977C10.0593 8.7977 10.0783 8.7977 10.098 8.7977C10.1078 8.77658 10.1078 8.77658 10.1178 8.75503C10.1826 8.64101 10.2591 8.53466 10.3575 8.4444C10.4289 8.37462 10.4754 8.29763 10.5262 8.21357C10.5426 8.19181 10.5426 8.19181 10.5593 8.16962C10.5784 8.16962 10.5974 8.16962 10.617 8.16962C10.6237 8.15198 10.6304 8.13435 10.6373 8.11618C10.6771 8.02761 10.7243 7.9457 10.7735 7.86156C11.2083 7.11212 11.2864 6.37694 11.0676 5.55148C10.9076 5.03951 10.6244 4.51357 10.2341 4.12796C10.1845 4.07345 10.1845 4.07345 10.1845 4.01883C10.1559 4.00982 10.1274 4.00081 10.098 3.99152C10.098 3.9735 10.098 3.95548 10.098 3.93691C10.0789 3.93691 10.0599 3.93691 10.0403 3.93691C10.0016 3.89872 10.0016 3.89872 9.95558 3.84475C9.34806 3.17354 8.41632 2.79528 7.49804 2.71336C7.07222 2.68578 6.62406 2.67814 6.20509 2.76267C6.16009 2.77112 6.16009 2.77112 6.11419 2.77974C5.42892 2.91818 4.83857 3.18418 4.27296 3.57412C4.2154 3.60922 4.2154 3.60922 4.15773 3.60922C4.15773 3.62724 4.15773 3.64526 4.15773 3.66383C4.10044 3.70077 4.04275 3.73717 3.98471 3.77306C3.9752 3.79109 3.96568 3.80911 3.95588 3.82768C3.93685 3.82768 3.91781 3.82768 3.89821 3.82768C3.8914 3.84267 3.8846 3.85767 3.87759 3.87312C3.83111 3.95313 3.7725 4.01496 3.70897 4.08369C3.35978 4.47153 3.13859 4.91731 2.93989 5.3873C2.92141 5.43038 2.90202 5.47312 2.88241 5.51575C2.63962 6.04844 2.66342 6.65785 2.80244 7.21385C2.80835 7.23849 2.81426 7.26313 2.82035 7.28852C2.93297 7.69396 3.17821 8.10063 3.46566 8.41539C3.46566 8.43341 3.46566 8.45144 3.46566 8.47001C3.4847 8.47001 3.50373 8.47001 3.52334 8.47001C3.57312 8.51587 3.57312 8.51587 3.62787 8.57582C3.64608 8.59546 3.6643 8.61511 3.68306 8.63534C3.72519 8.68847 3.72519 8.68847 3.72519 8.74308C3.74422 8.74308 3.76325 8.74308 3.78286 8.74308C3.82972 8.78063 3.82972 8.78063 3.86937 8.82501C3.86937 8.84303 3.86937 8.86105 3.86937 8.87962C3.88558 8.88638 3.90178 8.89314 3.91848 8.9001C3.99599 8.94005 4.05577 8.98798 4.12168 9.04347C4.14473 9.06262 4.16778 9.08177 4.19152 9.1015C4.24424 9.1527 4.24424 9.1527 4.24424 9.20732C4.25963 9.21348 4.27502 9.21964 4.29087 9.22598C4.38203 9.27367 4.45762 9.33617 4.5362 9.40018C4.64307 9.49034 4.64307 9.49034 4.76329 9.56232C4.76329 9.58034 4.76329 9.59836 4.76329 9.61693C4.78559 9.62623 4.78559 9.62623 4.80834 9.63571C4.90445 9.68472 4.99821 9.73981 5.08048 9.80809C5.08048 9.82611 5.08048 9.84413 5.08048 9.8627C5.09773 9.87059 5.11498 9.87847 5.13275 9.8866C5.19583 9.91732 5.19583 9.91732 5.28234 9.97193C5.28234 9.98996 5.28234 10.008 5.28234 10.0265C5.29824 10.0333 5.31415 10.0401 5.33055 10.047C5.4107 10.0878 5.47789 10.1368 5.54907 10.1904C5.57479 10.2095 5.60051 10.2287 5.62702 10.2484C5.64649 10.2653 5.66597 10.2822 5.68604 10.2996C5.68604 10.3177 5.68604 10.3357 5.68604 10.3542C5.70329 10.3621 5.72053 10.37 5.73831 10.3781C5.80138 10.4089 5.80138 10.4089 5.88789 10.4635C5.88789 10.4815 5.88789 10.4995 5.88789 10.5181C5.90752 10.5237 5.92715 10.5294 5.94737 10.5352C6.0429 10.5775 6.10871 10.6307 6.18639 10.6973C6.23824 10.7418 6.23824 10.7418 6.32043 10.7912C6.32043 10.8092 6.32043 10.8272 6.32043 10.8458C6.34244 10.8537 6.36444 10.8616 6.38712 10.8697C6.46461 10.9004 6.46461 10.9004 6.55112 10.955C6.55112 10.973 6.55112 10.9911 6.55112 11.0096C6.58918 11.0186 6.62725 11.0277 6.66647 11.0369C6.66647 11.055 6.66647 11.073 6.66647 11.0916C6.68847 11.0994 6.71048 11.1073 6.73315 11.1154C6.81065 11.1462 6.81065 11.1462 6.89715 11.2008C6.89715 11.2188 6.89715 11.2368 6.89715 11.2554C6.914 11.263 6.93085 11.2706 6.94821 11.2784C7.05144 11.3292 7.14226 11.3953 7.23598 11.4602C7.25609 11.4738 7.2762 11.4875 7.29692 11.5015C7.32541 11.5212 7.32541 11.5212 7.35448 11.5413C7.38056 11.5592 7.38056 11.5592 7.40716 11.5775C7.41966 11.5884 7.43216 11.5992 7.44504 11.6104C7.44504 11.6284 7.44504 11.6464 7.44504 11.665C7.46065 11.6718 7.47626 11.6785 7.49235 11.6855C7.57562 11.7273 7.64971 11.7767 7.72619 11.8289C7.75459 11.848 7.78299 11.8672 7.81225 11.8869C7.83381 11.9038 7.85537 11.9207 7.87758 11.9381C7.87758 11.9561 7.87758 11.9741 7.87758 11.9927C7.89423 12.0006 7.91088 12.0085 7.92804 12.0166C7.94945 12.0267 7.97086 12.0369 7.99292 12.0473C8.01196 12.0552 8.03099 12.0631 8.0506 12.0712C8.10827 12.1019 8.10827 12.1019 8.15558 12.1489C8.26285 12.2471 8.38613 12.3242 8.50803 12.4053C8.55838 12.4395 8.6074 12.4754 8.65615 12.5116C8.65615 12.5296 8.65615 12.5476 8.65615 12.5662C8.68559 12.5755 8.68559 12.5755 8.71563 12.5849C8.82049 12.6293 8.91649 12.6844 9.00218 12.7573C9.00218 12.7754 9.00218 12.7934 9.00218 12.8119C9.03162 12.8212 9.03162 12.8212 9.06166 12.8307C9.16652 12.8751 9.26252 12.9301 9.34822 13.0031C9.34822 13.0211 9.34822 13.0391 9.34822 13.0577C9.37022 13.0656 9.39223 13.0735 9.4149 13.0816C9.4924 13.1123 9.4924 13.1123 9.57891 13.1669C9.57891 13.185 9.57891 13.203 9.57891 13.2216C9.59575 13.2291 9.6126 13.2367 9.62996 13.2446C9.73319 13.2953 9.82401 13.3614 9.91773 13.4264C9.93784 13.44 9.95795 13.4536 9.97867 13.4677C9.99766 13.4808 10.0167 13.4939 10.0362 13.5074C10.0623 13.5254 10.0623 13.5254 10.0889 13.5437C10.1014 13.5545 10.1139 13.5654 10.1268 13.5766C10.1268 13.5946 10.1268 13.6126 10.1268 13.6312C10.1424 13.6378 10.1579 13.6443 10.174 13.6511C10.2594 13.6946 10.3327 13.7478 10.4097 13.8036C10.5087 13.875 10.608 13.9453 10.7107 14.0118C10.7369 14.0304 10.7631 14.049 10.79 14.0681C10.79 14.0861 10.79 14.1042 10.79 14.1227C10.8073 14.1306 10.8245 14.1385 10.8423 14.1466C10.9054 14.1773 10.9054 14.1773 10.9919 14.232C10.9919 14.25 10.9919 14.268 10.9919 14.2866C11.016 14.2969 11.016 14.2969 11.0406 14.3074C11.1178 14.3466 11.1814 14.3933 11.2496 14.4453C11.2736 14.4635 11.2977 14.4817 11.3225 14.5004C11.3991 14.5625 11.4688 14.6284 11.5398 14.6962C11.5883 14.7419 11.6369 14.7876 11.6855 14.8333C11.7272 14.8725 11.7689 14.9119 11.8106 14.9512C11.839 14.9779 11.8674 15.0046 11.8958 15.0313C12.0623 15.1876 12.2249 15.3454 12.376 15.5154C12.3891 15.53 12.4022 15.5445 12.4157 15.5595C12.4503 15.5981 12.4843 15.6369 12.5184 15.6759C12.5518 15.7138 12.5518 15.7138 12.5859 15.7524C12.6355 15.8158 12.6355 15.8158 12.6355 15.8704C12.6546 15.8704 12.6736 15.8704 12.6932 15.8704C12.7392 15.9277 12.7392 15.9277 12.7941 16.0087C12.8249 16.0538 12.8249 16.0538 12.8563 16.0998C12.8673 16.1159 12.8782 16.132 12.8895 16.1486C12.9238 16.198 12.9592 16.2464 12.9951 16.2948C13.166 16.5268 13.2975 16.764 13.4189 17.0222C13.4494 17.0852 13.4838 17.1459 13.5186 17.2068C13.96 18.0385 13.9908 19.0076 13.9908 19.912C13.0868 19.912 12.1828 19.912 11.2514 19.912C11.2228 19.5876 11.1943 19.2631 11.1649 18.9289C11.0879 18.7284 11.0129 18.5491 10.9072 18.364C10.8951 18.3424 10.8831 18.3208 10.8707 18.2986C10.8004 18.1738 10.7256 18.0535 10.6434 17.9354C10.617 17.8912 10.617 17.8912 10.617 17.8366C10.598 17.8366 10.5789 17.8366 10.5593 17.8366C10.5292 17.7951 10.5014 17.7521 10.4746 17.7086C10.3491 17.5159 10.1975 17.3508 10.0403 17.1812C10.0218 17.1609 10.0033 17.1406 9.98419 17.1198C9.93598 17.0671 9.88729 17.0149 9.83843 16.9627C9.81869 16.9415 9.79895 16.9203 9.77862 16.8984C9.55819 16.6634 9.33373 16.4405 9.06921 16.2496C8.99341 16.1914 8.9269 16.127 8.858 16.0616C8.80933 16.0222 8.76005 15.9835 8.71022 15.9455C8.62641 15.8814 8.54266 15.8173 8.45982 15.752C8.30732 15.632 8.15291 15.5206 7.98718 15.4174C7.96147 15.3983 7.96147 15.3983 7.93525 15.3789C7.93525 15.3609 7.93525 15.3428 7.93525 15.3243C7.91325 15.3164 7.89124 15.3085 7.86857 15.3004C7.79107 15.2696 7.79107 15.2696 7.70456 15.215C7.70456 15.197 7.70456 15.179 7.70456 15.1604C7.68772 15.1528 7.67087 15.1452 7.65351 15.1374C7.55027 15.0866 7.45946 15.0205 7.36574 14.9556C7.34563 14.942 7.32552 14.9284 7.3048 14.9143C7.27631 14.8946 7.27631 14.8946 7.24724 14.8745C7.22116 14.8566 7.22116 14.8566 7.19455 14.8383C7.18205 14.8275 7.16956 14.8166 7.15668 14.8054C7.15668 14.7874 7.15668 14.7694 7.15668 14.7508C7.1359 14.7441 7.11512 14.7374 7.09371 14.7304C7.00325 14.6923 6.94169 14.6461 6.86652 14.5852C6.66982 14.4292 6.46613 14.2832 6.2569 14.1426C6.21341 14.1133 6.21341 14.1133 6.16904 14.0835C6.12957 14.0573 6.12957 14.0573 6.08929 14.0307C6.07041 14.016 6.05153 14.0013 6.03207 13.9862C6.03207 13.9682 6.03207 13.9501 6.03207 13.9316C6.01007 13.9237 5.98806 13.9158 5.96539 13.9077C5.88789 13.877 5.88789 13.877 5.80138 13.8223C5.80138 13.8043 5.80138 13.7863 5.80138 13.7677C5.76332 13.7587 5.72526 13.7497 5.68604 13.7404C5.68604 13.7224 5.68604 13.7044 5.68604 13.6858C5.66899 13.6781 5.65194 13.6705 5.63437 13.6626C5.57604 13.6338 5.52697 13.6033 5.47473 13.5657C5.44758 13.5463 5.44758 13.5463 5.41989 13.5265C5.39105 13.5056 5.39105 13.5056 5.36163 13.4844C5.32052 13.455 5.27941 13.4255 5.23829 13.3961C5.21715 13.3809 5.196 13.3657 5.17421 13.35C5.06811 13.2739 4.96166 13.1982 4.8552 13.1226C4.826 13.1017 4.826 13.1017 4.79621 13.0805C4.76893 13.0611 4.76893 13.0611 4.7411 13.0413C4.72516 13.0299 4.70922 13.0186 4.69279 13.0069C4.64988 12.9771 4.60568 12.9491 4.56143 12.9212C4.56143 12.9032 4.56143 12.8851 4.56143 12.8666C4.53943 12.8587 4.51742 12.8508 4.49475 12.8427C4.41725 12.8119 4.41725 12.8119 4.33075 12.7573C4.33075 12.7393 4.33075 12.7213 4.33075 12.7027C4.29268 12.6937 4.25462 12.6847 4.2154 12.6754C4.2154 12.6574 4.2154 12.6394 4.2154 12.6208C4.19466 12.6141 4.17392 12.6074 4.15255 12.6005C4.06137 12.562 3.99918 12.515 3.92344 12.4535C3.78557 12.3436 3.64322 12.2436 3.49506 12.1464C3.46624 12.1244 3.46624 12.1244 3.43683 12.1019C3.43683 12.0839 3.43683 12.0659 3.43683 12.0473C3.41453 12.038 3.41453 12.038 3.39177 12.0286C3.29566 11.9795 3.2019 11.9245 3.11963 11.8562C3.11963 11.8381 3.11963 11.8201 3.11963 11.8016C3.09733 11.7923 3.09733 11.7923 3.07458 11.7828C3.01161 11.7507 2.95682 11.716 2.89897 11.6764C2.87182 11.6579 2.87182 11.6579 2.84412 11.639C2.82349 11.6248 2.82349 11.6248 2.80244 11.6104C2.79839 11.9276 2.79457 12.2447 2.79081 12.5619C2.78982 12.6446 2.78882 12.7272 2.78781 12.8099C2.77888 13.545 2.77259 14.2801 2.76925 15.0153C2.76853 15.1731 2.76774 15.3309 2.76691 15.4887C2.76679 15.5111 2.76667 15.5334 2.76655 15.5565C2.76608 15.6468 2.7656 15.7372 2.76512 15.8276C2.76369 16.097 2.76253 16.3665 2.76179 16.6359C2.76129 16.8078 2.76049 16.9796 2.75947 17.1515C2.75888 17.2517 2.75844 17.3519 2.75837 17.4521C2.75749 18.4804 2.75749 18.4804 2.56634 18.905C2.55848 18.9236 2.55062 18.9422 2.54252 18.9614C2.52389 19.0054 2.50464 19.0491 2.48524 19.0927C2.46621 19.0927 2.44718 19.0927 2.42757 19.0927C2.42459 19.113 2.42162 19.1333 2.41856 19.1542C2.39731 19.2347 2.3714 19.278 2.31222 19.3385C2.29319 19.3385 2.27416 19.3385 2.25455 19.3385C2.24715 19.3546 2.23976 19.3708 2.23214 19.3874C2.07275 19.6603 1.68963 19.8265 1.38947 19.912C1.08747 19.9898 0.809627 20.0043 0.499158 19.999C0.456542 19.9986 0.413926 19.9982 0.37131 19.9979C0.268535 19.997 0.165777 19.9956 0.0630124 19.9939C0.0292052 19.7657 0.0297575 19.5385 0.029614 19.3085C0.0294822 19.2637 0.0293378 19.2189 0.0291824 19.1741C0.0287921 19.0513 0.0285774 18.9286 0.0283917 18.8058C0.0281601 18.6731 0.0277652 18.5404 0.0273907 18.4078C0.0266813 18.1475 0.0261215 17.8872 0.02561 17.6269C0.025004 17.3219 0.0242413 17.0169 0.0234711 16.7118C0.0220953 16.1651 0.0208492 15.6184 0.0196809 15.0717C0.018557 14.5459 0.0173627 14.02 0.0160764 13.4942C0.0159586 13.446 0.0159586 13.446 0.0158384 13.3968C0.015522 13.2675 0.0152054 13.1383 0.0148884 13.009C0.0134993 12.4418 0.0121673 11.8745 0.0108461 11.3073C0.0106359 11.2172 0.0104247 11.127 0.0102134 11.0369C0.00980303 10.8616 0.00939816 10.6863 0.00899721 10.5109C0.00893215 10.4826 0.00886712 10.4542 0.00880009 10.4249C0.00810644 10.1203 0.00747018 9.81574 0.00698816 9.51115C0.00692501 9.47151 0.00692499 9.47151 0.00686056 9.43107C0.00669382 9.32588 0.00652786 9.22069 0.00636952 9.1155C0.00590446 8.8109 0.00515444 8.50631 0.00387998 8.20171C0.00308048 8.00988 0.00246904 7.81805 0.00199765 7.62621C0.00171745 7.51657 0.00134108 7.40693 0.000685117 7.2973C-0.00167923 6.89322 0.000702001 6.49074 0.0302546 6.08735C0.0324264 6.05755 0.0345982 6.02774 0.0368358 5.99703C0.117199 5.03088 0.464416 4.06823 0.983963 3.23544C1.0003 3.20912 1.0003 3.20912 1.01696 3.18228C1.04327 3.14149 1.07197 3.10209 1.10111 3.06306C1.12014 3.06306 1.13917 3.06306 1.15878 3.06306C1.16711 3.04278 1.17543 3.02251 1.18401 3.00162C1.21135 2.93833 1.24092 2.87793 1.27413 2.81729C1.29316 2.81729 1.31219 2.81729 1.3318 2.81729C1.33834 2.7987 1.34488 2.78012 1.35162 2.76097C1.39847 2.66167 1.4566 2.57075 1.53365 2.4896C1.55268 2.4896 1.57171 2.4896 1.59132 2.4896C1.59786 2.47551 1.60441 2.46143 1.61115 2.44693C1.68153 2.32315 1.76748 2.20051 1.87968 2.10729C1.89871 2.10729 1.91775 2.10729 1.93735 2.10729C1.94484 2.09133 1.95234 2.07538 1.96005 2.05894C1.99747 1.99381 2.03809 1.95021 2.09325 1.89778C2.11232 1.87966 2.13139 1.86153 2.15103 1.84285C2.17092 1.82423 2.19081 1.80561 2.2113 1.78642C2.23118 1.76738 2.25107 1.74833 2.27156 1.72871C2.29063 1.71072 2.3097 1.69273 2.32934 1.6742C2.3468 1.65774 2.36425 1.64127 2.38223 1.62431C2.42757 1.58844 2.42757 1.58844 2.48524 1.58844C2.48524 1.57041 2.48524 1.55239 2.48524 1.53382C2.52485 1.49927 2.52485 1.49927 2.58008 1.46065C2.60012 1.44653 2.62015 1.43241 2.6408 1.41787C2.66202 1.40319 2.68325 1.38851 2.70511 1.37339C2.72567 1.35892 2.74623 1.34445 2.7674 1.32955C3.09964 1.0969 3.09964 1.0969 3.1773 1.0969C3.1773 1.07887 3.1773 1.06085 3.1773 1.04228C3.24996 0.995133 3.24996 0.995133 3.34491 0.943291C3.37603 0.926042 3.40714 0.908794 3.43919 0.891022C3.52334 0.851127 3.52334 0.851127 3.60985 0.851127C3.60985 0.833104 3.60985 0.815081 3.60985 0.796512C4.26725 0.498725 4.93453 0.232122 5.6572 0.113816C5.67862 0.110305 5.70004 0.106794 5.72211 0.103176C6.07682 0.0461404 6.42671 0.0132972 6.78605 0.00277178Z" fill="#00AFF9"/>
</svg>
