<svg width="200" height="60" viewBox="0 0 200 60" fill="none" xmlns="http://www.w3.org/2000/svg">
<path d="M17.2435 5.14165C18.5617 5.1065 19.8325 5.2583 21.0938 5.63031C21.1518 5.64689 21.2098 5.66347 21.2696 5.68056C21.8812 5.85976 22.4415 6.12416 23.0075 6.41113C23.1238 6.46968 23.241 6.5262 23.3582 6.58298C23.6022 6.70471 23.851 6.82989 24.0723 6.98953C24.0723 7.02157 24.0723 7.05361 24.0723 7.08662C24.1064 7.09813 24.1405 7.10965 24.1757 7.12151C24.3425 7.19524 24.471 7.29128 24.6155 7.40215C24.7583 7.51121 24.899 7.61836 25.0488 7.71768C25.0488 7.74972 25.0488 7.78176 25.0488 7.81477C25.0757 7.82647 25.1025 7.83818 25.1301 7.85023C25.2704 7.92607 25.3839 8.01955 25.5066 8.1212C25.5541 8.1605 25.6015 8.1998 25.6504 8.24029C25.6936 8.27608 25.7368 8.31187 25.7813 8.34875C25.8103 8.37153 25.8394 8.39431 25.8694 8.41778C26.0411 8.55254 26.18 8.70501 26.321 8.87003C26.4667 9.03842 26.6195 9.20038 26.7714 9.36324C26.8555 9.46526 26.8555 9.46526 26.8555 9.56235C26.8877 9.56235 26.9199 9.56235 26.9531 9.56235C26.9692 9.62642 26.9854 9.6905 27.002 9.75652C27.0342 9.75652 27.0664 9.75652 27.0996 9.75652C27.2949 10.0192 27.2949 10.0192 27.2949 10.1449C27.3272 10.1449 27.3594 10.1449 27.3926 10.1449C27.4663 10.2548 27.534 10.3642 27.6001 10.4786C27.64 10.5466 27.6799 10.6145 27.7199 10.6825C27.7392 10.7156 27.7586 10.7487 27.7785 10.7828C27.8424 10.8906 27.9106 10.9953 27.9785 11.1006C28.2131 11.4892 28.3842 11.914 28.5645 12.3293C28.5788 12.362 28.5932 12.3946 28.608 12.4282C28.9814 13.2807 29.1956 14.1812 29.3457 15.0963C29.3588 15.1702 29.3588 15.1702 29.3722 15.2455C29.4519 15.7319 29.4608 16.2099 29.4586 16.7013C29.4585 16.7432 29.4584 16.785 29.4583 16.8281C29.4558 17.4579 29.4367 18.0719 29.2969 18.6886C29.2864 18.7348 29.2759 18.7811 29.2651 18.8287C29.1394 19.3672 28.9955 19.8856 28.7598 20.3876C28.7296 20.457 28.6996 20.5264 28.6697 20.596C28.4992 20.9906 28.3204 21.367 28.0932 21.733C28.0211 21.8456 28.0211 21.8456 27.9785 21.9895C27.9463 21.9895 27.9141 21.9895 27.8809 21.9895C27.8718 22.0324 27.8718 22.0324 27.8625 22.0761C27.814 22.2474 27.7119 22.3878 27.6154 22.5356C27.5954 22.5672 27.5755 22.5987 27.555 22.6312C27.5037 22.7105 27.4484 22.7871 27.3926 22.8633C27.3604 22.8633 27.3281 22.8633 27.2949 22.8633C27.2828 22.8896 27.2708 22.9159 27.2583 22.943C27.1836 23.0831 27.0952 23.2079 27.002 23.3366C26.9677 23.3844 26.9335 23.4322 26.8982 23.4815C26.868 23.5178 26.8378 23.5541 26.8067 23.5915C26.7744 23.5915 26.7422 23.5915 26.709 23.5915C26.6949 23.6205 26.6808 23.6495 26.6663 23.6795C26.6113 23.7856 26.6113 23.7856 26.5137 23.9313C26.4815 23.9313 26.4492 23.9313 26.416 23.9313C26.3999 23.9793 26.3838 24.0274 26.3672 24.0769C26.335 24.0769 26.3027 24.0769 26.2695 24.0769C26.2534 24.125 26.2373 24.173 26.2207 24.2225C26.1885 24.2225 26.1563 24.2225 26.1231 24.2225C26.1069 24.2706 26.0908 24.3187 26.0742 24.3682C26.042 24.3682 26.0098 24.3682 25.9766 24.3682C25.9605 24.4162 25.9443 24.4643 25.9277 24.5138C25.8955 24.5138 25.8633 24.5138 25.8301 24.5138C25.814 24.5619 25.7979 24.6099 25.7813 24.6594C25.749 24.6594 25.7168 24.6594 25.6836 24.6594C25.6675 24.7075 25.6514 24.7555 25.6348 24.8051C25.6025 24.8051 25.5703 24.8051 25.5371 24.8051C25.521 24.8531 25.5049 24.9012 25.4883 24.9507C25.4561 24.9507 25.4238 24.9507 25.3906 24.9507C25.3745 24.9988 25.3584 25.0468 25.3418 25.0963C25.3096 25.0963 25.2774 25.0963 25.2442 25.0963C25.228 25.1444 25.2119 25.1924 25.1953 25.242C25.1631 25.242 25.1309 25.242 25.0977 25.242C25.0816 25.29 25.0654 25.3381 25.0488 25.3876C24.9706 25.4642 24.9706 25.4642 24.8718 25.5454C24.7345 25.6609 24.604 25.7785 24.4782 25.9064C24.3502 26.0359 24.2166 26.1498 24.0723 26.2614C24.0375 26.2989 24.0375 26.2989 24.0021 26.3372C23.7853 26.5355 23.5759 26.5683 23.2935 26.5625C23.1934 26.5526 23.1934 26.5526 23.0469 26.5041C23.0469 26.4721 23.0469 26.44 23.0469 26.407C22.9824 26.391 22.918 26.375 22.8516 26.3585C22.8516 26.3264 22.8516 26.2944 22.8516 26.2614C22.8143 26.2474 22.777 26.2333 22.7387 26.2189C22.6074 26.1643 22.6074 26.1643 22.4609 26.0672C22.4609 26.0352 22.4609 26.0031 22.4609 25.9701C22.4322 25.9566 22.4035 25.9431 22.3739 25.9292C22.2725 25.8766 22.1871 25.82 22.0963 25.7515C22.0646 25.7277 22.033 25.704 22.0005 25.6796C21.9671 25.6543 21.9338 25.629 21.8994 25.603C21.829 25.55 21.7585 25.4971 21.6881 25.4441C21.6534 25.418 21.6188 25.3918 21.5831 25.3649C21.4488 25.2637 21.3141 25.1633 21.1792 25.063C20.6055 24.6352 20.6055 24.6352 20.4611 24.5269C20.3571 24.4498 20.2527 24.3739 20.1471 24.299C20.1067 24.2699 20.1067 24.2699 20.0654 24.2402C19.9902 24.1861 19.9145 24.1325 19.8389 24.079C19.7266 23.9798 19.7266 23.9798 19.6703 23.888C19.6829 23.7149 19.8108 23.6152 19.928 23.4974C19.9518 23.4725 19.9756 23.4477 20.0001 23.422C20.1504 23.2656 20.305 23.1133 20.459 22.9604C20.4869 22.9316 20.5148 22.9027 20.5435 22.873C20.6111 22.8032 20.6815 22.7361 20.752 22.6691C20.7842 22.6691 20.8164 22.6691 20.8496 22.6691C20.8496 22.6371 20.8496 22.6051 20.8496 22.5721C20.9326 22.4984 21.0186 22.4281 21.106 22.3597C21.2428 22.252 21.3739 22.1482 21.4958 22.024C21.582 21.941 21.582 21.941 21.6797 21.941C21.6958 21.8929 21.7119 21.8449 21.7285 21.7954C21.7608 21.7954 21.793 21.7954 21.8262 21.7954C21.8262 21.7633 21.8262 21.7313 21.8262 21.6983C21.8996 21.6264 21.8996 21.6264 22.0001 21.5435C22.3466 21.2686 22.3466 21.2686 22.6074 20.9216C22.6397 20.9216 22.6719 20.9216 22.7051 20.9216C22.7212 20.8735 22.7373 20.8255 22.7539 20.7759C22.7861 20.7759 22.8184 20.7759 22.8516 20.7759C22.8682 20.7384 22.8682 20.7384 22.8851 20.7001C22.9949 20.4974 23.1244 20.3084 23.291 20.1479C23.412 20.0238 23.4906 19.887 23.5767 19.7376C23.6045 19.6989 23.6045 19.6989 23.6328 19.6594C23.665 19.6594 23.6973 19.6594 23.7305 19.6594C23.7418 19.6281 23.7531 19.5967 23.7648 19.5644C23.8323 19.407 23.9122 19.2614 23.9955 19.1118C24.7318 17.7796 24.864 16.4727 24.4934 15.0053C24.2225 14.0952 23.743 13.1603 23.0822 12.4748C22.9981 12.3779 22.9981 12.3779 22.9981 12.2808C22.9497 12.2648 22.9014 12.2488 22.8516 12.2322C22.8516 12.2002 22.8516 12.1682 22.8516 12.1352C22.8193 12.1352 22.7871 12.1352 22.7539 12.1352C22.6885 12.0673 22.6885 12.0673 22.6105 11.9713C21.5818 10.7782 20.0041 10.1057 18.4491 9.96012C17.7281 9.91109 16.9692 9.89752 16.2598 10.0478C16.1836 10.0628 16.1836 10.0628 16.1059 10.0781C14.9455 10.3242 13.9458 10.7971 12.9881 11.4903C12.8906 11.5526 12.8906 11.5526 12.793 11.5526C12.793 11.5847 12.793 11.6167 12.793 11.6497C12.696 11.7154 12.5983 11.7801 12.5 11.8439C12.4839 11.8759 12.4678 11.908 12.4512 11.941C12.419 11.941 12.3867 11.941 12.3535 11.941C12.342 11.9676 12.3305 11.9943 12.3186 12.0218C12.2399 12.164 12.1407 12.2739 12.0331 12.3961C11.4418 13.0855 11.0673 13.878 10.7308 14.7135C10.6995 14.79 10.6667 14.866 10.6335 14.9418C10.2224 15.8887 10.2627 16.972 10.4981 17.9604C10.5081 18.0042 10.5181 18.048 10.5284 18.0931C10.7191 18.8139 11.1343 19.5368 11.6211 20.0963C11.6211 20.1284 11.6211 20.1604 11.6211 20.1934C11.6533 20.1934 11.6856 20.1934 11.7188 20.1934C11.8031 20.275 11.8031 20.275 11.8958 20.3815C11.9266 20.4164 11.9574 20.4514 11.9892 20.4873C12.0606 20.5818 12.0606 20.5818 12.0606 20.6789C12.0928 20.6789 12.125 20.6789 12.1582 20.6789C12.2376 20.7456 12.2376 20.7456 12.3047 20.8245C12.3047 20.8565 12.3047 20.8886 12.3047 20.9216C12.3321 20.9336 12.3596 20.9456 12.3879 20.958C12.5191 21.029 12.6203 21.1142 12.7319 21.2128C12.771 21.2469 12.81 21.2809 12.8502 21.316C12.9395 21.407 12.9395 21.407 12.9395 21.5041C12.9655 21.515 12.9916 21.526 13.0184 21.5373C13.1728 21.6221 13.3008 21.7332 13.4338 21.8469C13.6148 22.0072 13.6148 22.0072 13.8184 22.1352C13.8184 22.1672 13.8184 22.1992 13.8184 22.2322C13.8561 22.2488 13.8561 22.2488 13.8947 22.2656C14.0574 22.3527 14.2162 22.4507 14.3555 22.5721C14.3555 22.6041 14.3555 22.6361 14.3555 22.6691C14.3847 22.6832 14.4139 22.6972 14.444 22.7116C14.5508 22.7662 14.5508 22.7662 14.6973 22.8633C14.6973 22.8954 14.6973 22.9274 14.6973 22.9604C14.7242 22.9724 14.7512 22.9844 14.7789 22.9968C14.9146 23.0693 15.0284 23.1564 15.1489 23.2517C15.1925 23.2857 15.236 23.3197 15.2809 23.3548C15.3139 23.3849 15.3469 23.4149 15.3809 23.4458C15.3809 23.4779 15.3809 23.5099 15.3809 23.5429C15.4101 23.5569 15.4393 23.571 15.4694 23.5854C15.5762 23.64 15.5762 23.64 15.7227 23.7371C15.7227 23.7691 15.7227 23.8012 15.7227 23.8342C15.7559 23.8442 15.7891 23.8542 15.8234 23.8645C15.9851 23.9398 16.0966 24.0344 16.2281 24.1528C16.3159 24.2319 16.3159 24.2319 16.4551 24.3196C16.4551 24.3517 16.4551 24.3837 16.4551 24.4167C16.4923 24.4307 16.5296 24.4447 16.568 24.4592C16.6992 24.5138 16.6992 24.5138 16.8457 24.6109C16.8457 24.6429 16.8457 24.675 16.8457 24.708C16.9102 24.724 16.9746 24.74 17.041 24.7565C17.041 24.7886 17.041 24.8206 17.041 24.8536C17.0783 24.8676 17.1155 24.8816 17.1539 24.8961C17.2852 24.9507 17.2852 24.9507 17.4317 25.0478C17.4317 25.0798 17.4317 25.1119 17.4317 25.1449C17.4602 25.1584 17.4887 25.1718 17.5181 25.1857C17.6929 25.276 17.8467 25.3935 18.0054 25.5089C18.0394 25.5332 18.0735 25.5574 18.1086 25.5823C18.1568 25.6173 18.1568 25.6173 18.206 25.6531C18.2502 25.6849 18.2502 25.6849 18.2953 25.7174C18.3164 25.7367 18.3376 25.756 18.3594 25.7759C18.3594 25.808 18.3594 25.84 18.3594 25.873C18.3858 25.885 18.4123 25.8971 18.4395 25.9094C18.5805 25.9837 18.706 26.0716 18.8355 26.1643C18.8835 26.1983 18.9316 26.2324 18.9812 26.2674C19.0177 26.2975 19.0542 26.3275 19.0918 26.3585C19.0918 26.3905 19.0918 26.4225 19.0918 26.4555C19.12 26.4696 19.1482 26.4836 19.1773 26.498C19.2135 26.516 19.2498 26.5341 19.2871 26.5526C19.3193 26.5667 19.3516 26.5807 19.3848 26.5951C19.4824 26.6497 19.4824 26.6497 19.5625 26.7332C19.7442 26.9078 19.9529 27.0449 20.1594 27.189C20.2446 27.2497 20.3276 27.3136 20.4102 27.3779C20.4102 27.4099 20.4102 27.442 20.4102 27.475C20.46 27.4915 20.46 27.4915 20.5109 27.5083C20.6884 27.5872 20.851 27.6851 20.9961 27.8148C20.9961 27.8468 20.9961 27.8788 20.9961 27.9119C21.046 27.9284 21.046 27.9284 21.0968 27.9452C21.2744 28.0241 21.4369 28.122 21.582 28.2517C21.582 28.2837 21.582 28.3157 21.582 28.3488C21.6193 28.3628 21.6566 28.3768 21.695 28.3912C21.8262 28.4458 21.8262 28.4458 21.9727 28.5429C21.9727 28.575 21.9727 28.607 21.9727 28.64C22.0012 28.6535 22.0297 28.667 22.0591 28.6809C22.2339 28.7712 22.3877 28.8887 22.5464 29.0041C22.5804 29.0283 22.6145 29.0525 22.6496 29.0775C22.6817 29.1008 22.7139 29.1242 22.747 29.1482C22.7912 29.1801 22.7912 29.1801 22.8363 29.2126C22.8574 29.2319 22.8786 29.2512 22.9004 29.2711C22.9004 29.3031 22.9004 29.3352 22.9004 29.3682C22.9268 29.3799 22.9531 29.3916 22.9803 29.4036C23.125 29.4809 23.249 29.5755 23.3795 29.6746C23.5471 29.8016 23.7152 29.9266 23.8892 30.0447C23.9335 30.0778 23.9778 30.1108 24.0234 30.1449C24.0234 30.1769 24.0234 30.2089 24.0234 30.242C24.0527 30.256 24.0819 30.27 24.1119 30.2844C24.2188 30.339 24.2188 30.339 24.3652 30.4361C24.3652 30.4682 24.3652 30.5002 24.3652 30.5332C24.4061 30.5515 24.4061 30.5515 24.4478 30.5702C24.5785 30.6399 24.6862 30.7229 24.8016 30.8154C24.8424 30.8477 24.8831 30.8801 24.9251 30.9134C25.0547 31.0237 25.1728 31.141 25.293 31.2614C25.3752 31.3426 25.4575 31.4238 25.5398 31.505C25.6104 31.5749 25.681 31.6448 25.7516 31.7146C25.7996 31.7622 25.8477 31.8096 25.8959 31.8571C26.1778 32.135 26.4532 32.4155 26.709 32.7177C26.7312 32.7436 26.7534 32.7694 26.7763 32.7961C26.8347 32.8646 26.8924 32.9337 26.9501 33.0029C27.0066 33.0703 27.0066 33.0703 27.0643 33.139C27.1484 33.2517 27.1484 33.2517 27.1484 33.3488C27.1807 33.3488 27.2129 33.3488 27.2461 33.3488C27.3239 33.4506 27.3239 33.4506 27.417 33.5945C27.4691 33.6747 27.4691 33.6747 27.5223 33.7564C27.5409 33.7851 27.5594 33.8137 27.5786 33.8432C27.6366 33.931 27.6965 34.0171 27.7573 34.1031C28.0467 34.5156 28.2693 34.9372 28.4749 35.3963C28.5265 35.5082 28.5848 35.6161 28.6438 35.7244C29.3911 37.2028 29.4434 38.9256 29.4434 40.5332C27.9126 40.5332 26.3818 40.5332 24.8047 40.5332C24.7564 39.9565 24.708 39.3798 24.6582 38.7856C24.5278 38.4292 24.4009 38.1105 24.2218 37.7814C24.2015 37.7431 24.1811 37.7047 24.1601 37.6653C24.0411 37.4434 23.9143 37.2296 23.7752 37.0195C23.7305 36.941 23.7305 36.941 23.7305 36.8439C23.6983 36.8439 23.666 36.8439 23.6328 36.8439C23.5818 36.7701 23.5348 36.6937 23.4894 36.6164C23.2768 36.2739 23.0201 35.9804 22.7539 35.6789C22.7226 35.6428 22.6912 35.6068 22.6589 35.5696C22.5773 35.476 22.4949 35.3832 22.4121 35.2905C22.3787 35.2528 22.3453 35.215 22.3108 35.1762C21.9376 34.7585 21.5575 34.3622 21.1096 34.0229C20.9813 33.9193 20.8686 33.8049 20.752 33.6886C20.6695 33.6186 20.5861 33.5499 20.5017 33.4822C20.3598 33.3682 20.218 33.2543 20.0777 33.1383C19.8195 32.9249 19.558 32.727 19.2774 32.5434C19.2339 32.5095 19.2339 32.5095 19.1895 32.475C19.1895 32.4429 19.1895 32.4109 19.1895 32.3779C19.1522 32.3639 19.1149 32.3498 19.0765 32.3354C18.9453 32.2808 18.9453 32.2808 18.7988 32.1837C18.7988 32.1517 18.7988 32.1196 18.7988 32.0866C18.7703 32.0731 18.7418 32.0596 18.7124 32.0458C18.5376 31.9555 18.3838 31.838 18.2251 31.7225C18.1911 31.6983 18.157 31.6741 18.1219 31.6492C18.0737 31.6141 18.0737 31.6141 18.0245 31.5784C17.9803 31.5466 17.9803 31.5466 17.9352 31.514C17.9141 31.4947 17.8929 31.4754 17.8711 31.4555C17.8711 31.4235 17.8711 31.3915 17.8711 31.3585C17.8359 31.3465 17.8007 31.3346 17.7645 31.3222C17.6113 31.2544 17.5071 31.1724 17.3798 31.0642C17.0467 30.7868 16.7018 30.5272 16.3475 30.2772C16.2739 30.2252 16.2739 30.2252 16.1987 30.1722C16.1319 30.1257 16.1319 30.1257 16.0637 30.0783C16.0317 30.0522 15.9998 30.0261 15.9668 29.9992C15.9668 29.9672 15.9668 29.9352 15.9668 29.9022C15.9295 29.8881 15.8923 29.8741 15.8539 29.8597C15.7227 29.8051 15.7227 29.8051 15.5762 29.708C15.5762 29.6759 15.5762 29.6439 15.5762 29.6109C15.5117 29.5949 15.4473 29.5788 15.3809 29.5623C15.3809 29.5303 15.3809 29.4983 15.3809 29.4653C15.352 29.4516 15.3231 29.438 15.2934 29.424C15.1946 29.3729 15.1115 29.3185 15.0231 29.2517C14.9771 29.2172 14.9771 29.2172 14.9302 29.182C14.8814 29.145 14.8814 29.145 14.8316 29.1072C14.7619 29.0549 14.6923 29.0026 14.6227 28.9502C14.5869 28.9232 14.5511 28.8962 14.5142 28.8684C14.3345 28.7331 14.1543 28.5986 13.974 28.464C13.9246 28.427 13.9246 28.427 13.8741 28.3893C13.8279 28.3548 13.8279 28.3548 13.7808 28.3195C13.7538 28.2994 13.7268 28.2792 13.699 28.2584C13.6263 28.2055 13.5515 28.1557 13.4766 28.106C13.4766 28.074 13.4766 28.042 13.4766 28.0089C13.4393 27.9949 13.402 27.9809 13.3637 27.9665C13.2324 27.9119 13.2324 27.9119 13.0859 27.8148C13.0859 27.7827 13.0859 27.7507 13.0859 27.7177C13.0215 27.7017 12.957 27.6856 12.8906 27.6691C12.8906 27.6371 12.8906 27.6051 12.8906 27.5721C12.8555 27.5602 12.8204 27.5483 12.7842 27.536C12.6298 27.4676 12.5245 27.384 12.3962 27.2747C12.1628 27.0793 11.9218 26.9015 11.6709 26.7288C11.6221 26.6897 11.6221 26.6897 11.5723 26.6497C11.5723 26.6177 11.5723 26.5856 11.5723 26.5526C11.5345 26.5361 11.5345 26.5361 11.496 26.5193C11.3332 26.4321 11.1745 26.3342 11.0352 26.2128C11.0352 26.1808 11.0352 26.1488 11.0352 26.1157C10.9974 26.0992 10.9974 26.0992 10.9589 26.0824C10.8522 26.0253 10.7595 25.9636 10.6615 25.8933C10.6155 25.8604 10.6155 25.8604 10.5686 25.8268C10.5337 25.8016 10.5337 25.8016 10.4981 25.7759C10.4912 26.3398 10.4847 26.9036 10.4784 27.4674C10.4767 27.6143 10.475 27.7613 10.4733 27.9082C10.4582 29.215 10.4475 30.5217 10.4419 31.8286C10.4406 32.1091 10.4393 32.3897 10.4379 32.6702C10.4377 32.71 10.4375 32.7497 10.4373 32.7907C10.4365 32.9513 10.4357 33.112 10.4349 33.2726C10.4324 33.7516 10.4305 34.2305 10.4292 34.7095C10.4284 35.015 10.427 35.3205 10.4253 35.626C10.4243 35.8042 10.4236 35.9823 10.4234 36.1604C10.4219 37.9884 10.4219 37.9884 10.0983 38.7432C10.085 38.7763 10.0717 38.8094 10.0579 38.8435C10.0264 38.9216 9.9938 38.9993 9.96095 39.0769C9.92872 39.0769 9.89649 39.0769 9.86329 39.0769C9.85826 39.1129 9.85322 39.149 9.84803 39.1861C9.81205 39.3292 9.76817 39.4062 9.66798 39.5138C9.63575 39.5138 9.60353 39.5138 9.57032 39.5138C9.5578 39.5425 9.54527 39.5711 9.53237 39.6006C9.26249 40.0858 8.61375 40.3814 8.10548 40.5332C7.59409 40.6716 7.12363 40.6974 6.59791 40.688C6.52575 40.6872 6.45359 40.6866 6.38143 40.686C6.2074 40.6844 6.0334 40.6819 5.85938 40.6788C5.80214 40.2731 5.80307 39.8693 5.80283 39.4605C5.80261 39.3809 5.80236 39.3012 5.8021 39.2216C5.80144 39.0033 5.80108 38.785 5.80076 38.5668C5.80037 38.3309 5.7997 38.0951 5.79907 37.8593C5.79786 37.3966 5.79692 36.9339 5.79605 36.4712C5.79502 35.929 5.79373 35.3867 5.79243 34.8445C5.7901 33.8727 5.78799 32.9008 5.78601 31.929C5.78411 30.9942 5.78209 30.0594 5.77991 29.1246C5.77971 29.039 5.77971 29.039 5.7795 28.9516C5.77897 28.7218 5.77843 28.4919 5.7779 28.2621C5.77554 27.2538 5.77329 26.2455 5.77105 25.2371C5.7707 25.0769 5.77034 24.9167 5.76998 24.7565C5.76929 24.4448 5.7686 24.1331 5.76792 23.8215C5.76781 23.771 5.7677 23.7205 5.76759 23.6686C5.76641 23.1271 5.76533 22.5857 5.76452 22.0442C5.76441 21.9737 5.76441 21.9737 5.7643 21.9018C5.76402 21.7149 5.76374 21.5279 5.76347 21.3409C5.76268 20.7994 5.76141 20.258 5.75926 19.7165C5.7579 19.3755 5.75687 19.0345 5.75607 18.6934C5.75559 18.4985 5.75496 18.3036 5.75385 18.1087C5.74984 17.3904 5.75387 16.675 5.80392 15.9579C5.80759 15.9049 5.81127 15.8519 5.81506 15.7973C5.95114 14.0799 6.53908 12.3686 7.41883 10.8882C7.44649 10.8414 7.44649 10.8414 7.47471 10.7937C7.51926 10.7212 7.56786 10.6511 7.6172 10.5818C7.64942 10.5818 7.68165 10.5818 7.71485 10.5818C7.72895 10.5457 7.74305 10.5097 7.75758 10.4725C7.80387 10.36 7.85394 10.2527 7.91017 10.1449C7.94239 10.1449 7.97462 10.1449 8.00782 10.1449C8.0189 10.1118 8.02998 10.0788 8.04139 10.0447C8.12073 9.86823 8.21915 9.7066 8.34962 9.56235C8.38185 9.56235 8.41407 9.56235 8.44728 9.56235C8.45835 9.53731 8.46943 9.51228 8.48084 9.4865C8.60002 9.26646 8.74557 9.04844 8.93556 8.88273C8.96778 8.88273 9.00001 8.88273 9.03321 8.88273C9.0459 8.85437 9.05858 8.82601 9.07165 8.79679C9.135 8.681 9.20379 8.60351 9.29719 8.51031C9.32948 8.47809 9.36177 8.44586 9.39504 8.41266C9.42871 8.37955 9.46239 8.34645 9.49708 8.31235C9.53075 8.27849 9.56443 8.24464 9.59912 8.20976C9.63141 8.17778 9.6637 8.14581 9.69697 8.11286C9.72652 8.08359 9.75607 8.05432 9.78652 8.02416C9.86329 7.9604 9.86329 7.9604 9.96095 7.9604C9.96095 7.92836 9.96095 7.89633 9.96095 7.86332C10.028 7.8019 10.028 7.8019 10.1215 7.73323C10.1555 7.70814 10.1894 7.68305 10.2244 7.6572C10.2603 7.6311 10.2962 7.60501 10.3333 7.57812C10.3681 7.5524 10.4029 7.52668 10.4387 7.50019C11.0013 7.08662 11.0013 7.08662 11.1328 7.08662C11.1328 7.05458 11.1328 7.02254 11.1328 6.98953C11.2558 6.90572 11.2558 6.90572 11.4166 6.81356C11.4693 6.7829 11.522 6.75223 11.5763 6.72064C11.7188 6.64972 11.7188 6.64972 11.8652 6.64972C11.8652 6.61769 11.8652 6.58565 11.8652 6.55264C12.9784 6.02328 14.1083 5.54935 15.332 5.33904C15.3683 5.3328 15.4046 5.32656 15.442 5.32013C16.0426 5.21874 16.635 5.16036 17.2435 5.14165Z" fill="#00AFF9"/>
<path d="M34.7656 12.2344C41.1948 12.2344 47.624 12.2344 54.248 12.2344C54.248 13.58 54.248 14.9256 54.248 16.312C49.6074 16.312 44.9668 16.312 40.1855 16.312C40.1855 18.763 40.1855 21.214 40.1855 23.7392C44.52 23.7392 48.8545 23.7392 53.3203 23.7392C53.3203 25.0528 53.3203 26.3664 53.3203 27.7198C48.9858 27.7198 44.6514 27.7198 40.1855 27.7198C40.1855 30.6033 40.1855 33.4868 40.1855 36.4577C44.9873 36.4577 49.7891 36.4577 54.7363 36.4577C54.7363 37.8033 54.7363 39.1489 54.7363 40.5353C48.146 40.5353 41.5557 40.5353 34.7656 40.5353C34.7656 31.196 34.7656 21.8567 34.7656 12.2344Z" fill="white"/>
<path d="M140.82 12.2344C146.669 12.2344 152.519 12.2344 158.545 12.2344C158.545 13.58 158.545 14.9256 158.545 16.312C154.484 16.312 150.424 16.312 146.24 16.312C146.24 18.763 146.24 21.214 146.24 23.7392C150.301 23.7392 154.361 23.7392 158.545 23.7392C158.545 25.0528 158.545 26.3664 158.545 27.7198C154.484 27.7198 150.424 27.7198 146.24 27.7198C146.24 30.6033 146.24 33.4868 146.24 36.4577C150.301 36.4577 154.361 36.4577 158.545 36.4577C158.545 37.8033 158.545 39.1489 158.545 40.5353C152.696 40.5353 146.847 40.5353 140.82 40.5353C140.82 31.196 140.82 21.8567 140.82 12.2344Z" fill="white"/>
<path d="M93.6035 12.2344C99.7588 12.2344 105.914 12.2344 112.256 12.2344C112.256 13.58 112.256 14.9256 112.256 16.312C107.889 16.312 103.522 16.312 99.0234 16.312C99.0234 19.0353 99.0234 21.7586 99.0234 24.5645C103.003 24.5645 106.983 24.5645 111.084 24.5645C111.084 25.9261 111.084 27.2878 111.084 28.6907C107.104 28.6907 103.124 28.6907 99.0234 28.6907C99.0234 32.5994 99.0234 36.5082 99.0234 40.5353C97.2349 40.5353 95.4463 40.5353 93.6035 40.5353C93.6035 31.196 93.6035 21.8567 93.6035 12.2344Z" fill="white"/>
<path d="M59.6191 12.2344C61.4077 12.2344 63.1963 12.2344 65.0391 12.2344C65.0391 20.2281 65.0391 28.2218 65.0391 36.4577C69.0996 36.4577 73.1602 36.4577 77.3438 36.4577C77.3438 37.8033 77.3438 39.1489 77.3438 40.5353C71.4946 40.5353 65.6455 40.5353 59.6191 40.5353C59.6191 31.196 59.6191 21.8567 59.6191 12.2344Z" fill="white"/>
<path d="M117.725 12.3281C119.481 12.3281 121.237 12.3281 123.047 12.3281C123.047 20.2898 123.047 28.2514 123.047 36.4543C127.14 36.4543 131.232 36.4543 135.449 36.4543C135.449 37.8 135.449 39.1456 135.449 40.532C129.6 40.532 123.751 40.532 117.725 40.532C117.725 31.2247 117.725 21.9174 117.725 12.3281Z" fill="white"/>
<path d="M164.014 12.5724C164.656 12.5713 165.298 12.5705 165.94 12.5699C166.238 12.5697 166.536 12.5693 166.835 12.5688C167.122 12.5683 167.41 12.568 167.697 12.5678C167.807 12.5678 167.917 12.5676 168.027 12.5673C168.18 12.567 168.334 12.5669 168.487 12.5669C168.556 12.5667 168.556 12.5667 168.626 12.5664C168.94 12.5669 168.94 12.5669 168.994 12.621C169.007 12.7409 169.017 12.86 169.026 12.9803C169.032 13.0554 169.038 13.1304 169.043 13.2055C169.052 13.3237 169.061 13.4419 169.07 13.5602C169.116 14.1946 169.116 14.1946 169.287 14.8055C169.302 14.8457 169.317 14.8859 169.333 14.9273C169.658 15.7757 170.072 16.5788 170.641 17.2897C170.703 17.3783 170.703 17.3783 170.703 17.4754C170.735 17.4754 170.768 17.4754 170.801 17.4754C170.885 17.5675 170.885 17.5675 170.978 17.6877C171.009 17.7272 171.039 17.7666 171.071 17.8072C171.143 17.9123 171.143 17.9123 171.143 18.0093C171.191 18.0254 171.239 18.0414 171.289 18.0579C171.354 18.1237 171.354 18.1237 171.426 18.2126C171.603 18.4198 171.792 18.6123 171.985 18.8042C172.015 18.8343 172.045 18.8643 172.076 18.8953C172.104 18.9237 172.133 18.9521 172.163 18.9814C172.188 19.0068 172.214 19.0323 172.241 19.0586C172.322 19.1363 172.322 19.1363 172.461 19.2229C172.461 19.255 172.461 19.287 172.461 19.32C172.488 19.332 172.515 19.344 172.543 19.3564C172.678 19.4289 172.792 19.516 172.913 19.6113C172.956 19.6453 173 19.6794 173.045 19.7144C173.094 19.7595 173.094 19.7595 173.145 19.8055C173.145 19.8375 173.145 19.8695 173.145 19.9025C173.184 19.9206 173.184 19.9206 173.225 19.939C173.366 20.0132 173.491 20.1012 173.621 20.1938C173.669 20.2278 173.717 20.2619 173.766 20.297C173.821 20.342 173.821 20.342 173.877 20.388C173.877 20.42 173.877 20.4521 173.877 20.4851C173.906 20.4986 173.934 20.512 173.963 20.5259C174.138 20.6162 174.292 20.7337 174.451 20.8491C174.485 20.8734 174.519 20.8976 174.554 20.9225C174.586 20.9459 174.618 20.9692 174.651 20.9933C174.681 21.0145 174.71 21.0357 174.741 21.0576C174.762 21.0769 174.783 21.0962 174.805 21.1161C174.805 21.1482 174.805 21.1802 174.805 21.2132C174.842 21.2297 174.842 21.2297 174.881 21.2466C175.153 21.3923 175.371 21.5756 175.586 21.7957C175.618 21.8118 175.65 21.8278 175.684 21.8443C175.684 21.8763 175.684 21.9084 175.684 21.9414C175.723 21.9594 175.723 21.9594 175.764 21.9778C175.905 22.0521 176.03 22.14 176.16 22.2326C176.208 22.2667 176.256 22.3007 176.305 22.3358C176.36 22.3809 176.36 22.3809 176.416 22.4268C176.416 22.4589 176.416 22.4909 176.416 22.5239C176.453 22.5379 176.491 22.5519 176.529 22.5664C176.66 22.621 176.66 22.621 176.807 22.7181C176.807 22.7501 176.807 22.7822 176.807 22.8152C176.835 22.8287 176.863 22.8422 176.891 22.8561C177 22.9114 177.105 22.9705 177.21 23.0336C177.261 23.0644 177.261 23.0644 177.314 23.0958C177.34 23.1153 177.366 23.1349 177.393 23.155C177.393 23.187 177.393 23.219 177.393 23.2521C177.421 23.2656 177.449 23.2791 177.477 23.293C177.586 23.3483 177.691 23.4074 177.795 23.4705C177.847 23.5013 177.847 23.5013 177.9 23.5327C177.926 23.5522 177.952 23.5717 177.979 23.5919C177.979 23.6239 177.979 23.6559 177.979 23.689C178.006 23.7025 178.034 23.716 178.063 23.7299C178.172 23.7852 178.277 23.8443 178.381 23.9074C178.433 23.9382 178.433 23.9382 178.486 23.9696C178.512 23.9891 178.538 24.0086 178.564 24.0288C178.564 24.0608 178.564 24.0928 178.564 24.1258C178.593 24.1393 178.622 24.1528 178.651 24.1667C178.754 24.2197 178.839 24.2769 178.931 24.3462C178.963 24.3702 178.995 24.3942 179.028 24.4189C179.061 24.4444 179.095 24.4698 179.129 24.496C179.412 24.7095 179.697 24.918 179.988 25.1199C180.018 25.1443 180.048 25.1687 180.078 25.1938C180.078 25.2258 180.078 25.2579 180.078 25.2909C180.128 25.3074 180.128 25.3074 180.179 25.3243C180.356 25.4031 180.519 25.501 180.664 25.6307C180.664 25.6627 180.664 25.6948 180.664 25.7278C180.714 25.7443 180.714 25.7443 180.765 25.7612C180.942 25.84 181.105 25.9379 181.25 26.0676C181.25 26.0996 181.25 26.1317 181.25 26.1647C181.3 26.1812 181.3 26.1812 181.351 26.1981C181.528 26.2769 181.691 26.3748 181.836 26.5045C181.836 26.5365 181.836 26.5686 181.836 26.6016C181.886 26.6181 181.886 26.6181 181.937 26.6349C182.114 26.7138 182.277 26.8117 182.422 26.9414C182.422 26.9734 182.422 27.0055 182.422 27.0385C182.459 27.0525 182.496 27.0665 182.535 27.0809C182.666 27.1356 182.666 27.1356 182.813 27.2326C182.813 27.2647 182.813 27.2967 182.813 27.3297C182.877 27.3457 182.941 27.3618 183.008 27.3783C183.008 27.4103 183.008 27.4423 183.008 27.4754C183.034 27.4874 183.061 27.4994 183.088 27.5118C183.229 27.586 183.354 27.674 183.484 27.7666C183.532 27.8007 183.58 27.8347 183.63 27.8698C183.666 27.8998 183.703 27.9298 183.74 27.9608C183.74 27.9928 183.74 28.0249 183.74 28.0579C183.772 28.0669 183.805 28.0759 183.838 28.0852C184.017 28.1706 184.143 28.286 184.289 28.4191C184.372 28.4982 184.372 28.4982 184.473 28.5433C184.473 28.5754 184.473 28.6074 184.473 28.6404C184.51 28.6569 184.51 28.6569 184.549 28.6738C184.821 28.8195 185.038 29.0031 185.254 29.2229C185.299 29.258 185.345 29.293 185.391 29.3291C185.427 29.3582 185.462 29.3872 185.498 29.4171C185.498 29.4491 185.498 29.4812 185.498 29.5142C185.546 29.5302 185.595 29.5462 185.645 29.5627C185.645 29.5948 185.645 29.6268 185.645 29.6598C185.688 29.6794 185.688 29.6794 185.732 29.6993C185.841 29.7573 185.917 29.8182 186.008 29.9018C186.039 29.9309 186.07 29.96 186.103 29.9899C186.136 30.0212 186.169 30.0524 186.203 30.0846C186.237 30.1167 186.271 30.1487 186.307 30.1818C186.54 30.4032 186.767 30.6301 186.987 30.8643C187.015 30.8931 187.042 30.9218 187.07 30.9514C187.256 31.1525 187.256 31.1525 187.256 31.2618C187.304 31.2778 187.353 31.2938 187.402 31.3103C187.402 31.3424 187.402 31.3744 187.402 31.4074C187.435 31.4074 187.467 31.4074 187.5 31.4074C187.566 31.5041 187.631 31.6013 187.695 31.6987C187.733 31.7363 187.772 31.774 187.811 31.8128C188.163 32.1648 188.439 32.6007 188.721 33.0093C188.763 33.0698 188.763 33.0698 188.807 33.1315C188.834 33.1703 188.861 33.2091 188.889 33.249C188.925 33.3007 188.925 33.3007 188.962 33.3535C189.014 33.4462 189.014 33.4462 189.014 33.5919C189.046 33.5919 189.078 33.5919 189.111 33.5919C189.31 33.9374 189.486 34.2898 189.654 34.6505C189.669 34.6838 189.685 34.7171 189.701 34.7514C189.716 34.7848 189.732 34.8183 189.748 34.8527C189.793 34.9471 189.842 35.0389 189.891 35.1312C190.026 35.3987 190.113 35.6828 190.204 35.9675C190.223 36.0268 190.242 36.086 190.262 36.1471C190.388 36.5493 190.501 36.9533 190.601 37.3631C190.612 37.412 190.624 37.4609 190.637 37.5113C190.87 38.5157 190.772 39.4734 190.772 40.5336C189.047 40.5336 187.323 40.5336 185.547 40.5336C185.499 39.9249 185.45 39.3161 185.4 38.689C185.039 37.4918 184.435 36.4099 183.63 35.4507C183.545 35.3394 183.545 35.3394 183.545 35.2423C183.513 35.2423 183.48 35.2423 183.447 35.2423C183.373 35.1599 183.303 35.0744 183.234 34.9875C183.125 34.8514 183.021 34.7211 182.896 34.5999C182.813 34.5142 182.813 34.5142 182.813 34.4171C182.764 34.4011 182.716 34.3851 182.666 34.3686C182.666 34.3365 182.666 34.3045 182.666 34.2715C182.618 34.2555 182.569 34.2394 182.52 34.2229C182.52 34.1909 182.52 34.1589 182.52 34.1258C182.471 34.1098 182.423 34.0938 182.373 34.0773C182.373 34.0453 182.373 34.0132 182.373 33.9802C182.346 33.9689 182.319 33.9576 182.291 33.9459C182.148 33.8666 182.041 33.7669 181.921 33.6556C181.851 33.5906 181.851 33.5906 181.779 33.5244C181.71 33.4617 181.71 33.4617 181.641 33.3977C181.569 33.3336 181.497 33.2699 181.424 33.2065C181.395 33.1811 181.366 33.1556 181.336 33.1294C181.248 33.0544 181.248 33.0544 181.142 32.9818C181.113 32.9589 181.084 32.9359 181.055 32.9123C181.055 32.8802 181.055 32.8482 181.055 32.8152C181.005 32.8001 181.005 32.8001 180.954 32.7848C180.792 32.7095 180.681 32.6149 180.549 32.4966C180.461 32.4175 180.461 32.4175 180.322 32.3297C180.322 32.2977 180.322 32.2657 180.322 32.2326C180.285 32.2186 180.248 32.2046 180.209 32.1902C180.078 32.1356 180.078 32.1356 179.932 32.0385C179.932 32.0064 179.932 31.9744 179.932 31.9414C179.905 31.9294 179.879 31.9174 179.852 31.905C179.711 31.8307 179.585 31.7428 179.456 31.6501C179.408 31.6161 179.359 31.582 179.31 31.547C179.273 31.5169 179.237 31.4869 179.199 31.4559C179.199 31.4239 179.199 31.3919 179.199 31.3589C179.135 31.3428 179.07 31.3268 179.004 31.3103C179.004 31.2783 179.004 31.2462 179.004 31.2132C178.978 31.2012 178.951 31.1892 178.924 31.1768C178.783 31.1026 178.657 31.0146 178.528 30.922C178.48 30.8879 178.432 30.8539 178.382 30.8188C178.346 30.7888 178.309 30.7587 178.272 30.7278C178.272 30.6957 178.272 30.6637 178.272 30.6307C178.234 30.6167 178.197 30.6027 178.159 30.5882C178.027 30.5336 178.027 30.5336 177.881 30.4365C177.881 30.4045 177.881 30.3724 177.881 30.3394C177.852 30.326 177.824 30.3125 177.794 30.2986C177.62 30.2083 177.466 30.0908 177.307 29.9754C177.273 29.9511 177.239 29.9269 177.204 29.902C177.172 29.8786 177.14 29.8553 177.107 29.8312C177.062 29.7994 177.062 29.7994 177.017 29.7669C176.996 29.7476 176.975 29.7283 176.953 29.7084C176.953 29.6763 176.953 29.6443 176.953 29.6113C176.927 29.5996 176.9 29.5879 176.873 29.5758C176.729 29.4985 176.605 29.404 176.474 29.3048C176.306 29.1778 176.138 29.0529 175.964 28.9347C175.92 28.9017 175.876 28.8686 175.83 28.8346C175.83 28.8025 175.83 28.7705 175.83 28.7375C175.766 28.7215 175.701 28.7055 175.635 28.689C175.635 28.6569 175.635 28.6249 175.635 28.5919C175.595 28.574 175.595 28.574 175.554 28.5558C175.414 28.4811 175.294 28.3906 175.168 28.2945C174.92 28.107 174.669 27.9261 174.413 27.7486C174.365 27.7095 174.365 27.7095 174.316 27.6695C174.316 27.6375 174.316 27.6055 174.316 27.5724C174.279 27.5584 174.242 27.5444 174.204 27.53C174.072 27.4754 174.072 27.4754 173.926 27.3783C173.926 27.3462 173.926 27.3142 173.926 27.2812C173.861 27.2652 173.797 27.2491 173.73 27.2326C173.73 27.2006 173.73 27.1686 173.73 27.1356C173.702 27.122 173.673 27.1084 173.643 27.0944C173.544 27.0428 173.46 26.9878 173.371 26.9203C173.34 26.8971 173.309 26.8738 173.277 26.8499C173.245 26.825 173.212 26.8001 173.178 26.7745C172.967 26.6149 172.755 26.456 172.54 26.3022C172.506 26.278 172.472 26.2538 172.437 26.229C172.373 26.1827 172.308 26.1366 172.242 26.0908C172.167 26.0369 172.094 25.9797 172.022 25.922C172.022 25.8899 172.022 25.8579 172.022 25.8249C171.957 25.8089 171.893 25.7928 171.826 25.7763C171.826 25.7443 171.826 25.7123 171.826 25.6792C171.787 25.6612 171.787 25.6612 171.746 25.6428C171.605 25.5686 171.48 25.4806 171.35 25.388C171.302 25.3539 171.254 25.3199 171.204 25.2848C171.168 25.2548 171.131 25.2248 171.094 25.1938C171.094 25.1618 171.094 25.1297 171.094 25.0967C171.066 25.0843 171.039 25.0718 171.01 25.059C170.886 24.9928 170.785 24.9153 170.676 24.8267C170.633 24.792 170.59 24.7574 170.546 24.7216C170.501 24.6852 170.456 24.6488 170.41 24.6113C170.367 24.5759 170.323 24.5404 170.278 24.504C170.189 24.4317 170.1 24.3592 170.011 24.2866C169.915 24.2081 169.817 24.1302 169.72 24.053C169.671 24.014 169.622 23.9749 169.571 23.9347C169.526 23.8992 169.481 23.8637 169.435 23.8272C169.402 23.7976 169.369 23.768 169.336 23.7375C169.336 23.7055 169.336 23.6734 169.336 23.6404C169.309 23.6291 169.282 23.6178 169.254 23.6061C169.111 23.5268 169.004 23.4271 168.884 23.3158C168.727 23.1705 168.569 23.0267 168.405 22.888C168.167 22.6821 167.935 22.4666 167.725 22.2326C167.725 22.2006 167.725 22.1686 167.725 22.1356C167.692 22.1356 167.66 22.1356 167.627 22.1356C167.553 22.0625 167.553 22.0625 167.468 21.9626C167.423 21.9098 167.423 21.9098 167.377 21.8559C167.347 21.82 167.317 21.7841 167.285 21.7472C167.256 21.7149 167.227 21.6825 167.198 21.6492C167.171 21.6194 167.145 21.5897 167.117 21.5591C167.093 21.5322 167.069 21.5053 167.044 21.4776C166.992 21.4074 166.992 21.4074 166.992 21.3103C166.96 21.3103 166.928 21.3103 166.895 21.3103C166.799 21.1948 166.709 21.079 166.62 20.9584C166.594 20.9229 166.567 20.8874 166.54 20.8508C165.622 19.6075 164.915 18.277 164.413 16.817C164.396 16.7666 164.378 16.7162 164.36 16.6643C164.043 15.7133 163.987 14.8197 164.001 13.8224C164.002 13.7006 164.003 13.5787 164.004 13.4569C164.006 13.162 164.01 12.8672 164.014 12.5724Z" fill="#00AFF9"/>
<path d="M82.7148 12.2344C84.5034 12.2344 86.292 12.2344 88.1348 12.2344C88.1348 21.5737 88.1348 30.913 88.1348 40.5353C86.3462 40.5353 84.5576 40.5353 82.7148 40.5353C82.7148 31.196 82.7148 21.8567 82.7148 12.2344Z" fill="white"/>
<path d="M185.683 12.5665C185.74 12.5665 185.74 12.5665 185.798 12.5666C185.863 12.5665 185.863 12.5665 185.93 12.5664C186.003 12.5667 186.003 12.5667 186.076 12.5669C186.127 12.5669 186.177 12.5669 186.229 12.5669C186.397 12.5669 186.565 12.5673 186.733 12.5677C186.849 12.5678 186.965 12.5679 187.081 12.5679C187.387 12.5681 187.692 12.5686 187.998 12.5691C188.31 12.5696 188.622 12.5698 188.934 12.5701C189.547 12.5706 190.159 12.5714 190.771 12.5724C190.773 12.7397 190.773 12.9069 190.774 13.0742C190.774 13.1208 190.775 13.1674 190.775 13.2154C190.776 13.701 190.734 14.1784 190.674 14.6598C190.669 14.6997 190.664 14.7396 190.659 14.7807C190.596 15.2658 190.508 15.7442 190.405 16.2223C190.395 16.2682 190.386 16.314 190.375 16.3612C190.313 16.6424 190.235 16.9131 190.137 17.1841C190.125 17.217 190.113 17.2499 190.101 17.2839C189.963 17.6606 189.823 18.0361 189.648 18.3977C189.623 18.4521 189.597 18.5064 189.57 18.5625C189.38 18.9552 189.17 19.3337 188.947 19.7084C188.921 19.7516 188.895 19.7949 188.869 19.8395C188.845 19.8793 188.821 19.9191 188.796 19.9602C188.774 19.9959 188.753 20.0317 188.731 20.0685C188.711 20.0938 188.692 20.1192 188.672 20.1453C188.64 20.1453 188.607 20.1453 188.574 20.1453C188.562 20.1796 188.55 20.214 188.538 20.2494C188.431 20.4905 188.259 20.6872 188.097 20.8943C188.039 20.968 187.982 21.0422 187.925 21.1163C187.726 21.3701 187.726 21.3701 187.646 21.4559C187.614 21.4559 187.582 21.4559 187.549 21.4559C187.537 21.4912 187.525 21.5265 187.512 21.5629C187.32 21.991 186.873 22.3197 186.523 22.621C186.489 22.6513 186.455 22.6817 186.42 22.713C186.194 22.9123 186.194 22.9123 186.084 22.9123C186.068 22.9603 186.052 23.0084 186.035 23.0579C185.959 23.1358 185.959 23.1358 185.867 23.2126C185.837 23.2383 185.807 23.2641 185.776 23.2906C185.693 23.3491 185.693 23.3491 185.596 23.3491C185.596 23.3812 185.596 23.4132 185.596 23.4462C185.533 23.5096 185.533 23.5096 185.44 23.5858C185.304 23.7002 185.171 23.8166 185.041 23.9379C185.013 23.9644 184.985 23.9908 184.955 24.0181C184.898 24.0714 184.842 24.1249 184.785 24.1786C184.581 24.3686 184.581 24.3686 184.473 24.3686C184.473 24.4006 184.473 24.4326 184.473 24.4657C184.325 24.5897 184.243 24.6115 184.048 24.6082C183.769 24.5611 183.505 24.4456 183.252 24.32C183.252 24.288 183.252 24.2559 183.252 24.2229C183.22 24.2129 183.188 24.2029 183.155 24.1926C182.952 24.1003 182.787 23.9698 182.611 23.8346C182.542 23.782 182.473 23.7294 182.403 23.6768C182.373 23.6535 182.342 23.6303 182.311 23.6063C182.236 23.5503 182.158 23.498 182.08 23.4462C182.08 23.4142 182.08 23.3822 182.08 23.3491C182.03 23.3326 182.03 23.3326 181.979 23.3158C181.802 23.2369 181.639 23.139 181.494 23.0093C181.494 22.9773 181.494 22.9453 181.494 22.9123C181.457 22.8982 181.42 22.8842 181.381 22.8698C181.25 22.8152 181.25 22.8152 181.104 22.7181C181.104 22.686 181.104 22.654 181.104 22.621C181.039 22.605 180.975 22.589 180.908 22.5724C180.908 22.5404 180.908 22.5084 180.908 22.4754C180.88 22.4613 180.852 22.4473 180.823 22.4329C180.721 22.3823 180.619 22.3318 180.518 22.2812C180.518 22.2491 180.518 22.2171 180.518 22.1841C180.491 22.1722 180.464 22.1603 180.436 22.1481C180.299 22.0745 180.186 21.9845 180.066 21.8868C180.022 21.8516 179.979 21.8164 179.934 21.7802C179.884 21.7398 179.884 21.7398 179.834 21.6987C179.866 21.5865 179.898 21.4744 179.932 21.3589C179.964 21.3589 179.996 21.3589 180.029 21.3589C180.034 21.3311 180.039 21.3033 180.045 21.2747C180.084 21.1467 180.141 21.0647 180.222 20.9584C180.247 20.9241 180.273 20.8898 180.299 20.8545C180.335 20.8158 180.335 20.8158 180.371 20.7763C180.403 20.7763 180.436 20.7763 180.469 20.7763C180.485 20.7283 180.501 20.6802 180.518 20.6307C180.55 20.6307 180.582 20.6307 180.615 20.6307C180.631 20.5826 180.647 20.5346 180.664 20.4851C180.746 20.4157 180.746 20.4157 180.847 20.3455C181.014 20.2257 181.155 20.0979 181.299 19.9511C181.366 19.8887 181.435 19.8271 181.503 19.766C181.536 19.7367 181.569 19.7073 181.603 19.6771C181.689 19.6113 181.689 19.6113 181.787 19.6113C181.803 19.5632 181.819 19.5152 181.836 19.4657C181.916 19.3856 181.916 19.3856 182.016 19.3018C182.051 19.272 182.086 19.2422 182.123 19.2116C182.185 19.1601 182.248 19.109 182.311 19.0583C182.469 18.9313 182.589 18.7981 182.715 18.6404C182.796 18.575 182.877 18.5101 182.959 18.4462C182.975 18.4142 182.991 18.3822 183.008 18.3491C183.04 18.3491 183.072 18.3491 183.105 18.3491C183.117 18.3231 183.128 18.2971 183.139 18.2703C183.225 18.1149 183.327 17.9952 183.447 17.8637C183.479 17.8637 183.512 17.8637 183.545 17.8637C183.556 17.8387 183.567 17.8136 183.578 17.7879C183.666 17.6261 183.765 17.4682 183.887 17.3297C183.919 17.3297 183.951 17.3297 183.984 17.3297C184.009 17.2336 184.009 17.2336 184.033 17.1356C184.065 17.1356 184.098 17.1356 184.131 17.1356C184.142 17.1021 184.154 17.0687 184.166 17.0343C184.227 16.8969 184.301 16.7817 184.388 16.6595C184.607 16.3533 184.79 16.0397 184.952 15.7005C184.969 15.6651 184.986 15.6296 185.003 15.5931C185.057 15.4772 185.107 15.3603 185.156 15.2423C185.178 15.1919 185.199 15.1414 185.221 15.0894C185.392 14.6571 185.444 14.2565 185.461 13.7951C185.465 13.7294 185.468 13.6637 185.471 13.598C185.477 13.4733 185.483 13.3486 185.489 13.2239C185.524 12.5774 185.524 12.5774 185.683 12.5665Z" fill="#00AFF9"/>
<path d="M171.19 28.3912C171.274 28.4387 171.355 28.4911 171.436 28.5437C171.483 28.5697 171.53 28.5957 171.579 28.6226C171.612 28.6446 171.645 28.6666 171.68 28.6893C171.68 28.7213 171.68 28.7534 171.68 28.7864C171.708 28.7999 171.737 28.8134 171.766 28.8273C171.941 28.9175 172.095 29.035 172.253 29.1505C172.304 29.1868 172.304 29.1868 172.357 29.2238C172.389 29.2472 172.421 29.2705 172.454 29.2946C172.498 29.3264 172.498 29.3264 172.543 29.359C172.575 29.3879 172.575 29.3879 172.607 29.4175C172.607 29.4495 172.607 29.4815 172.607 29.5145C172.645 29.5286 172.682 29.5426 172.72 29.557C172.852 29.6116 172.852 29.6116 172.998 29.7087C172.998 29.7408 172.998 29.7728 172.998 29.8058C173.027 29.8193 173.056 29.8328 173.085 29.8468C173.186 29.8993 173.272 29.9559 173.363 30.0244C173.394 30.0482 173.426 30.0719 173.459 30.0964C173.492 30.1216 173.525 30.1469 173.56 30.1729C173.594 30.199 173.629 30.225 173.665 30.2518C173.768 30.3296 173.871 30.4075 173.975 30.4854C174.078 30.5634 174.182 30.6413 174.286 30.719C174.332 30.7536 174.378 30.7882 174.425 30.8239C174.599 30.9504 174.78 31.0662 174.963 31.1794C175.049 31.2621 175.049 31.2621 175.07 31.381C175.046 31.5233 175.005 31.5901 174.915 31.702C174.888 31.7351 174.861 31.7682 174.834 31.8024C174.747 31.9036 174.662 32.0007 174.561 32.0874C174.528 32.0874 174.496 32.0874 174.463 32.0874C174.463 32.1194 174.463 32.1514 174.463 32.1844C174.199 32.3786 174.199 32.3786 174.072 32.3786C174.072 32.4107 174.072 32.4427 174.072 32.4757C173.981 32.5505 173.89 32.6198 173.795 32.6881C173.569 32.8515 173.569 32.8515 173.351 33.0237C173.242 33.1068 173.242 33.1068 173.145 33.1068C173.145 33.1388 173.145 33.1709 173.145 33.2039C173.052 33.2877 173.052 33.2877 172.931 33.3798C172.871 33.4258 172.871 33.4258 172.811 33.4727C172.705 33.5437 172.705 33.5437 172.607 33.5437C172.607 33.5757 172.607 33.6077 172.607 33.6408C172.518 33.716 172.518 33.716 172.4 33.8016C172.228 33.9301 172.104 34.0543 171.973 34.2233C171.908 34.2809 171.843 34.3374 171.777 34.3932C171.627 34.5203 171.508 34.6514 171.387 34.8058C171.346 34.8368 171.306 34.8679 171.265 34.8999C171.125 35.0144 171.046 35.1419 170.947 35.2912C170.915 35.2912 170.883 35.2912 170.85 35.2912C170.833 35.3293 170.833 35.3293 170.815 35.368C170.73 35.5252 170.625 35.6662 170.52 35.8101C170.172 36.2528 170.172 36.2528 169.922 36.7476C169.89 36.7476 169.857 36.7476 169.824 36.7476C169.815 36.8015 169.815 36.8015 169.806 36.8566C169.776 36.9862 169.737 37.0725 169.672 37.1875C169.103 38.2751 169.089 39.2756 168.994 40.534C167.351 40.534 165.707 40.534 164.014 40.534C164.014 39.2657 164.014 39.2657 164.047 38.8501C164.051 38.7982 164.056 38.7464 164.06 38.6929C164.198 37.1532 164.593 35.5896 165.332 34.2233C165.356 34.1782 165.38 34.1332 165.405 34.0868C165.601 33.7238 165.809 33.3669 166.016 33.0097C166.048 33.0097 166.08 33.0097 166.113 33.0097C166.126 32.975 166.138 32.9402 166.151 32.9044C166.216 32.7551 166.296 32.6395 166.394 32.5091C166.429 32.4629 166.463 32.4167 166.499 32.3691C166.533 32.3242 166.567 32.2793 166.602 32.233C166.63 32.1931 166.659 32.1531 166.689 32.112C166.714 32.0768 166.74 32.0417 166.766 32.0054C166.789 31.9742 166.811 31.943 166.835 31.9108C166.854 31.889 166.874 31.8671 166.895 31.8446C166.927 31.8446 166.959 31.8446 166.992 31.8446C167.005 31.8165 167.018 31.7884 167.031 31.7595C167.094 31.6431 167.165 31.5572 167.255 31.4593C167.352 31.351 167.446 31.244 167.535 31.1286C167.636 31.0084 167.748 30.9228 167.871 30.8252C167.9 30.7882 167.93 30.7511 167.96 30.713C168.078 30.5678 168.21 30.4555 168.353 30.3343C168.457 30.2427 168.555 30.1473 168.652 30.0485C168.838 29.8616 169.027 29.6726 169.238 29.5145C169.271 29.5145 169.303 29.5145 169.336 29.5145C169.336 29.4825 169.336 29.4505 169.336 29.4175C169.554 29.2233 169.554 29.2233 169.678 29.2233C169.678 29.1912 169.678 29.1592 169.678 29.1262C169.749 29.056 169.749 29.056 169.849 28.9745C170.033 28.8193 170.202 28.6546 170.368 28.4805C170.615 28.2562 170.889 28.2605 171.19 28.3912Z" fill="#00AFF9"/>
<path d="M39.2578 47.4258C40.0796 47.4258 40.9014 47.4258 41.748 47.4258C41.8725 47.6732 41.984 47.9038 42.0837 48.1591C42.096 48.1904 42.1083 48.2218 42.1209 48.2541C42.1466 48.3199 42.1722 48.3858 42.1977 48.4517C42.236 48.5504 42.2747 48.649 42.3134 48.7476C42.4293 49.0446 42.5387 49.3404 42.63 49.6461C42.7219 49.9518 42.8394 50.2408 42.9688 50.5326C42.9937 50.5891 43.0187 50.6457 43.0445 50.7039C43.1117 50.8551 43.1795 51.0059 43.2476 51.1567C43.2894 51.2491 43.331 51.3417 43.3726 51.4342C43.5085 51.7357 43.6469 52.0348 43.7988 52.3287C43.9165 52.1458 43.9994 51.963 44.0775 51.7604C44.0955 51.7139 44.0955 51.7139 44.1139 51.6666C44.1525 51.5668 44.1908 51.4668 44.2291 51.3669C44.2557 51.298 44.2823 51.2291 44.309 51.1602C44.4606 50.7676 44.6102 50.3743 44.7578 49.9802C44.93 49.5242 45.1054 49.0693 45.2972 48.6212C45.3971 48.3864 45.48 48.1488 45.557 47.9057C45.6134 47.7426 45.6836 47.5844 45.752 47.4258C46.5576 47.4258 47.3633 47.4258 48.1934 47.4258C48.1934 47.5539 48.1934 47.6821 48.1934 47.8141C47.7825 47.9102 47.7825 47.9102 47.3633 48.0083C47.3794 49.9627 47.3955 51.917 47.4121 53.9306C47.6216 54.0107 47.8311 54.0908 48.0469 54.1734C48.0952 54.2054 48.1436 54.2374 48.1934 54.2704C48.1934 54.3986 48.1934 54.5268 48.1934 54.6588C47.1299 54.6588 46.0664 54.6588 44.9707 54.6588C44.9707 54.5306 44.9707 54.4025 44.9707 54.2704C45.2606 54.1423 45.5493 54.0392 45.8496 53.9306C45.8496 52.3287 45.8496 50.7268 45.8496 49.0763C45.7075 49.4153 45.5667 49.753 45.4346 50.0957C45.3219 50.3859 45.2053 50.6738 45.0836 50.9604C45.0024 51.1565 44.9255 51.3541 44.8486 51.552C44.7359 51.8422 44.6194 52.1301 44.4977 52.4167C44.4165 52.6128 44.3395 52.8105 44.2627 53.0083C44.147 53.3062 44.0278 53.6022 43.903 53.8965C43.8168 54.101 43.7345 54.307 43.6523 54.5132C43.5073 54.5132 43.3623 54.5132 43.2129 54.5132C42.9471 53.944 42.742 53.3513 42.5348 52.7593C42.4613 52.5515 42.379 52.3518 42.285 52.1523C42.2055 51.9647 42.1458 51.7702 42.0828 51.5766C42.028 51.4101 41.9694 51.2494 41.8945 51.0908C41.8066 50.9045 41.7415 50.7129 41.6779 50.5174C41.5872 50.2391 41.4832 49.9698 41.3673 49.7009C41.1133 49.099 41.1133 49.099 41.1133 48.9306C41.0488 48.9146 40.9844 48.8986 40.918 48.8821C40.9274 49.4379 40.9375 49.9936 40.9486 50.5494C40.9537 50.8075 40.9586 51.0656 40.9629 51.3237C40.967 51.573 40.9718 51.8222 40.9771 52.0715C40.979 52.1664 40.9806 52.2613 40.9821 52.3562C40.9841 52.4896 40.987 52.6229 40.99 52.7563C40.9904 52.7951 40.9908 52.8339 40.9912 52.8739C41.0007 53.2164 41.0886 53.5346 41.2598 53.8335C41.292 53.8496 41.3242 53.8656 41.3574 53.8821C41.3574 53.9141 41.3574 53.9462 41.3574 53.9792C41.4163 53.9972 41.4163 53.9972 41.4764 54.0156C41.6867 54.0889 41.8874 54.1783 42.0898 54.2704C42.0898 54.3986 42.0898 54.5268 42.0898 54.6588C41.1069 54.6588 40.124 54.6588 39.1113 54.6588C39.1436 54.4986 39.1758 54.3384 39.209 54.1734C39.3569 54.0922 39.4406 54.0584 39.5996 54.0277C39.8577 53.9889 39.8577 53.9889 40.0604 53.8457C40.1358 53.546 40.1442 53.2588 40.1446 52.9518C40.1448 52.9028 40.1451 52.8538 40.1453 52.8034C40.146 52.642 40.1464 52.4806 40.1466 52.3192C40.1469 52.2069 40.1472 52.0946 40.1475 51.9823C40.148 51.7472 40.1483 51.512 40.1484 51.2769C40.1487 50.9754 40.1499 50.6738 40.1513 50.3723C40.1522 50.1405 40.1524 49.9087 40.1525 49.6769C40.1527 49.5657 40.1531 49.4545 40.1537 49.3433C40.1545 49.188 40.1544 49.0328 40.1541 48.8775C40.1546 48.8315 40.155 48.7854 40.1555 48.738C40.1555 48.442 40.1555 48.442 39.9902 48.2025C39.9902 48.1704 39.9902 48.1384 39.9902 48.1054C39.9553 48.0915 39.9204 48.0776 39.8844 48.0633C39.6755 47.9802 39.4667 47.8972 39.2578 47.8141C39.2578 47.686 39.2578 47.5578 39.2578 47.4258Z" fill="#00AFF9"/>
<path d="M136.848 49.8715C137.577 50.7591 137.238 52.9568 137.256 54.0298C137.286 54.0433 137.317 54.0567 137.349 54.0706C137.388 54.0882 137.428 54.1057 137.469 54.1239C137.509 54.1413 137.549 54.1588 137.59 54.1768C137.658 54.2073 137.726 54.2392 137.793 54.2725C137.793 54.4007 137.793 54.5288 137.793 54.6609C136.971 54.6609 136.149 54.6609 135.303 54.6609C135.303 54.5327 135.303 54.4046 135.303 54.2725C135.558 54.2013 135.771 54.1645 136.035 54.1754C136.019 54.1274 136.003 54.0793 135.986 54.0298C135.979 53.9175 135.975 53.805 135.972 53.6924C135.971 53.6583 135.97 53.6242 135.969 53.5891C135.966 53.4764 135.963 53.3637 135.96 53.251C135.958 53.1729 135.956 53.0947 135.954 53.0166C135.948 52.8109 135.943 52.6053 135.938 52.3996C135.932 52.1897 135.927 51.9798 135.921 51.77C135.91 51.3582 135.899 50.9464 135.889 50.5347C135.856 50.5347 135.824 50.5347 135.791 50.5347C135.763 50.504 135.734 50.4733 135.705 50.4417C135.511 50.2623 135.266 50.2601 135.01 50.2434C134.706 50.2542 134.525 50.3972 134.305 50.5952C134.135 50.784 134.173 51.0195 134.173 51.2575C134.173 51.3007 134.173 51.3438 134.173 51.3883C134.173 51.5285 134.173 51.6687 134.174 51.8089C134.174 51.8562 134.174 51.9035 134.174 51.9521C134.174 52.6458 134.185 53.3373 134.228 54.0298C134.274 54.05 134.274 54.05 134.321 54.0706C134.361 54.0882 134.401 54.1057 134.442 54.1239C134.482 54.1413 134.521 54.1588 134.562 54.1768C134.631 54.2073 134.699 54.2392 134.766 54.2725C134.766 54.4007 134.766 54.5288 134.766 54.6609C133.944 54.6609 133.122 54.6609 132.275 54.6609C132.275 54.5327 132.275 54.4046 132.275 54.2725C132.355 54.2318 132.434 54.1914 132.513 54.1512C132.58 54.1174 132.58 54.1174 132.647 54.0829C132.764 54.0298 132.764 54.0298 132.861 54.0298C132.845 52.8924 132.829 51.755 132.812 50.5832C132.78 50.5832 132.748 50.5832 132.715 50.5832C132.68 50.5452 132.644 50.5071 132.608 50.4679C132.421 50.2947 132.268 50.2494 132.014 50.2385C131.68 50.2519 131.453 50.3679 131.201 50.5832C130.834 50.9821 130.988 51.9579 130.983 52.4653C130.982 52.5825 130.98 52.6996 130.977 52.8167C130.974 52.9869 130.972 53.1569 130.971 53.3271C130.969 53.3793 130.968 53.4316 130.966 53.4855C130.96 53.7477 130.96 53.7477 131.079 53.9703C131.21 54.0654 131.344 54.1251 131.491 54.1906C131.524 54.2176 131.558 54.2447 131.592 54.2725C131.592 54.4007 131.592 54.5288 131.592 54.6609C130.77 54.6609 129.948 54.6609 129.102 54.6609C129.102 54.5327 129.102 54.4046 129.102 54.2725C129.311 54.1924 129.52 54.1123 129.736 54.0298C129.813 52.6015 129.813 52.6015 129.849 51.1718C129.85 51.1247 129.851 51.0776 129.852 51.0291C129.852 50.7806 129.836 50.599 129.687 50.389C129.559 50.2847 129.559 50.2847 129.413 50.204C129.365 50.1756 129.317 50.1473 129.267 50.1181C129.229 50.0953 129.19 50.0726 129.15 50.0492C129.134 50.0332 129.118 50.0172 129.102 50.0007C129.102 49.8725 129.102 49.7444 129.102 49.6123C129.698 49.6123 130.294 49.6123 130.908 49.6123C130.94 49.7565 130.973 49.9007 131.006 50.0492C131.07 50.0492 131.135 50.0492 131.201 50.0492C131.217 50.0012 131.233 49.9531 131.25 49.9036C131.732 49.4928 132.249 49.4174 132.863 49.4558C133.077 49.4801 133.26 49.558 133.447 49.6609C133.498 49.6869 133.548 49.7129 133.6 49.7398C133.63 49.7618 133.66 49.7838 133.691 49.8065C133.691 49.8385 133.691 49.8706 133.691 49.9036C133.72 49.9176 133.748 49.9316 133.777 49.9461C133.879 49.9966 133.98 50.0472 134.082 50.0978C134.113 50.0732 134.143 50.0487 134.175 50.0234C134.215 49.9919 134.255 49.9604 134.296 49.9279C134.335 49.8963 134.375 49.8648 134.416 49.8323C134.521 49.758 134.521 49.758 134.619 49.758C134.619 49.7259 134.619 49.6939 134.619 49.6609C135.406 49.3412 136.159 49.3139 136.848 49.8715Z" fill="#00AFF9"/>
<path d="M95.2151 47.671C95.4978 47.9429 95.5701 48.2002 95.5804 48.5815C95.5856 49.4149 95.5856 49.4149 95.2639 49.7584C95.2246 49.8024 95.1853 49.8465 95.1449 49.8919C95.1036 49.9279 95.0623 49.964 95.0198 50.0011C94.9925 50.0255 94.9652 50.0499 94.9372 50.0751C94.778 50.2152 94.6214 50.3363 94.4338 50.438C94.4586 50.6697 94.5222 50.8135 94.6535 51.0054C94.747 51.143 94.8204 51.2511 94.8733 51.4089C94.9055 51.4089 94.9377 51.4089 94.9709 51.4089C95.0346 51.4716 95.0346 51.4716 95.1113 51.5636C95.2773 51.7575 95.4477 51.9465 95.621 52.134C95.6467 52.1621 95.6725 52.1903 95.699 52.2193C95.8319 52.3677 95.8319 52.3677 95.9963 52.4768C96.0096 52.4424 96.0229 52.408 96.0366 52.3725C96.0951 52.2314 96.1627 52.0976 96.2313 51.9611C96.4245 51.551 96.5257 51.1197 96.6311 50.6807C96.5812 50.6743 96.5313 50.6678 96.4798 50.6612C96.3076 50.635 96.1435 50.5996 95.975 50.5563C95.9237 50.5432 95.8724 50.5302 95.8195 50.5167C95.7812 50.5067 95.7428 50.4968 95.7034 50.4865C95.7034 50.3584 95.7034 50.2302 95.7034 50.0982C96.6379 50.0982 97.5725 50.0982 98.5354 50.0982C98.5354 50.2263 98.5354 50.3545 98.5354 50.4865C98.4988 50.4937 98.4621 50.5008 98.4244 50.5082C97.9558 50.6102 97.5714 50.7518 97.2781 51.1449C97.0958 51.4286 96.9597 51.7312 96.8264 52.0399C96.803 52.0909 96.7797 52.1418 96.7556 52.1943C96.5977 52.548 96.4812 52.8479 96.5762 53.2323C96.8038 53.6767 97.2964 53.916 97.7511 54.0644C97.8334 54.0897 97.9158 54.1148 97.9983 54.1395C98.0408 54.1525 98.0832 54.1655 98.127 54.1789C98.2305 54.2106 98.3341 54.2419 98.4377 54.273C98.4377 54.4011 98.4377 54.5293 98.4377 54.6613C98.2231 54.6779 98.0085 54.6939 97.7938 54.7098C97.7339 54.7145 97.674 54.7191 97.6123 54.7239C96.4631 54.8083 96.4631 54.8083 96.0451 54.6128C96.0451 54.5807 96.0451 54.5487 96.0451 54.5157C95.9968 54.4996 95.9485 54.4836 95.8987 54.4671C95.831 54.3774 95.831 54.3774 95.7674 54.2699C95.7461 54.2343 95.7248 54.1987 95.7028 54.162C95.6789 54.1208 95.6789 54.1208 95.6545 54.0788C95.4397 54.1045 95.3226 54.1804 95.154 54.3124C94.9244 54.4839 94.7051 54.6159 94.4338 54.7098C94.3876 54.7271 94.3414 54.7443 94.2938 54.762C94.0008 54.8428 93.6917 54.8268 93.3901 54.8282C93.3278 54.8298 93.2655 54.8314 93.2013 54.833C92.8142 54.8352 92.5495 54.7962 92.2366 54.5642C92.1728 54.518 92.1728 54.518 92.1078 54.4709C91.6322 54.0494 91.4471 53.685 91.4065 53.0594C91.376 52.4332 91.4298 51.9151 91.8539 51.4349C92.1032 51.1733 92.3525 50.9828 92.6733 50.815C92.7914 50.7341 92.7914 50.7341 92.7885 50.5738C92.7836 50.529 92.7787 50.4842 92.7737 50.438C92.7414 50.438 92.7092 50.438 92.676 50.438C92.3234 49.7982 91.9651 49.0999 92.1389 48.3506C92.2294 48.0557 92.4018 47.8313 92.6272 47.6225C92.6755 47.6064 92.7239 47.5904 92.7737 47.5739C92.7737 47.5419 92.7737 47.5098 92.7737 47.4768C93.5952 47.117 94.5035 47.0798 95.2151 47.671ZM93.2955 48.029C93.1009 48.3299 93.0672 48.5989 93.1384 48.9486C93.2285 49.2699 93.3714 49.5175 93.5641 49.7887C93.605 49.848 93.605 49.848 93.6468 49.9084C93.7132 50.0044 93.7803 50.1 93.8479 50.1953C93.9446 50.1472 94.0412 50.0992 94.1409 50.0496C94.1409 50.0176 94.1409 49.9856 94.1409 49.9526C94.1761 49.9415 94.2113 49.9305 94.2477 49.9192C94.5166 49.7944 94.6754 49.5702 94.8244 49.3215C94.885 49.1248 94.8859 48.928 94.8885 48.7238C94.8899 48.6882 94.8914 48.6525 94.8928 48.6158C94.8967 48.2836 94.7996 48.0879 94.5647 47.8453C94.1839 47.6207 93.5986 47.7195 93.2955 48.029ZM92.9577 51.1059C92.9262 51.1438 92.8947 51.1817 92.8622 51.2208C92.8303 51.2579 92.7983 51.2951 92.7655 51.3334C92.5382 51.6485 92.5055 51.8854 92.5112 52.2645C92.5118 52.3122 92.5124 52.3599 92.513 52.409C92.5264 52.9832 92.591 53.3586 93.0006 53.7847C93.3894 54.123 93.7912 54.1007 94.2873 54.0788C94.5898 54.041 94.8077 53.9563 95.0533 53.7754C95.1594 53.6348 95.1917 53.5248 95.2151 53.3506C95.1543 53.2187 95.077 53.1105 94.9709 53.0108C94.9387 53.0108 94.9065 53.0108 94.8733 53.0108C94.8612 52.9845 94.8491 52.9583 94.8367 52.9312C94.762 52.791 94.6735 52.6663 94.5803 52.5375C94.5461 52.4897 94.5118 52.4419 94.4765 52.3926C94.4463 52.3563 94.4161 52.3201 94.385 52.2827C94.3528 52.2827 94.3205 52.2827 94.2873 52.2827C94.2732 52.2456 94.2591 52.2086 94.2446 52.1704C94.1915 52.0326 94.1915 52.0326 94.092 51.8943C94.0598 51.8943 94.0276 51.8943 93.9944 51.8943C93.9783 51.8302 93.9621 51.7662 93.9455 51.7001C93.9133 51.7001 93.8811 51.7001 93.8479 51.7001C93.8313 51.6626 93.8313 51.6626 93.8143 51.6243C93.7267 51.4625 93.6282 51.3046 93.5061 51.1662C93.4739 51.1662 93.4416 51.1662 93.4084 51.1662C93.3923 51.1181 93.3762 51.07 93.3596 51.0205C93.1417 51 93.1417 51 92.9577 51.1059Z" fill="#00AFF9"/>
<path d="M82.4747 49.4593C82.7703 49.4428 82.9485 49.5151 83.2031 49.6624C83.2192 49.6464 83.2354 49.6304 83.252 49.6139C83.3239 49.6094 83.3961 49.6082 83.4682 49.6084C83.5141 49.6084 83.56 49.6084 83.6074 49.6084C83.6573 49.6086 83.7073 49.6089 83.7587 49.6091C83.8096 49.6092 83.8605 49.6093 83.9129 49.6094C84.0761 49.6096 84.2393 49.6102 84.4025 49.6109C84.5128 49.6111 84.6231 49.6113 84.7335 49.6115C85.0046 49.6121 85.2757 49.6129 85.5469 49.6139C85.5146 49.7741 85.4824 49.9343 85.4492 50.0993C85.3364 50.0993 85.2236 50.0993 85.1074 50.0993C85.525 51.2516 85.525 51.2516 85.9711 52.393C85.992 52.4451 85.992 52.4451 86.0133 52.4983C86.0845 52.671 86.1571 52.821 86.2793 52.9634C86.5216 52.5014 86.7321 52.0332 86.9262 51.5495C86.9578 51.4712 86.9901 51.3933 87.0226 51.3154C87.1879 50.9173 87.3135 50.5295 87.3535 50.0993C87.2921 50.0923 87.2307 50.0853 87.1674 50.0781C87.0397 50.0635 86.9397 50.0431 86.8164 50.0022C86.8164 49.8741 86.8164 49.7459 86.8164 49.6139C87.4448 49.6139 88.0732 49.6139 88.7207 49.6139C88.7207 50.0022 88.7207 50.0022 88.6383 50.0902C88.5824 50.1188 88.5824 50.1188 88.5254 50.1479C87.8656 50.5121 87.6467 51.2026 87.4123 51.8738C87.1331 52.6686 86.8044 53.4503 86.4746 54.2255C86.4528 54.278 86.4309 54.3304 86.4084 54.3844C86.14 55.0212 85.8492 55.6969 85.4492 56.2644C85.417 56.2644 85.3848 56.2644 85.3516 56.2644C85.3405 56.2914 85.3294 56.3184 85.318 56.3463C85.2356 56.4907 85.1335 56.5906 85.0098 56.7013C84.9775 56.7013 84.9453 56.7013 84.9121 56.7013C84.9121 56.7333 84.9121 56.7653 84.9121 56.7984C84.6834 56.9289 84.4681 56.9151 84.2102 56.9167C84.1646 56.9183 84.1191 56.9199 84.0721 56.9215C83.8617 56.9231 83.6904 56.9208 83.5144 56.7972C83.3701 56.6174 83.3577 56.4823 83.3679 56.2613C83.3676 56.227 83.3673 56.1927 83.367 56.1573C83.3704 55.9935 83.3882 55.8909 83.4818 55.7549C83.6587 55.6395 83.7928 55.6742 83.9954 55.6999C84.1846 55.7425 84.3135 55.8156 84.4727 55.9246C84.4727 55.9566 84.4727 55.9886 84.4727 56.0217C84.5049 56.0217 84.5371 56.0217 84.5703 56.0217C84.5703 56.0537 84.5703 56.0857 84.5703 56.1187C84.5995 56.1027 84.6287 56.0867 84.6588 56.0702C84.7656 56.0217 84.7656 56.0217 84.9121 56.0217C84.9121 55.9896 84.9121 55.9576 84.9121 55.9246C84.9792 55.8457 84.9792 55.8457 85.0586 55.7789C85.0908 55.7789 85.123 55.7789 85.1562 55.7789C85.1692 55.7445 85.1822 55.7101 85.1955 55.6746C85.2563 55.5305 85.3299 55.3996 85.4065 55.2632C85.6225 54.8343 85.5849 54.4704 85.4477 54.0207C85.3827 53.8352 85.308 53.6551 85.2299 53.4746C85.1402 53.2659 85.0549 53.0557 84.9701 52.8451C84.9535 52.8039 84.9368 52.7627 84.9197 52.7203C84.8151 52.4598 84.7147 52.198 84.6163 51.9351C84.3083 50.992 84.3083 50.992 83.6761 50.2753C83.649 50.2653 83.6218 50.2553 83.5938 50.245C83.5938 50.2129 83.5938 50.1809 83.5938 50.1479C83.5293 50.1319 83.4648 50.1158 83.3984 50.0993C83.3921 50.1634 83.3921 50.1634 83.3857 50.2288C83.3564 50.469 83.3297 50.676 83.2153 50.8912C82.9527 51.0268 82.6625 51.0155 82.373 50.9731C82.2794 50.9206 82.2794 50.9206 82.2266 50.8275C82.2123 50.6646 82.2123 50.6646 82.2174 50.4786C82.2187 50.4168 82.2201 50.355 82.2214 50.2914C82.2231 50.244 82.2248 50.1967 82.2266 50.1479C82.0453 50.2412 81.8667 50.3384 81.6895 50.4391C81.6404 50.4662 81.6404 50.4662 81.5903 50.4937C81.4708 50.573 81.4035 50.648 81.3743 50.7885C81.346 51.1546 81.3453 51.5169 81.3536 51.8839C81.3547 51.9456 81.3559 52.0074 81.3571 52.071C81.3601 52.2332 81.3635 52.3954 81.3669 52.5577C81.3704 52.724 81.3736 52.8903 81.3767 53.0566C81.383 53.3815 81.3896 53.7065 81.3965 54.0314C81.4412 54.0448 81.4859 54.0583 81.5319 54.0721C81.5899 54.0897 81.648 54.1073 81.7078 54.1254C81.7655 54.1429 81.8233 54.1603 81.8829 54.1783C82.0312 54.2255 82.0312 54.2255 82.1289 54.2741C82.1289 54.4022 82.1289 54.5304 82.1289 54.6624C81.2427 54.6624 80.3564 54.6624 79.4434 54.6624C79.4434 54.5343 79.4434 54.4061 79.4434 54.2741C79.6528 54.226 79.8623 54.178 80.0781 54.1285C80.0766 54.0793 80.0752 54.0301 80.0736 53.9795C80.0377 52.7667 80.0225 51.5553 80.0293 50.342C79.9993 50.3321 79.9692 50.3221 79.9383 50.3119C79.7733 50.2572 79.6083 50.2025 79.4434 50.1479C79.4434 49.9717 79.4434 49.7954 79.4434 49.6139C80.0396 49.6139 80.6357 49.6139 81.25 49.6139C81.2822 49.726 81.3145 49.8382 81.3477 49.9537C81.4702 49.8812 81.5919 49.808 81.7122 49.7318C81.9762 49.5668 82.1641 49.4866 82.4747 49.4593Z" fill="#00AFF9"/>
<path d="M101.465 47.4258C103.318 47.4258 105.171 47.4258 107.08 47.4258C107.08 48.0025 107.08 48.5792 107.08 49.1734C106.919 49.1734 106.758 49.1734 106.592 49.1734C106.478 48.9468 106.364 48.7203 106.25 48.4937C106.23 48.4584 106.21 48.4232 106.19 48.3868C106.152 48.2996 106.152 48.2996 106.152 48.1054C106.118 48.0994 106.084 48.0934 106.049 48.0872C105.908 48.0568 105.908 48.0568 105.77 48.0096C105.088 47.7902 104.305 47.8396 103.613 47.8141C103.597 48.7593 103.581 49.7044 103.564 50.6782C104.423 50.7044 104.423 50.7044 105.112 50.3809C105.318 50.1261 105.422 49.8236 105.518 49.5132C105.695 49.5132 105.872 49.5132 106.055 49.5132C106.055 50.4423 106.055 51.3714 106.055 52.3287C105.877 52.3287 105.7 52.3287 105.518 52.3287C105.498 52.2708 105.478 52.2129 105.457 52.1533C105.43 52.0772 105.404 52.0012 105.377 51.9252C105.364 51.887 105.351 51.8489 105.337 51.8096C105.324 51.7728 105.312 51.7361 105.298 51.6982C105.286 51.6644 105.275 51.6306 105.263 51.5957C105.223 51.4903 105.223 51.4903 105.127 51.3578C104.995 51.3142 104.891 51.2964 104.754 51.2833C104.71 51.2791 104.665 51.2749 104.62 51.2705C104.574 51.2663 104.528 51.2621 104.48 51.2577C104.435 51.2533 104.389 51.2489 104.342 51.2443C104.098 51.2215 103.859 51.2071 103.613 51.2122C103.616 51.2543 103.619 51.2964 103.622 51.3398C103.645 51.6972 103.663 52.0538 103.671 52.4119C103.673 52.4787 103.674 52.5456 103.676 52.6124C103.678 52.7126 103.68 52.8128 103.682 52.9131C103.687 53.2979 103.71 53.6215 103.857 53.9792C104.24 54.0307 104.617 54.0366 105.002 54.0368C105.063 54.0374 105.125 54.038 105.188 54.0386C105.675 54.0394 106.096 54.0331 106.494 53.7365C106.526 53.7365 106.559 53.7365 106.592 53.7365C106.606 53.709 106.619 53.6815 106.634 53.6532C106.67 53.5807 106.707 53.5082 106.744 53.4359C106.897 53.1352 107.039 52.8306 107.178 52.5229C107.307 52.5229 107.436 52.5229 107.568 52.5229C107.568 53.2277 107.568 53.9326 107.568 54.6588C105.554 54.6588 103.54 54.6588 101.465 54.6588C101.465 54.5306 101.465 54.4025 101.465 54.2704C101.528 54.2407 101.591 54.2115 101.654 54.1825C101.689 54.1661 101.724 54.1498 101.76 54.133C101.966 54.0518 102.181 53.9939 102.393 53.9306C102.376 52.0564 102.36 50.1821 102.344 48.251C102.086 48.1229 101.828 47.9947 101.562 47.8627C101.53 47.8467 101.498 47.8306 101.465 47.8141C101.465 47.686 101.465 47.5578 101.465 47.4258Z" fill="#00AFF9"/>
<path d="M58.6914 46.8438C59.3682 46.8438 60.0449 46.8438 60.7422 46.8438C60.7482 47.085 60.7543 47.3263 60.7605 47.5749C60.7827 48.3846 60.8296 49.1913 60.8887 49.9991C60.935 49.9605 60.9813 49.922 61.0291 49.8823C61.5839 49.4558 62.0686 49.3668 62.7625 49.4453C63.0422 49.4886 63.2657 49.5586 63.4766 49.7564C63.9483 50.4073 63.9731 51.2196 63.9696 51.9898C63.9695 52.0483 63.9695 52.1069 63.9694 52.1673C63.9691 52.3527 63.9685 52.5382 63.9679 52.7236C63.9677 52.85 63.9674 52.9764 63.9672 53.1029C63.9667 53.4113 63.9659 53.7198 63.9648 54.0282C64.0099 54.0423 64.0099 54.0423 64.0558 54.0567C64.0953 54.0693 64.1348 54.0819 64.1754 54.095C64.2145 54.1074 64.2536 54.1197 64.2939 54.1325C64.4043 54.1738 64.4043 54.1738 64.5508 54.2709C64.5508 54.3991 64.5508 54.5272 64.5508 54.6593C63.729 54.6593 62.9072 54.6593 62.0605 54.6593C62.0605 54.5311 62.0605 54.403 62.0605 54.2709C62.0911 54.2575 62.1217 54.244 62.1532 54.2302C62.1931 54.2126 62.2331 54.195 62.2742 54.1769C62.3138 54.1594 62.3535 54.142 62.3943 54.124C62.4627 54.0934 62.5306 54.0616 62.5977 54.0282C62.6277 53.2715 62.6525 52.5146 62.6578 51.7573C62.6584 51.688 62.6592 51.6188 62.6603 51.5496C62.6747 50.9213 62.6747 50.9213 62.3718 50.3905C62.1333 50.2455 61.9269 50.2073 61.652 50.2668C61.4356 50.3349 61.2362 50.4284 61.0352 50.5331C60.9868 50.5491 60.9385 50.5651 60.8887 50.5816C60.7685 50.8312 60.7762 51.0787 60.7788 51.3492C60.7791 51.4216 60.7791 51.4216 60.7794 51.4955C60.7884 52.3403 60.8426 53.1848 60.8887 54.0282C60.9193 54.0417 60.9499 54.0551 60.9814 54.069C61.0213 54.0866 61.0612 54.1042 61.1023 54.1223C61.1419 54.1397 61.1816 54.1572 61.2225 54.1752C61.2909 54.2057 61.3587 54.2376 61.4258 54.2709C61.4258 54.3991 61.4258 54.5272 61.4258 54.6593C60.604 54.6593 59.7822 54.6593 58.9355 54.6593C58.9355 54.5311 58.9355 54.403 58.9355 54.2709C59.1735 54.1937 59.3656 54.1636 59.6191 54.1738C59.595 54.1258 59.595 54.1258 59.5703 54.0768C59.5645 53.9894 59.5617 53.9019 59.5603 53.8143C59.5593 53.7586 59.5583 53.7029 59.5573 53.6456C59.5565 53.5842 59.5557 53.5228 59.5549 53.4595C59.5539 53.3945 59.5528 53.3295 59.5518 53.2644C59.549 53.0876 59.5466 52.9109 59.5443 52.7341C59.5429 52.6238 59.5413 52.5135 59.5397 52.4033C59.5166 50.7766 59.5162 49.1501 59.5215 47.5234C59.4762 47.5165 59.4308 47.5097 59.3841 47.5027C59.2196 47.4732 59.0922 47.4216 58.9417 47.3504C58.8944 47.3283 58.8472 47.3062 58.7986 47.2835C58.7632 47.2665 58.7279 47.2496 58.6914 47.2321C58.6914 47.1039 58.6914 46.9758 58.6914 46.8438Z" fill="#00AFF9"/>
<path d="M127.203 49.6098C127.285 49.6729 127.364 49.7388 127.441 49.807C127.487 49.8437 127.532 49.8805 127.579 49.9183C127.942 50.224 127.942 50.224 128.027 50.4866C128.06 50.4866 128.092 50.4866 128.125 50.4866C128.582 51.2672 128.622 52.1867 128.418 53.0594C128.321 53.3486 128.171 53.646 127.979 53.8847C127.946 53.8847 127.914 53.8847 127.881 53.8847C127.868 53.9136 127.856 53.9426 127.843 53.9725C127.779 54.0867 127.717 54.146 127.615 54.2275C127.491 54.3279 127.491 54.3279 127.376 54.4378C127.041 54.7607 126.719 54.8418 126.26 54.8397C126.195 54.8379 126.131 54.8361 126.065 54.8343C126 54.8341 125.934 54.834 125.869 54.834C125.545 54.8297 125.284 54.8213 125 54.6614C124.952 54.6373 124.952 54.6373 124.902 54.6128C124.906 54.8314 124.91 55.05 124.915 55.2685C124.917 55.3429 124.918 55.4172 124.919 55.4916C124.921 55.5985 124.923 55.7053 124.926 55.8122C124.926 55.8454 124.927 55.8787 124.927 55.9129C124.931 56.0491 124.936 56.1445 125.015 56.2583C125.154 56.3483 125.312 56.3665 125.473 56.3938C125.507 56.4001 125.542 56.4064 125.577 56.4128C125.661 56.4282 125.746 56.4429 125.83 56.4575C125.83 56.5856 125.83 56.7138 125.83 56.8458C124.896 56.8458 123.961 56.8458 122.998 56.8458C122.998 56.7177 122.998 56.5895 122.998 56.4575C123.102 56.425 123.206 56.3926 123.309 56.3604C123.367 56.3424 123.425 56.3244 123.484 56.3058C123.633 56.2633 123.633 56.2633 123.73 56.2633C123.729 55.5071 123.726 54.751 123.721 53.9948C123.72 53.6437 123.718 53.2926 123.717 52.9415C123.717 52.6355 123.715 52.3295 123.713 52.0235C123.712 51.8615 123.711 51.6995 123.711 51.5374C123.711 51.3565 123.71 51.1757 123.708 50.9949C123.709 50.9142 123.709 50.9142 123.709 50.8319C123.708 50.7826 123.708 50.7333 123.707 50.6826C123.707 50.6184 123.707 50.6184 123.706 50.5529C123.673 50.3999 123.607 50.3415 123.486 50.2439C123.324 50.1922 123.167 50.1733 122.998 50.1468C122.998 49.9706 122.998 49.7944 122.998 49.6128C123.416 49.5332 123.807 49.5032 124.231 49.5097C124.314 49.5103 124.314 49.5103 124.399 49.511C124.534 49.5121 124.67 49.5139 124.805 49.5157C124.853 49.6759 124.901 49.8361 124.951 50.0012C124.979 49.9783 125.008 49.9555 125.037 49.932C125.605 49.4819 126.523 49.1891 127.203 49.6098ZM124.805 50.5352C124.646 51.0076 124.698 51.5735 124.698 52.0688C124.698 52.1823 124.697 52.2958 124.696 52.4093C124.662 53.2145 124.662 53.2145 124.933 53.9363C125.228 54.2183 125.613 54.4413 126.027 54.4754C126.381 54.4565 126.645 54.2342 126.892 54C127.406 53.3195 127.465 52.3708 127.373 51.555C127.296 51.071 127.121 50.6607 126.737 50.3391C126.106 49.9068 125.35 50.0277 124.805 50.5352Z" fill="#00AFF9"/>
<path d="M112.655 49.3438C112.762 49.3453 112.762 49.3453 112.939 49.3695C113.004 49.4973 112.998 49.5957 113.002 49.7389C113.005 49.8305 113.005 49.8305 113.008 49.9238C113.009 49.9939 113.011 50.064 113.013 50.1341C113.014 50.1884 113.014 50.1884 113.016 50.2438C113.038 51.0985 113.05 51.9535 113.063 52.8084C113.065 52.9172 113.066 53.0261 113.068 53.1349C113.084 54.1776 113.089 55.2199 113.086 56.2627C113.123 56.2727 113.16 56.2826 113.198 56.2929C113.271 56.3125 113.271 56.3125 113.345 56.3325C113.394 56.3455 113.442 56.3584 113.491 56.3718C113.585 56.3977 113.677 56.4264 113.77 56.4569C113.77 56.5851 113.77 56.7132 113.77 56.8453C112.867 56.8453 111.965 56.8453 111.035 56.8453C111.035 56.5055 111.035 56.5055 111.084 56.4569C111.215 56.4375 111.346 56.4204 111.478 56.4053C111.515 56.4009 111.552 56.3965 111.59 56.392C111.682 56.3811 111.773 56.3704 111.865 56.3598C111.862 56.3323 111.859 56.3048 111.856 56.2764C111.789 55.6384 111.754 55.011 111.768 54.3695C111.742 54.3894 111.717 54.4093 111.691 54.4298C111.148 54.8465 110.559 54.8587 109.891 54.8227C109.617 54.7872 109.431 54.6479 109.229 54.4666C109.192 54.4409 109.155 54.4152 109.118 54.3887C109.09 54.3664 109.062 54.344 109.033 54.321C109.033 54.289 109.033 54.2569 109.033 54.2239C108.961 54.1999 108.961 54.1999 108.887 54.1754C108.808 54.0695 108.737 53.9653 108.667 53.8538C108.648 53.8244 108.629 53.7951 108.609 53.7648C108.185 53.0994 108.049 52.2741 108.194 51.4994C108.213 51.4203 108.232 51.3414 108.252 51.2627C108.259 51.228 108.266 51.1933 108.274 51.1575C108.414 50.6137 108.926 50.0751 109.375 49.7579C109.423 49.7579 109.472 49.7579 109.522 49.7579C109.522 49.7258 109.522 49.6938 109.522 49.6608C109.893 49.4943 110.199 49.4578 110.605 49.4575C110.67 49.4566 110.67 49.4566 110.737 49.4557C111.15 49.4548 111.529 49.5167 111.914 49.6669C112.081 49.7357 112.081 49.7357 112.256 49.7579C112.301 49.6945 112.343 49.6295 112.384 49.5637C112.518 49.3772 112.518 49.3772 112.655 49.3438ZM109.961 50.1462C109.961 50.1783 109.961 50.2103 109.961 50.2433C109.913 50.2593 109.864 50.2754 109.814 50.2919C109.291 51.0502 109.167 52.0356 109.308 52.9314C109.428 53.4235 109.719 53.8045 110.114 54.1105C110.313 54.2026 110.489 54.1966 110.706 54.1936C110.765 54.1944 110.765 54.1944 110.825 54.1953C111.213 54.1934 111.583 54.116 111.865 53.8356C111.917 53.6818 111.921 53.5722 111.921 53.4106C111.922 53.3533 111.922 53.2959 111.922 53.2368C111.922 53.1748 111.922 53.1127 111.922 53.0488C111.922 52.9851 111.923 52.9213 111.923 52.8556C111.923 52.7206 111.923 52.5856 111.923 52.4505C111.923 52.278 111.924 52.1055 111.925 51.933C111.925 51.7679 111.925 51.6028 111.925 51.4378C111.926 51.376 111.926 51.3143 111.926 51.2506C111.926 51.1639 111.926 51.1639 111.926 51.0754C111.926 51.0248 111.926 50.9741 111.926 50.9219C111.901 50.6156 111.794 50.3398 111.557 50.1402C111.515 50.1039 111.515 50.1039 111.472 50.067C111.245 49.9083 111.045 49.8892 110.77 49.8883C110.707 49.8875 110.645 49.8867 110.581 49.8859C110.329 49.9105 110.168 50.0089 109.961 50.1462Z" fill="#00AFF9"/>
<path d="M72.5586 49.7079C72.6089 49.7429 72.6593 49.778 72.7112 49.8141C73.0552 50.1059 73.1367 50.6446 73.1821 51.0687C73.2082 51.4032 73.2126 51.7391 73.2208 52.0744C73.2229 52.155 73.225 52.2355 73.2271 52.3161C73.2415 52.8869 73.2483 53.4573 73.2422 54.0283C73.2872 54.0424 73.2872 54.0424 73.3332 54.0567C73.3726 54.0694 73.4121 54.082 73.4528 54.095C73.4918 54.1074 73.5309 54.1198 73.5712 54.1326C73.6816 54.1739 73.6816 54.1739 73.8281 54.271C73.8281 54.3991 73.8281 54.5273 73.8281 54.6593C73.0063 54.6593 72.1846 54.6593 71.3379 54.6593C71.3379 54.5312 71.3379 54.403 71.3379 54.271C71.4171 54.2303 71.4965 54.1899 71.5759 54.1496C71.6422 54.1158 71.6422 54.1158 71.7098 54.0814C71.8262 54.0283 71.8262 54.0283 71.9238 54.0283C71.9261 53.6274 71.9278 53.2265 71.9289 52.8256C71.9294 52.6395 71.9301 52.4533 71.9312 52.2672C71.9323 52.0874 71.9328 51.9077 71.9331 51.728C71.9333 51.6595 71.9336 51.591 71.9342 51.5225C71.9349 51.4264 71.9349 51.3303 71.9349 51.2342C71.9351 51.1796 71.9353 51.1249 71.9356 51.0686C71.9236 50.9189 71.8855 50.8156 71.8262 50.6788C71.8262 50.6307 71.8262 50.5826 71.8262 50.5331C71.7939 50.5331 71.7617 50.5331 71.7285 50.5331C71.6492 50.4664 71.6492 50.4664 71.582 50.3875C71.582 50.3555 71.582 50.3234 71.582 50.2904C71.1266 50.2069 70.7115 50.2606 70.3066 50.4963C70.1605 50.6085 70.0976 50.6951 70.0684 50.8729C70.0641 50.9768 70.0626 51.0807 70.0628 51.1846C70.0628 51.2478 70.0628 51.3109 70.0628 51.376C70.0631 51.4447 70.0633 51.5134 70.0636 51.5821C70.0637 51.6526 70.0638 51.7231 70.0638 51.7935C70.064 51.9787 70.0645 52.1638 70.065 52.349C70.0655 52.538 70.0657 52.7271 70.066 52.9161C70.0665 53.2868 70.0673 53.6576 70.0684 54.0283C70.1134 54.0424 70.1134 54.0424 70.1593 54.0567C70.1988 54.0694 70.2383 54.082 70.2789 54.095C70.318 54.1074 70.3571 54.1198 70.3974 54.1326C70.5078 54.1739 70.5078 54.1739 70.6543 54.271C70.6543 54.3991 70.6543 54.5273 70.6543 54.6593C69.8325 54.6593 69.0107 54.6593 68.1641 54.6593C68.1641 54.5312 68.1641 54.403 68.1641 54.271C68.4192 54.1998 68.6319 54.1629 68.8965 54.1739C68.8887 54.1372 68.8809 54.1004 68.8729 54.0625C68.8388 53.8196 68.8371 53.5795 68.8339 53.3344C68.833 53.281 68.8321 53.2276 68.8312 53.1725C68.8283 53.0017 68.8258 52.8308 68.8232 52.6599C68.8175 52.2763 68.811 51.8926 68.8021 51.509C68.8 51.4112 68.7982 51.3133 68.7969 51.2155C68.7951 51.0873 68.7918 50.9592 68.7881 50.831C68.788 50.7941 68.7878 50.7571 68.7876 50.7191C68.7803 50.5272 68.7566 50.4439 68.6317 50.2941C68.5294 50.2122 68.4354 50.1419 68.3197 50.0811C68.2683 50.054 68.217 50.027 68.1641 49.9991C68.1641 49.871 68.1641 49.7428 68.1641 49.6108C68.5214 49.54 68.8745 49.487 69.2383 49.4652C69.2907 49.4614 69.3431 49.4577 69.3972 49.4538C69.4495 49.4515 69.5018 49.4493 69.5557 49.447C69.6035 49.4446 69.6513 49.4422 69.7006 49.4398C69.8242 49.4652 69.8242 49.4652 69.9106 49.5791C69.9678 49.7016 70.0211 49.824 70.0684 49.9506C70.1886 49.88 70.3071 49.8086 70.4226 49.7305C71.0299 49.331 71.96 49.245 72.5586 49.7079Z" fill="#00AFF9"/>
<path d="M147.761 49.6263C148.076 49.9112 148.38 50.2109 148.413 50.6528C148.417 50.737 148.42 50.8212 148.423 50.9055C148.425 50.9738 148.425 50.9738 148.428 51.0434C148.434 51.191 148.439 51.3385 148.444 51.4861C148.447 51.5872 148.451 51.6882 148.455 51.7893C148.465 52.0374 148.473 52.2856 148.482 52.5337C148.488 52.7289 148.496 52.924 148.503 53.1191C148.514 53.4222 148.525 53.7254 148.535 54.0286C148.712 54.1087 148.89 54.1888 149.072 54.2713C149.072 54.3994 149.072 54.5276 149.072 54.6596C148.25 54.6596 147.429 54.6596 146.582 54.6596C146.582 54.5315 146.582 54.4033 146.582 54.2713C146.82 54.194 147.012 54.1639 147.266 54.1742C147.25 54.1261 147.233 54.0781 147.217 54.0286C147.212 53.9284 147.209 53.8281 147.208 53.7278C147.208 53.6657 147.207 53.6036 147.206 53.5397C147.206 53.5065 147.206 53.4734 147.206 53.4392C147.205 53.3351 147.204 53.231 147.202 53.1269C147.199 52.8309 147.196 52.5349 147.194 52.239C147.192 52.0578 147.19 51.8767 147.188 51.6955C147.187 51.6267 147.186 51.5579 147.186 51.4891C147.185 51.3924 147.184 51.2958 147.183 51.1991C147.182 51.1168 147.182 51.1168 147.181 51.0329C147.162 50.801 147.125 50.6005 146.976 50.4181C146.705 50.2058 146.275 50.2622 145.947 50.2907C145.787 50.3463 145.679 50.4183 145.557 50.5334C145.517 50.5675 145.478 50.6015 145.438 50.6366C145.223 51.0294 145.301 51.6008 145.291 52.0421C145.286 52.2357 145.281 52.4293 145.276 52.6229C145.275 52.6795 145.275 52.6795 145.273 52.7373C145.261 53.1681 145.24 53.5983 145.215 54.0286C145.255 54.0379 145.295 54.0473 145.336 54.057C145.389 54.0696 145.441 54.0823 145.496 54.0953C145.574 54.1139 145.574 54.1139 145.654 54.1329C145.779 54.1681 145.883 54.2083 145.996 54.2713C145.996 54.3994 145.996 54.5276 145.996 54.6596C145.142 54.6596 144.288 54.6596 143.408 54.6596C143.408 54.5315 143.408 54.4033 143.408 54.2713C143.639 54.1681 143.843 54.0993 144.092 54.0286C144.092 52.779 144.092 51.5295 144.092 50.2422C143.866 50.2101 143.641 50.1781 143.408 50.1451C143.408 49.9688 143.408 49.7926 143.408 49.6111C144.004 49.6111 144.601 49.6111 145.215 49.6111C145.247 49.7553 145.279 49.8994 145.312 50.048C145.474 49.9675 145.606 49.8853 145.752 49.781C146.259 49.4185 147.21 49.2417 147.761 49.6263Z" fill="#00AFF9"/>
<path d="M113.867 49.611C114.463 49.611 115.06 49.611 115.674 49.611C115.679 49.8647 115.685 50.1183 115.69 50.3797C115.694 50.5412 115.697 50.7027 115.701 50.8642C115.708 51.1201 115.714 51.3759 115.719 51.6318C115.723 51.8383 115.728 52.0448 115.733 52.2512C115.735 52.3297 115.737 52.4082 115.738 52.4866C115.741 53.293 115.741 53.293 116.113 53.9799C116.412 54.0814 116.748 54.0304 117.041 53.9314C117.328 53.7883 117.328 53.7883 117.578 53.5916C117.584 53.4903 117.587 53.3889 117.588 53.2875C117.589 53.2557 117.589 53.224 117.59 53.1913C117.591 53.086 117.592 52.9807 117.594 52.8753C117.595 52.8025 117.596 52.7296 117.597 52.6568C117.599 52.4647 117.602 52.2726 117.604 52.0805C117.607 51.8846 117.609 51.6888 117.612 51.4929C117.617 51.1083 117.622 50.7237 117.627 50.3391C117.216 50.243 117.216 50.243 116.797 50.1449C116.797 49.9687 116.797 49.7925 116.797 49.611C117.081 49.6098 117.365 49.6089 117.65 49.6083C117.746 49.6081 117.843 49.6077 117.94 49.6073C118.079 49.6067 118.217 49.6064 118.356 49.6062C118.4 49.606 118.443 49.6057 118.488 49.6055C118.592 49.6055 118.695 49.608 118.799 49.611C118.903 49.7144 118.867 49.9445 118.872 50.0873C118.874 50.1348 118.876 50.1822 118.878 50.2311C118.899 50.7706 118.911 51.3103 118.924 51.85C118.925 51.8948 118.926 51.9396 118.927 51.9857C118.943 52.6343 118.948 53.2825 118.945 53.9314C118.975 53.9413 119.005 53.9513 119.036 53.9615C119.201 54.0162 119.366 54.0709 119.531 54.1255C119.531 54.2697 119.531 54.4139 119.531 54.5624C119.133 54.6578 118.762 54.6712 118.353 54.6656C118.293 54.6651 118.232 54.6647 118.169 54.6643C118.021 54.6631 117.873 54.6615 117.725 54.6595C117.676 54.5474 117.628 54.4352 117.578 54.3197C117.547 54.3425 117.517 54.3654 117.485 54.3889C117.443 54.4191 117.401 54.4494 117.358 54.4805C117.297 54.5253 117.297 54.5253 117.235 54.571C116.874 54.7915 116.558 54.8294 116.138 54.8264C116.089 54.8274 116.041 54.8283 115.991 54.8293C115.621 54.8291 115.371 54.7543 115.079 54.5292C114.648 54.0519 114.617 53.4317 114.597 52.8185C114.594 52.7464 114.591 52.6744 114.588 52.6024C114.581 52.4151 114.574 52.2278 114.567 52.0405C114.56 51.8485 114.552 51.6565 114.544 51.4644C114.529 51.0894 114.515 50.7143 114.502 50.3391C114.292 50.275 114.083 50.211 113.867 50.1449C113.867 49.9687 113.867 49.7925 113.867 49.611Z" fill="#00AFF9"/>
<path d="M51.2084 49.4497C51.2682 49.4483 51.328 49.4469 51.3896 49.4454C51.7671 49.4428 52.0565 49.4856 52.3925 49.659C52.4397 49.6827 52.4868 49.7063 52.5354 49.7307C52.7641 49.8977 52.8966 50.1586 52.9644 50.4288C53.028 50.8425 53.0364 51.2447 53.0261 51.6624C53.0248 51.7312 53.0236 51.7999 53.0224 51.8687C53.0192 52.0474 53.0154 52.226 53.0113 52.4047C53.0074 52.5879 53.004 52.7712 53.0006 52.9544C52.9938 53.3123 52.9863 53.6701 52.9784 54.028C53.2524 54.06 53.5263 54.092 53.8085 54.1251C53.7785 54.3043 53.7477 54.4813 53.7109 54.659C52.8149 54.9161 52.8149 54.9161 52.4535 54.7227C52.0296 54.4228 52.0296 54.4228 51.9531 54.2707C51.807 54.3083 51.807 54.3083 51.6601 54.3678C51.6359 54.4399 51.6359 54.4399 51.6113 54.5134C51.5172 54.579 51.5172 54.579 51.4007 54.6408C51.3626 54.6615 51.3245 54.6821 51.2853 54.7034C51.0098 54.8314 50.7292 54.8187 50.4302 54.8229C50.3812 54.8247 50.3322 54.8265 50.2817 54.8284C49.8564 54.8333 49.5915 54.7121 49.2706 54.4406C48.9692 54.0775 48.9985 53.5543 49.0234 53.1056C49.0582 52.889 49.1373 52.7011 49.2675 52.5231C49.2997 52.5231 49.332 52.5231 49.3652 52.5231C49.3813 52.4751 49.3974 52.427 49.414 52.3775C49.4462 52.3775 49.4784 52.3775 49.5116 52.3775C49.5116 52.3454 49.5116 52.3134 49.5116 52.2804C50.2637 51.8811 51.0277 51.6457 51.8554 51.4552C51.8535 50.7397 51.8535 50.7397 51.5453 50.1113C51.4424 50.0296 51.3757 50.0235 51.245 50.014C51.181 50.0093 51.181 50.0093 51.1157 50.0045C50.8902 49.9953 50.6651 49.995 50.4394 49.9988C50.4417 50.0403 50.4417 50.0403 50.444 50.0826C50.4502 50.2094 50.4539 50.3361 50.4577 50.463C50.4601 50.5065 50.4626 50.55 50.4651 50.5947C50.4703 50.8269 50.4569 50.982 50.3101 51.1686C50.2024 51.2753 50.1487 51.3088 49.9999 51.3547C49.5549 51.3466 49.5549 51.3466 49.3774 51.173C49.2469 50.9815 49.2252 50.8015 49.2397 50.5736C49.3133 50.2089 49.5113 49.9693 49.8107 49.7561C49.8889 49.7058 49.9682 49.657 50.0488 49.6105C50.0799 49.5925 50.1109 49.5744 50.143 49.5559C50.4717 49.4178 50.8588 49.4524 51.2084 49.4497ZM50.4882 52.5231C50.452 52.5481 50.4157 52.573 50.3783 52.5988C50.2286 52.7239 50.1586 52.8297 50.1294 53.0251C50.0697 53.5657 50.0697 53.5657 50.237 54.056C50.5212 54.2434 50.9389 54.2083 51.2695 54.1736C51.4295 54.127 51.5675 54.0669 51.7089 53.9794C51.7089 53.9474 51.7089 53.9153 51.7089 53.8823C51.8066 53.8338 51.9042 53.7852 52.0019 53.7367C52.0553 53.5875 52.057 53.4447 52.0572 53.2875C52.0573 53.238 52.0573 53.1884 52.0574 53.1374C52.0571 53.0601 52.0571 53.0601 52.0568 52.9812C52.057 52.931 52.0572 52.8808 52.0574 52.8291C52.057 52.498 52.0379 52.1726 52.0019 51.8435C51.4357 51.8435 50.9067 52.1838 50.4882 52.5231Z" fill="#00AFF9"/>
<path d="M77.9787 49.6581C77.9787 49.6901 77.9787 49.7221 77.9787 49.7551C78.0075 49.7676 78.0363 49.78 78.0659 49.7929C78.1842 49.8578 78.2531 49.9243 78.3419 50.0252C78.3826 50.0703 78.3826 50.0703 78.4241 50.1164C78.9348 50.8078 78.76 50.9398 78.76 51.9882C77.6804 51.9882 76.6008 51.9882 75.4885 51.9882C75.6874 53.0182 75.6874 53.0182 75.928 53.6386C75.928 53.7027 75.928 53.7668 75.928 53.8328C75.9703 53.8388 76.0126 53.8448 76.0561 53.851C76.2209 53.8814 76.2209 53.8814 76.3442 53.9308C76.581 53.9972 76.8062 53.9944 77.051 53.9936C77.1222 53.9948 77.1222 53.9948 77.1948 53.996C77.4642 53.9962 77.645 53.9753 77.8811 53.8328C77.9133 53.8328 77.9455 53.8328 77.9787 53.8328C77.9787 53.8008 77.9787 53.7687 77.9787 53.7357C78.0231 53.7067 78.0674 53.6777 78.113 53.6477C78.2753 53.5518 78.2753 53.5518 78.3694 53.4111C78.467 53.2988 78.467 53.2988 78.6196 53.2564C78.76 53.2503 78.76 53.2503 78.8577 53.2988C78.8329 53.5084 78.7992 53.6888 78.7112 53.8814C78.6789 53.8814 78.6467 53.8814 78.6135 53.8814C78.5893 53.9775 78.5893 53.9775 78.5647 54.0755C78.5325 54.0755 78.5002 54.0755 78.467 54.0755C78.4429 54.1476 78.4429 54.1476 78.4182 54.2212C78.386 54.2212 78.3537 54.2212 78.3205 54.2212C78.2964 54.2932 78.2964 54.2932 78.2717 54.3668C78.1035 54.5124 78.1035 54.5124 77.9787 54.5124C77.9787 54.5445 77.9787 54.5765 77.9787 54.6095C77.541 54.8097 77.1295 54.818 76.6512 54.8249C76.5895 54.8271 76.5278 54.8294 76.4642 54.8317C76.0472 54.8366 75.7233 54.7774 75.3909 54.5124C75.3747 54.4644 75.3586 54.4163 75.342 54.3668C75.2952 54.3443 75.2952 54.3443 75.2474 54.3213C75.123 54.2575 75.1085 54.1977 75.0491 54.0755C75.0007 54.0595 74.9524 54.0435 74.9026 54.027C74.8227 53.9109 74.7504 53.7966 74.6798 53.675C74.6506 53.6263 74.6506 53.6263 74.6208 53.5766C74.3634 53.1418 74.3078 52.7672 74.3075 52.2673C74.3069 52.224 74.3063 52.1808 74.3057 52.1362C74.304 51.3813 74.5369 50.65 75.0506 50.0824C75.8242 49.3496 77.0212 49.1926 77.9787 49.6581ZM75.7449 50.2876C75.5141 50.6604 75.5219 51.0715 75.4885 51.5027C76.2136 51.5027 76.9387 51.5027 77.6858 51.5027C77.7564 50.674 77.7564 50.674 77.5668 50.3498C77.4855 50.2669 77.4855 50.2669 77.3928 50.192C77.3609 50.1597 77.329 50.1275 77.2961 50.0942C77.0932 49.9076 76.9357 49.829 76.6573 49.8189C76.2659 49.8446 75.9874 49.9784 75.7449 50.2876Z" fill="#00AFF9"/>
<path d="M141.943 49.6603C141.943 49.6923 141.943 49.7243 141.943 49.7573C141.976 49.7654 142.01 49.7734 142.044 49.7816C142.399 49.9617 142.551 50.2867 142.724 50.6311C142.724 51.0797 142.724 51.5282 142.724 51.9904C141.645 51.9904 140.565 51.9904 139.453 51.9904C139.668 52.9009 139.668 52.9009 140.137 53.6894C140.166 53.7374 140.195 53.7855 140.225 53.835C140.469 54.0568 140.808 54.0366 141.122 54.0252C141.156 54.0235 141.19 54.0218 141.226 54.0201C141.259 54.0186 141.293 54.0172 141.327 54.0157C141.538 54.0009 141.671 53.9521 141.846 53.835C141.878 53.835 141.91 53.835 141.943 53.835C141.943 53.803 141.943 53.7709 141.943 53.7379C142.022 53.6716 142.022 53.6716 142.126 53.5984C142.247 53.5125 142.339 53.4404 142.438 53.3283C142.529 53.2525 142.529 53.2525 142.688 53.2646C142.754 53.2826 142.754 53.2826 142.822 53.301C142.845 53.5774 142.801 53.7654 142.627 53.9806C142.488 54.1198 142.346 54.252 142.187 54.369C142.155 54.369 142.123 54.369 142.09 54.369C142.065 54.4411 142.065 54.4411 142.041 54.5146C141.949 54.5802 141.949 54.5802 141.833 54.6421C141.796 54.6627 141.758 54.6834 141.72 54.7046C141.415 54.8404 141.086 54.8165 140.759 54.818C140.679 54.8195 140.679 54.8195 140.597 54.8211C140.03 54.8238 139.608 54.6705 139.16 54.3204C138.818 53.9606 138.818 53.9606 138.818 53.7865C138.786 53.7865 138.754 53.7865 138.721 53.7865C138.239 52.9684 138.192 52.1222 138.428 51.2137C138.482 51.0612 138.548 50.92 138.623 50.7768C138.639 50.743 138.655 50.7092 138.672 50.6744C138.718 50.5777 138.768 50.483 138.818 50.3884C138.843 50.3414 138.869 50.2943 138.894 50.2458C139.276 49.7695 139.716 49.5589 140.301 49.4297C140.869 49.3908 141.43 49.3846 141.943 49.6603ZM139.771 50.2896C139.472 50.6886 139.583 50.8906 139.551 51.5049C140.276 51.5049 141.001 51.5049 141.748 51.5049C141.724 51.2406 141.724 51.2406 141.699 50.9709C141.693 50.9075 141.687 50.844 141.681 50.7787C141.675 50.724 141.669 50.6693 141.662 50.6129C141.657 50.5575 141.651 50.502 141.645 50.4449C141.58 50.2156 141.448 50.1023 141.245 49.9824C140.646 49.7402 140.196 49.796 139.771 50.2896Z" fill="#00AFF9"/>
<path d="M157.439 49.4614C157.483 49.4613 157.527 49.4613 157.572 49.4612C157.664 49.4612 157.756 49.4613 157.848 49.4615C157.989 49.4618 158.131 49.4615 158.272 49.4612C158.362 49.4612 158.451 49.4613 158.541 49.4614C158.583 49.4613 158.625 49.4612 158.669 49.4611C158.708 49.4612 158.747 49.4614 158.788 49.4615C158.822 49.4616 158.857 49.4616 158.892 49.4617C158.984 49.4678 158.984 49.4678 159.131 49.5164C159.131 50.013 159.131 50.5096 159.131 51.0212C158.74 51.0212 158.74 51.0212 158.65 50.9554C158.633 50.9261 158.615 50.8967 158.597 50.8665C158.578 50.8357 158.559 50.8049 158.54 50.7732C158.487 50.6627 158.458 50.5605 158.447 50.4387C158.415 50.4387 158.383 50.4387 158.35 50.4387C158.326 50.3426 158.326 50.3426 158.301 50.2445C158.269 50.2445 158.236 50.2445 158.203 50.2445C158.154 50.196 158.106 50.1474 158.057 50.0989C157.854 50.0317 157.662 50.0356 157.449 50.0321C157.407 50.0303 157.366 50.0285 157.322 50.0267C157.067 50.0218 157.067 50.0218 156.857 50.1579C156.724 50.4167 156.763 50.6749 156.827 50.9514C156.846 50.9905 156.865 51.0295 156.885 51.0698C156.957 51.0938 156.957 51.0938 157.031 51.1183C157.031 51.1504 157.031 51.1824 157.031 51.2154C157.085 51.2242 157.085 51.2242 157.139 51.2332C157.275 51.2638 157.382 51.3072 157.507 51.3671C157.71 51.4617 157.914 51.5481 158.122 51.6304C158.859 51.9228 158.859 51.9228 159.131 52.1377C159.131 52.1698 159.131 52.2018 159.131 52.2348C159.163 52.2348 159.195 52.2348 159.229 52.2348C159.439 52.5274 159.434 52.823 159.436 53.1693C159.437 53.2085 159.438 53.2478 159.439 53.2882C159.441 53.6237 159.377 53.9194 159.198 54.2069C158.754 54.6482 158.399 54.8257 157.772 54.8275C157.723 54.8271 157.723 54.8271 157.673 54.8266C157.575 54.8258 157.477 54.8266 157.379 54.8275C157.024 54.8265 156.722 54.8058 156.397 54.662C156.099 54.5354 156.078 54.5712 155.713 54.662C155.713 54.0693 155.713 53.4766 155.713 52.8659C155.842 52.8659 155.971 52.8659 156.104 52.8659C156.169 52.9932 156.234 53.1206 156.299 53.2482C156.327 53.3025 156.327 53.3025 156.355 53.358C156.373 53.3927 156.391 53.4274 156.409 53.4632C156.433 53.5112 156.433 53.5112 156.458 53.5603C156.494 53.6426 156.494 53.6426 156.494 53.7397C156.526 53.7397 156.559 53.7397 156.592 53.7397C156.631 53.7922 156.631 53.7922 156.671 53.8459C156.87 54.08 157.038 54.2116 157.352 54.242C157.539 54.2433 157.724 54.2368 157.91 54.2251C157.953 54.2235 157.996 54.2219 158.041 54.2202C158.155 54.2151 158.155 54.2151 158.301 54.1766C158.376 54.0875 158.376 54.0875 158.399 53.9824C158.415 53.9504 158.431 53.9183 158.447 53.8853C158.455 53.7752 158.458 53.6649 158.46 53.5546C158.461 53.4655 158.461 53.4655 158.463 53.3746C158.445 53.1842 158.429 53.1058 158.301 52.963C157.927 52.7411 157.472 52.6361 157.06 52.5076C156.531 52.3334 156.09 52.048 155.811 51.5552C155.658 51.1176 155.685 50.6236 155.859 50.196C155.892 50.196 155.924 50.196 155.957 50.196C155.969 50.1675 155.982 50.139 155.994 50.1097C156.148 49.8352 156.451 49.6308 156.738 49.5164C156.97 49.4544 157.201 49.4608 157.439 49.4614Z" fill="#00AFF9"/>
<path d="M58.0769 49.8749C58.3666 50.1623 58.4121 50.4415 58.4143 50.8397C58.4097 51.1039 58.3724 51.2547 58.2032 51.4566C57.9471 51.5415 57.7357 51.527 57.483 51.4475C57.3025 51.3474 57.2232 51.3005 57.129 51.1168C57.0862 50.7527 57.1385 50.4022 57.2266 50.0488C56.8694 49.9304 56.4995 49.9782 56.1602 50.13C55.99 50.234 55.9015 50.3602 55.8106 50.5343C55.7834 50.5853 55.7562 50.6364 55.7282 50.689C55.5569 51.1211 55.5498 51.6054 55.5512 52.0634C55.5504 52.1138 55.5496 52.1641 55.5488 52.216C55.5485 52.6783 55.6182 53.1411 55.8594 53.544C55.8886 53.595 55.9178 53.6461 55.9479 53.6987C56.1056 53.9002 56.2371 53.9632 56.4906 54.0036C56.9227 54.048 57.3173 54.0197 57.7149 53.8352C57.7149 53.8032 57.7149 53.7711 57.7149 53.7381C57.8119 53.6724 57.9096 53.6078 58.0079 53.544C58.0532 53.4899 58.0532 53.4899 58.0994 53.4347C58.2593 53.3039 58.3911 53.3364 58.5938 53.3498C58.5375 53.8294 58.3641 54.0483 57.9987 54.351C57.4818 54.7364 56.9867 54.8159 56.3569 54.8243C56.2805 54.827 56.2805 54.827 56.2027 54.8298C55.6582 54.8359 55.3369 54.6074 54.9491 54.2452C54.3663 53.6437 54.156 52.9224 54.1489 52.1051C54.1783 51.4543 54.3546 50.9169 54.7364 50.3886C54.7686 50.3406 54.8008 50.2925 54.834 50.243C54.8663 50.243 54.8985 50.243 54.9317 50.243C54.9448 50.214 54.9579 50.1849 54.9714 50.155C55.0293 50.0489 55.0829 49.9802 55.1758 49.9032C55.2081 49.9032 55.2403 49.9032 55.2735 49.9032C55.2735 49.8711 55.2735 49.8391 55.2735 49.8061C55.3555 49.7579 55.438 49.7105 55.5207 49.6635C55.5666 49.637 55.6125 49.6106 55.6597 49.5833C56.3542 49.2682 57.4959 49.3936 58.0769 49.8749Z" fill="#00AFF9"/>
<path d="M150.293 48.1055C150.615 48.1055 150.938 48.1055 151.27 48.1055C151.27 48.6021 151.27 49.0987 151.27 49.6103C151.737 49.6103 152.204 49.6103 152.686 49.6103C152.686 49.8186 152.686 50.0268 152.686 50.2414C152.53 50.2578 152.374 50.2739 152.219 50.2899C152.175 50.2946 152.131 50.2992 152.086 50.304C152.043 50.3083 152 50.3127 151.956 50.3172C151.917 50.3213 151.878 50.3254 151.837 50.3296C151.68 50.3405 151.524 50.339 151.367 50.3385C151.371 50.7719 151.376 51.2052 151.381 51.6386C151.384 51.8398 151.386 52.041 151.388 52.2423C151.39 52.4365 151.392 52.6307 151.394 52.8249C151.395 52.899 151.396 52.9731 151.397 53.0471C151.397 53.1509 151.399 53.2547 151.4 53.3585C151.401 53.4175 151.402 53.4766 151.402 53.5375C151.415 53.6816 151.43 53.765 151.514 53.8822C151.656 53.9293 151.771 53.9444 151.92 53.9567C151.97 53.9609 152.021 53.9651 152.072 53.9695C152.125 53.9737 152.177 53.9779 152.231 53.9823C152.284 53.9867 152.337 53.9911 152.391 53.9957C152.522 54.0065 152.653 54.0172 152.783 54.0278C152.777 54.0982 152.77 54.1687 152.763 54.239C152.758 54.2979 152.758 54.2979 152.752 54.3579C152.734 54.4647 152.734 54.4647 152.661 54.58C152.301 54.8128 151.909 54.8323 151.489 54.8348C151.437 54.837 151.384 54.8392 151.33 54.8415C150.982 54.8444 150.79 54.7825 150.528 54.5522C150.499 54.5233 150.47 54.4944 150.439 54.4647C150.415 54.4426 150.391 54.4204 150.366 54.3976C150.058 54.0658 150.127 53.5357 150.13 53.117C150.131 53.0433 150.131 52.9695 150.131 52.8957C150.131 52.7418 150.132 52.588 150.133 52.4341C150.134 52.2375 150.135 52.0408 150.135 51.8441C150.135 51.6556 150.136 51.467 150.137 51.2784C150.137 51.2428 150.137 51.2071 150.137 51.1704C150.137 51.069 150.138 50.9676 150.139 50.8663C150.139 50.8087 150.139 50.7512 150.14 50.6919C150.146 50.5327 150.146 50.5327 150.195 50.2414C149.921 50.2414 149.647 50.2414 149.365 50.2414C149.365 50.0331 149.365 49.8249 149.365 49.6103C149.671 49.6103 149.978 49.6103 150.293 49.6103C150.293 49.1137 150.293 48.6171 150.293 48.1055Z" fill="#00AFF9"/>
<path d="M66.4628 49.4625C66.651 49.4576 66.7339 49.4576 66.8945 49.5641C66.9871 49.7421 67.0051 49.8927 67.0078 50.0914C67.0087 50.1477 67.0097 50.204 67.0107 50.2621C67.0113 50.3228 67.0118 50.3836 67.0124 50.4462C67.0134 50.5098 67.0143 50.5734 67.0153 50.6389C67.0178 50.8086 67.0197 50.9782 67.0215 51.1479C67.0231 51.2827 67.025 51.4175 67.027 51.5523C67.039 52.3782 67.0438 53.2041 67.041 54.0301C67.0861 54.0442 67.0861 54.0442 67.132 54.0586C67.1715 54.0712 67.2109 54.0838 67.2516 54.0969C67.2907 54.1092 67.3298 54.1216 67.37 54.1344C67.4805 54.1757 67.4805 54.1757 67.627 54.2728C67.627 54.401 67.627 54.5291 67.627 54.6612C66.8052 54.6612 65.9834 54.6612 65.1367 54.6612C65.1367 54.533 65.1367 54.4049 65.1367 54.2728C65.2159 54.2321 65.2953 54.1917 65.3748 54.1515C65.441 54.1177 65.441 54.1177 65.5087 54.0832C65.625 54.0301 65.625 54.0301 65.7227 54.0301C65.7227 52.8126 65.7227 51.5952 65.7227 50.3408C65.5051 50.2927 65.5051 50.2927 65.2832 50.2437C65.185 50.2129 65.0871 50.1812 64.9902 50.1466C64.9902 49.9704 64.9902 49.7942 64.9902 49.6126C65.4829 49.5208 65.9627 49.4839 66.4628 49.4625Z" fill="#00AFF9"/>
<path d="M121.225 49.5088C121.319 49.5095 121.319 49.5095 121.415 49.5101C121.568 49.5113 121.722 49.5129 121.875 49.5149C121.95 51.0208 121.987 52.5216 121.973 54.0294C122.018 54.0435 122.018 54.0435 122.064 54.0579C122.103 54.0705 122.143 54.0832 122.183 54.0962C122.222 54.1086 122.261 54.121 122.302 54.1337C122.412 54.1751 122.412 54.1751 122.559 54.2722C122.559 54.4003 122.559 54.5285 122.559 54.6605C121.737 54.6605 120.915 54.6605 120.068 54.6605C120.068 54.5323 120.068 54.4042 120.068 54.2722C120.172 54.2315 120.276 54.1911 120.38 54.1508C120.466 54.117 120.466 54.117 120.555 54.0825C120.703 54.0294 120.703 54.0294 120.801 54.0294C120.801 52.844 120.801 51.6586 120.801 50.4372C120.769 50.4372 120.736 50.4372 120.703 50.4372C120.682 50.4152 120.661 50.3932 120.639 50.3705C120.453 50.1923 120.219 50.1749 119.971 50.1459C119.971 49.9697 119.971 49.7935 119.971 49.612C120.394 49.5207 120.792 49.503 121.225 49.5088Z" fill="#00AFF9"/>
<path d="M154.636 46.8918C154.868 47.0929 154.966 47.291 154.999 47.5957C155.016 48.1483 154.895 48.5537 154.541 48.9792C154.509 48.9792 154.477 48.9792 154.443 48.9792C154.427 49.0273 154.411 49.0753 154.395 49.1248C154.362 49.1248 154.33 49.1248 154.297 49.1248C154.281 49.1729 154.265 49.2209 154.248 49.2705C154.216 49.2705 154.184 49.2705 154.15 49.2705C154.15 49.3025 154.15 49.3345 154.15 49.3675C154.059 49.47 153.986 49.5095 153.849 49.5259C153.544 49.5323 153.544 49.5323 153.369 49.4161C153.369 49.3841 153.369 49.352 153.369 49.319C153.401 49.319 153.434 49.319 153.467 49.319C153.483 49.2709 153.499 49.2229 153.516 49.1734C153.548 49.1734 153.58 49.1734 153.613 49.1734C153.629 49.1253 153.646 49.0773 153.662 49.0277C153.694 49.0277 153.727 49.0277 153.76 49.0277C153.776 48.9797 153.792 48.9316 153.809 48.8821C153.841 48.8821 153.873 48.8821 153.906 48.8821C153.922 48.8341 153.938 48.786 153.955 48.7365C153.987 48.7365 154.02 48.7365 154.053 48.7365C154.069 48.6884 154.085 48.6404 154.102 48.5908C154.134 48.5908 154.166 48.5908 154.199 48.5908C154.215 48.4307 154.231 48.2705 154.248 48.1054C154.174 48.1024 154.099 48.0994 154.022 48.0963C153.851 48.0785 153.724 48.0571 153.583 47.9567C153.46 47.8057 153.434 47.7283 153.451 47.5354C153.456 47.4992 153.462 47.4631 153.467 47.4258C153.47 47.3836 153.474 47.3414 153.478 47.298C153.494 47.1694 153.516 47.0606 153.564 46.9404C153.857 46.73 154.324 46.6948 154.636 46.8918Z" fill="#00AFF9"/>
<path d="M121.756 46.9481C121.949 47.0959 122.007 47.2274 122.04 47.4669C122.055 47.7242 122.056 47.9104 121.884 48.1131C121.717 48.2784 121.586 48.3639 121.347 48.365C121.132 48.3615 120.985 48.3202 120.801 48.2042C120.801 48.1721 120.801 48.1401 120.801 48.1071C120.752 48.091 120.704 48.075 120.654 48.0585C120.647 47.9089 120.643 47.7593 120.639 47.6095C120.637 47.5671 120.635 47.5248 120.633 47.4811C120.627 47.1653 120.627 47.1653 120.771 47.0126C121.08 46.8413 121.418 46.8421 121.756 46.9481Z" fill="#00AFF9"/>
<path d="M66.3086 46.9559C66.344 46.9585 66.3793 46.961 66.4158 46.9637C66.5677 46.9757 66.7007 46.9928 66.8457 47.0409C66.9662 47.2206 66.9596 47.3608 66.9586 47.5688C66.9594 47.6031 66.9602 47.6375 66.961 47.6729C66.9612 47.8929 66.9351 48.0328 66.7969 48.2059C66.6433 48.3556 66.5269 48.3725 66.3147 48.3728C66.0625 48.3658 65.9093 48.3382 65.7227 48.1574C65.5794 47.9438 65.5458 47.7805 65.5762 47.5263C65.7244 47.0936 65.8268 46.9107 66.3086 46.9559Z" fill="#00AFF9"/>
<path d="M40.7715 48.25C40.8521 48.25 40.9326 48.25 41.0156 48.25C41.0712 48.4571 41.1133 48.6172 41.1133 48.8325C41.0488 48.8325 40.9844 48.8325 40.918 48.8325C40.9183 48.879 40.9185 48.9255 40.9188 48.9734C40.922 49.7726 40.9076 50.5717 40.8953 51.3709C40.8923 51.5668 40.8894 51.7628 40.8865 51.9588C40.8808 52.3406 40.875 52.7225 40.8691 53.1044C40.8369 53.1044 40.8047 53.1044 40.7715 53.1044C40.7715 51.5024 40.7715 49.9005 40.7715 48.25Z" fill="#7F99C8"/>
</svg>
