<svg width="290" height="399" viewBox="0 0 290 399" fill="none" xmlns="http://www.w3.org/2000/svg">
<path d="M31.2182 188.012L13.1914 226.22L13.4917 226.361L31.5185 188.153L31.2182 188.012Z" fill="#231F20"/>
<path d="M32.7197 188.06L32.4199 188.203L50.5904 226.344L50.8901 226.201L32.7197 188.06Z" fill="#231F20"/>
<path d="M64.4965 223.592H0.647461V229.777H64.4965V223.592Z" fill="#999B9E"/>
<path d="M64.4965 223.592H0.647461V225.486H64.4965V223.592Z" fill="#999B9E"/>
<path d="M63.999 227H0.999023V230H63.999V227Z" fill="#D5D7D8"/>
<path d="M63.999 223H0.999023V224H63.999V223Z" fill="#D5D7D8"/>
<path d="M14.9473 222.238H14.6143V229.775H14.9473V222.238Z" fill="#231F20"/>
<path d="M49.5215 222.238H49.1885V229.775H49.5215V222.238Z" fill="#231F20"/>
<path d="M69.1507 219.098H5.30273V223.04H69.1507V219.098Z" fill="#999B9E"/>
<path d="M69.1507 219.098H5.30273V220.305H69.1507V219.098Z" fill="#999B9E"/>
<path d="M69.1507 221.974H5.30273V223.04H69.1507V221.974Z" fill="#D5D7D8"/>
<path d="M69.1507 218.563H5.30273V219.629H69.1507V218.563Z" fill="#D5D7D8"/>
<path d="M19.6006 218.233H19.2686V223.039H19.6006V218.233Z" fill="#231F20"/>
<path d="M54.1758 218.233H53.8428V223.039H54.1758V218.233Z" fill="#231F20"/>
<path d="M64.3158 215.588H0.466797V219.531H64.3158V215.588Z" fill="#999B9E"/>
<path d="M64.3158 215.588H0.466797V216.794H64.3158V215.588Z" fill="#999B9E"/>
<path d="M64.3158 218.464H0.466797V219.531H64.3158V218.464Z" fill="#D5D7D8"/>
<path d="M64.3158 215.052H0.466797V216.119H64.3158V215.052Z" fill="#D5D7D8"/>
<path d="M14.7666 214.724H14.4336V219.532H14.7666V214.724Z" fill="#231F20"/>
<path d="M49.3418 214.724H49.0088V219.532H49.3418V214.724Z" fill="#231F20"/>
<path d="M32.7239 187.281H32.0599L28.6289 78.4761L29.2929 78.4551L32.3919 176.739L35.4899 78.8371L36.1539 78.8571L32.7239 187.281Z" fill="#231F20"/>
<path d="M33.7482 184.113H31.0332V186.164H33.7482V184.113Z" fill="#53360E"/>
<path d="M35.2864 185.389H29.8564V189.408H35.2864V185.389Z" fill="#633F02"/>
<path d="M33.618 187.396C33.618 188.073 33.069 188.622 32.391 188.622C31.714 188.622 31.166 188.073 31.166 187.396C31.166 186.719 31.714 186.17 32.391 186.17C33.068 186.171 33.618 186.72 33.618 187.396Z" fill="#999B9E"/>
<path d="M286.95 90.2549H274.914V102.457H286.95V90.2549Z" fill="#231F20"/>
<path d="M288.689 79.1846H272.4V94.4976H288.689V79.1846Z" fill="#4F4F51"/>
<path d="M287.397 80.0938H273.649V93.6737H287.397V80.0938Z" fill="#222224"/>
<path d="M220.75 373.479H219.379V378.553H220.75V373.479Z" fill="#BE892D"/>
<path d="M226.069 373.479H224.698V378.553H226.069V373.479Z" fill="#BE892D"/>
<path d="M220.75 353.989H219.379V359.065H220.75V353.989Z" fill="#BE892D"/>
<path d="M226.069 353.989H224.698V359.065H226.069V353.989Z" fill="#BE892D"/>
<path d="M228.783 373.642L216.233 359.228L217.098 358.9L229.647 373.314L228.783 373.642Z" fill="#AA7A26"/>
<path d="M231.29 372.896H215.084V374.063H231.29V372.896Z" fill="#BE892D"/>
<path d="M231.29 358.482H215.084V359.649H231.29V358.482Z" fill="#BE892D"/>
<path d="M231.29 377.97H215.084V379.138H231.29V377.97Z" fill="#BE892D"/>
<path d="M217.093 353.989L216.237 353.653L229.286 339.239L230.142 339.577L217.093 353.989Z" fill="#AA7A26"/>
<path d="M231.29 353.237H215.084V354.406H231.29V353.237Z" fill="#BE892D"/>
<path d="M231.29 338.824H215.084V339.993H231.29V338.824Z" fill="#BE892D"/>
<path d="M220.751 334.336H219.38V339.41H220.751V334.336Z" fill="#BE892D"/>
<path d="M226.07 334.336H224.699V339.41H226.07V334.336Z" fill="#BE892D"/>
<path d="M220.751 314.846H219.38V319.919H220.751V314.846Z" fill="#BE892D"/>
<path d="M226.07 314.846H224.699V319.919H226.07V314.846Z" fill="#BE892D"/>
<path d="M228.784 334.498L216.234 320.085L217.099 319.756L229.648 334.171L228.784 334.498Z" fill="#AA7A26"/>
<path d="M231.291 333.75H215.085V334.918H231.291V333.75Z" fill="#BE892D"/>
<path d="M231.291 319.336H215.085V320.505H231.291V319.336Z" fill="#BE892D"/>
<path d="M217.094 314.846L216.238 314.51L229.287 300.095L230.143 300.432L217.094 314.846Z" fill="#AA7A26"/>
<path d="M231.291 314.093H215.085V315.263H231.291V314.093Z" fill="#BE892D"/>
<path d="M231.291 299.68H215.085V300.848H231.291V299.68Z" fill="#BE892D"/>
<path d="M220.751 295.417H219.38V300.492H220.751V295.417Z" fill="#BE892D"/>
<path d="M226.07 295.417H224.699V300.492H226.07V295.417Z" fill="#BE892D"/>
<path d="M220.751 275.929H219.38V281.005H220.751V275.929Z" fill="#BE892D"/>
<path d="M226.07 275.929H224.699V281.005H226.07V275.929Z" fill="#BE892D"/>
<path d="M228.784 295.581L216.234 281.168L217.099 280.839L229.648 295.253L228.784 295.581Z" fill="#AA7A26"/>
<path d="M231.291 294.834H215.085V296.001H231.291V294.834Z" fill="#BE892D"/>
<path d="M231.291 280.42H215.085V281.587H231.291V280.42Z" fill="#BE892D"/>
<path d="M217.094 275.929L216.238 275.592L229.287 261.178L230.143 261.516L217.094 275.929Z" fill="#AA7A26"/>
<path d="M231.291 275.176H215.085V276.344H231.291V275.176Z" fill="#BE892D"/>
<path d="M231.291 260.764H215.085V261.932H231.291V260.764Z" fill="#BE892D"/>
<path d="M220.75 256.272H219.379V261.345H220.75V256.272Z" fill="#BE892D"/>
<path d="M226.069 256.272H224.698V261.345H226.069V256.272Z" fill="#BE892D"/>
<path d="M220.75 236.783H219.379V241.858H220.75V236.783Z" fill="#BE892D"/>
<path d="M226.069 236.783H224.698V241.858H226.069V236.783Z" fill="#BE892D"/>
<path d="M228.783 256.437L216.233 242.021L217.098 241.694L229.647 256.108L228.783 256.437Z" fill="#AA7A26"/>
<path d="M231.29 255.689H215.084V256.857H231.29V255.689Z" fill="#BE892D"/>
<path d="M231.29 241.273H215.084V242.442H231.29V241.273Z" fill="#BE892D"/>
<path d="M217.093 236.783L216.237 236.446L229.286 222.032L230.142 222.371L217.093 236.783Z" fill="#AA7A26"/>
<path d="M231.29 236.031H215.084V237.199H231.29V236.031Z" fill="#BE892D"/>
<path d="M231.29 221.618H215.084V222.785H231.29V221.618Z" fill="#BE892D"/>
<path d="M220.751 217.127H219.38V222.201H220.751V217.127Z" fill="#BE892D"/>
<path d="M226.07 217.127H224.699V222.201H226.07V217.127Z" fill="#BE892D"/>
<path d="M220.751 197.639H219.38V202.713H220.751V197.639Z" fill="#BE892D"/>
<path d="M226.07 197.639H224.699V202.713H226.07V197.639Z" fill="#BE892D"/>
<path d="M228.784 217.291L216.234 202.877L217.099 202.549L229.648 216.963L228.784 217.291Z" fill="#AA7A26"/>
<path d="M231.291 216.543H215.085V217.711H231.291V216.543Z" fill="#BE892D"/>
<path d="M231.291 202.129H215.085V203.298H231.291V202.129Z" fill="#BE892D"/>
<path d="M217.094 197.639L216.238 197.302L229.287 182.888L230.143 183.225L217.094 197.639Z" fill="#AA7A26"/>
<path d="M231.291 196.887H215.085V198.055H231.291V196.887Z" fill="#BE892D"/>
<path d="M231.291 182.471H215.085V183.64H231.291V182.471Z" fill="#BE892D"/>
<path d="M220.75 177.982H219.379V183.057H220.75V177.982Z" fill="#BE892D"/>
<path d="M226.069 177.982H224.698V183.057H226.069V177.982Z" fill="#BE892D"/>
<path d="M220.75 158.494H219.379V163.568H220.75V158.494Z" fill="#BE892D"/>
<path d="M226.069 158.494H224.698V163.568H226.069V158.494Z" fill="#BE892D"/>
<path d="M228.783 178.145L216.233 163.732L217.098 163.404L229.647 177.818L228.783 178.145Z" fill="#AA7A26"/>
<path d="M231.29 177.398H215.084V178.566H231.29V177.398Z" fill="#BE892D"/>
<path d="M231.29 162.983H215.084V164.151H231.29V162.983Z" fill="#BE892D"/>
<path d="M217.093 158.494L216.237 158.156L229.286 143.742L230.142 144.08L217.093 158.494Z" fill="#AA7A26"/>
<path d="M231.29 157.741H215.084V158.909H231.29V157.741Z" fill="#BE892D"/>
<path d="M231.29 143.328H215.084V144.495H231.29V143.328Z" fill="#BE892D"/>
<path d="M220.75 139.064H219.379V144.139H220.75V139.064Z" fill="#BE892D"/>
<path d="M226.069 139.064H224.698V144.139H226.069V139.064Z" fill="#BE892D"/>
<path d="M220.75 119.577H219.379V124.65H220.75V119.577Z" fill="#BE892D"/>
<path d="M226.069 119.577H224.698V124.65H226.069V119.577Z" fill="#BE892D"/>
<path d="M228.783 139.229L216.233 124.814L217.098 124.487L229.647 138.9L228.783 139.229Z" fill="#AA7A26"/>
<path d="M231.29 138.48H215.084V139.648H231.29V138.48Z" fill="#BE892D"/>
<path d="M231.29 124.067H215.084V125.234H231.29V124.067Z" fill="#BE892D"/>
<path d="M217.093 119.577L216.237 119.239L229.286 104.825L230.142 105.163L217.093 119.577Z" fill="#AA7A26"/>
<path d="M231.29 118.824H215.084V119.993H231.29V118.824Z" fill="#BE892D"/>
<path d="M231.29 104.41H215.084V105.578H231.29V104.41Z" fill="#BE892D"/>
<path d="M220.751 99.9199H219.38V104.995H220.751V99.9199Z" fill="#BE892D"/>
<path d="M226.07 99.9199H224.699V104.995H226.07V99.9199Z" fill="#BE892D"/>
<path d="M220.751 80.4316H219.38V85.5046H220.751V80.4316Z" fill="#BE892D"/>
<path d="M226.07 80.4316H224.699V85.5046H226.07V80.4316Z" fill="#BE892D"/>
<path d="M228.784 100.084L216.234 85.6688L217.099 85.3418L229.648 99.7558L228.784 100.084Z" fill="#AA7A26"/>
<path d="M231.291 99.335H215.085V100.504H231.291V99.335Z" fill="#BE892D"/>
<path d="M231.291 84.9219H215.085V86.0899H231.291V84.9219Z" fill="#BE892D"/>
<path d="M231.291 79.6777H215.085V80.8467H231.291V79.6777Z" fill="#BE892D"/>
<path d="M216.915 77.2871H213.59V388.027H216.915V77.2871Z" fill="#DFAF36"/>
<path d="M232.207 77.2871H228.882V388.027H232.207V77.2871Z" fill="#DFAF36"/>
<path d="M234.177 74.1787H210.807V80.3947H234.177V74.1787Z" fill="#B38E28"/>
<path d="M234.177 77.8682H210.807V80.3942H234.177V77.8682Z" fill="#B38E28"/>
<path d="M240.685 79.6777H200.514V87.7597H240.685V79.6777Z" fill="#B38E28"/>
<path d="M240.685 79.6777H200.514V83.7187H240.685V79.6777Z" fill="#5D4B0A"/>
<path d="M221.807 2.97197L31.332 73.4229L31.9086 74.9816L222.384 4.53076L221.807 2.97197Z" fill="#5A5B5D"/>
<path d="M287.952 74.7478L222.585 4.92877L155.206 66.5658L154.083 65.3398L222.675 2.59277L289.165 73.6118L287.952 74.7478Z" fill="#5A5B5D"/>
<path d="M239.925 65.638L231.027 78.6113L231.576 78.9875L240.473 66.0141L239.925 65.638Z" fill="#DC9134"/>
<path d="M229.942 62.932L229.374 63.2783L239.494 79.8674L240.062 79.5211L229.942 62.932Z" fill="#DC9134"/>
<path d="M289.39 80.5091H30.7832V73.4031L31.5582 73.3501L203.884 61.8281L229.808 61.8461L289.39 73.4971V80.5091ZM32.4452 78.8491H287.727V74.8631L229.568 63.4901H203.938L32.4452 74.9561V78.8491Z" fill="#DC9134"/>
<path d="M231.291 77.9522C230.958 77.9522 230.671 77.7022 230.632 77.3622L222.441 6.60618L214.251 77.3622C214.209 77.7282 213.877 77.9892 213.515 77.9482C213.15 77.9052 212.888 77.5752 212.93 77.2112L221.782 0.74718C221.82 0.41218 222.104 0.15918 222.442 0.15918C222.78 0.15918 223.064 0.41218 223.103 0.74718L231.954 77.2112C231.996 77.5752 231.735 77.9052 231.37 77.9482C231.343 77.9512 231.317 77.9522 231.291 77.9522Z" fill="#B38E28"/>
<path d="M229.481 62.3066H215.401C215.034 62.3066 214.736 62.0076 214.736 61.6426C214.736 61.2766 215.034 60.9756 215.401 60.9756H229.481C229.848 60.9756 230.145 61.2766 230.145 61.6426C230.145 62.0076 229.848 62.3066 229.481 62.3066Z" fill="#B38E28"/>
<path d="M227.601 45.537H217.66C217.293 45.537 216.995 45.239 216.995 44.873C216.995 44.506 217.293 44.208 217.66 44.208H227.601C227.967 44.208 228.266 44.506 228.266 44.873C228.265 45.239 227.967 45.537 227.601 45.537Z" fill="#B38E28"/>
<path d="M218.328 45.5371C218.258 45.5371 218.185 45.5261 218.114 45.5021C217.766 45.3841 217.581 45.0061 217.699 44.6591L224.574 24.4651C224.692 24.1181 225.07 23.9321 225.418 24.0501C225.765 24.1691 225.951 24.5471 225.833 24.8951L218.957 45.0881C218.864 45.3631 218.605 45.5371 218.328 45.5371Z" fill="#B38E28"/>
<path d="M226.806 45.5372C226.531 45.5372 226.275 45.3672 226.179 45.0952L219.054 24.9022C218.932 24.5552 219.113 24.1752 219.459 24.0522C219.806 23.9312 220.186 24.1122 220.308 24.4602L227.433 44.6522C227.557 44.9982 227.374 45.3782 227.027 45.5002C226.954 45.5252 226.879 45.5372 226.806 45.5372Z" fill="#B38E28"/>
<path d="M229.482 62.3066C229.275 62.3066 229.071 62.2096 228.941 62.0296L217.12 45.5956C216.906 45.2976 216.974 44.8816 217.271 44.6676C217.569 44.4526 217.985 44.5206 218.199 44.8186L230.02 61.2516C230.234 61.5506 230.167 61.9666 229.869 62.1806C229.751 62.2646 229.616 62.3066 229.482 62.3066Z" fill="#B38E28"/>
<path d="M215.751 62.3064C215.621 62.3064 215.491 62.2684 215.377 62.1904C215.073 61.9834 214.995 61.5704 215.203 61.2674L226.257 45.0794C226.464 44.7764 226.878 44.6994 227.181 44.9054C227.484 45.1134 227.562 45.5264 227.355 45.8304L216.301 62.0164C216.172 62.2044 215.962 62.3064 215.751 62.3064Z" fill="#B38E28"/>
<path d="M218.333 77.25H204.176V79.678H218.333V77.25Z" fill="#473901"/>
<path d="M218.952 61.6426H202.662V78.7926H218.952V61.6426Z" fill="#DFAF36"/>
<path d="M217.66 62.6582H203.912V77.8682H217.66V62.6582Z" fill="#E2C534"/>
<path d="M51.5224 72.9033H49.8604V79.1313H51.5224V72.9033Z" fill="#DC9134"/>
<path d="M71.4696 71.1689H69.8066V79.132H71.4696V71.1689Z" fill="#DC9134"/>
<path d="M97.5097 69.7998H95.8477V79.1318H97.5097V69.7998Z" fill="#DC9134"/>
<path d="M149.482 66.3174H147.82V79.1314H149.482V66.3174Z" fill="#DC9134"/>
<path d="M185.056 63.9766H183.393V79.1326H185.056V63.9766Z" fill="#DC9134"/>
<path d="M241.017 64.5234H239.354V79.6774H241.017V64.5234Z" fill="#DC9134"/>
<path d="M259.301 68.2969H257.639V79.6779H259.301V68.2969Z" fill="#DC9134"/>
<path d="M258.61 79.9808L258.333 79.3768L274.955 71.7988L275.232 72.4028L258.61 79.9808Z" fill="#DC9134"/>
<path d="M275.426 79.4514L258.301 69.2625L258.641 68.6895L274.761 78.2804V72.1024H275.426V79.4514Z" fill="#DC9134"/>
<path d="M275.932 71.8331L275.594 72.4053L288.395 79.9831L288.733 79.4109L275.932 71.8331Z" fill="#DC9134"/>
<path d="M288.426 73.8858L275.625 79.3848L275.887 79.9949L288.688 74.4959L288.426 73.8858Z" fill="#DC9134"/>
<path d="M240.886 65.0586L240.474 65.5801L257.926 79.3934L258.339 78.872L240.886 65.0586Z" fill="#DC9134"/>
<path d="M258.3 68.6731L240.018 78.832L240.34 79.4124L258.623 69.2535L258.3 68.6731Z" fill="#DC9134"/>
<path d="M149.211 66.5064L148.988 67.1328L183.563 79.4503L183.786 78.8239L149.211 66.5064Z" fill="#DC9134"/>
<path d="M184.091 64.5977L148.961 79.3691L149.219 79.9831L184.349 65.2116L184.091 64.5977Z" fill="#DC9134"/>
<path d="M184.786 64.2678L184.371 64.7871L203.32 79.943L203.735 79.4237L184.786 64.2678Z" fill="#DC9134"/>
<path d="M203.326 62.8382L184.365 78.8672L184.795 79.375L203.756 63.3461L203.326 62.8382Z" fill="#DC9134"/>
<path d="M120.627 68.663L120.397 69.2871L147.991 79.4426L148.221 78.8185L120.627 68.663Z" fill="#DC9134"/>
<path d="M148.521 66.5153L120.043 78.8369L120.307 79.4463L148.785 67.1247L148.521 66.5153Z" fill="#DC9134"/>
<path d="M97.3534 69.9587L97.1094 70.5762L119.549 79.4436L119.793 78.8261L97.3534 69.9587Z" fill="#DC9134"/>
<path d="M121.336 68.2969H119.674V79.6779H121.336V68.2969Z" fill="#DC9134"/>
<path d="M97.3635 79.9841L97.1045 79.3711L120.374 69.4941L120.635 70.1061L97.3635 79.9841Z" fill="#DC9134"/>
<path d="M71.2258 71.9755L71.041 72.6143L96.5834 80.001L96.7681 79.3622L71.2258 71.9755Z" fill="#DC9134"/>
<path d="M95.7014 69.9119L71.3477 79.3691L71.5884 79.9891L95.9421 70.5318L95.7014 69.9119Z" fill="#DC9134"/>
<path d="M51.1376 72.6657L50.9141 73.292L69.6973 79.9972L69.9209 79.3709L51.1376 72.6657Z" fill="#DC9134"/>
<path d="M50.8123 79.989L50.5703 79.369L71.0153 71.373L71.2573 71.989L50.8123 79.989Z" fill="#DC9134"/>
<path d="M32.5845 74.1522L32.3896 74.7891L49.4272 80.0026L49.6221 79.3658L32.5845 74.1522Z" fill="#DC9134"/>
<path d="M50.5819 72.5977L31.502 79.3652L31.7239 79.9911L50.8039 73.2235L50.5819 72.5977Z" fill="#DC9134"/>
<path d="M225.55 2.59277H219.686V8.45577H225.55V2.59277Z" fill="#473901"/>
<path d="M224.343 5.52402C224.343 6.50502 223.548 7.30002 222.568 7.30002C221.589 7.30002 220.793 6.50502 220.793 5.52402C220.793 4.54402 221.588 3.74902 222.568 3.74902C223.548 3.74802 224.343 4.54402 224.343 5.52402Z" fill="#B38E28"/>
<path d="M37.1928 77.0725C37.1928 79.7235 35.0438 81.8735 32.3908 81.8735C29.7398 81.8735 27.5898 79.7245 27.5898 77.0725C27.5898 74.4205 29.7398 72.2705 32.3908 72.2705C35.0428 72.2715 37.1928 74.4205 37.1928 77.0725Z" fill="#E2C534"/>
<path d="M35.8219 77.0726C35.8219 78.9666 34.2859 80.5036 32.3909 80.5036C30.4959 80.5036 28.9609 78.9666 28.9609 77.0726C28.9609 75.1766 30.4969 73.6406 32.3909 73.6406C34.2859 73.6416 35.8219 75.1776 35.8219 77.0726Z" fill="#633F02"/>
<path d="M34.4838 77.0725C34.4838 78.2285 33.5468 79.1655 32.3908 79.1655C31.2358 79.1655 30.2988 78.2285 30.2988 77.0725C30.2988 75.9165 31.2358 74.9795 32.3908 74.9795C33.5468 74.9795 34.4838 75.9165 34.4838 77.0725Z" fill="#DC9134"/>
<path d="M235.739 87.7598H211.254V93.6728H235.739V87.7598Z" fill="#231F20"/>
<path d="M244.695 379.511H201.188V392.532H244.695V379.511Z" fill="#5A5B5D"/>
<path d="M244.695 379.511H201.188V382.308H244.695V379.511Z" fill="#333536"/>
<path d="M257.29 390.146H188.593V398.485H257.29V390.146Z" fill="#5A5B5D"/>
<path d="M257.29 390.146H188.593V391.938H257.29V390.146Z" fill="#333536"/>
</svg>
