<svg width="52" height="51" viewBox="0 0 52 51" fill="none" xmlns="http://www.w3.org/2000/svg">
<path d="M22.7537 13.043C18.6521 13.7266 14.9412 15.582 12.1092 18.3164L1.17168 2.78906C0.488087 1.71484 1.26934 0.25 2.53887 0.25H13.3787C14.4529 0.25 15.5271 0.933594 16.0154 1.8125L22.7537 13.043ZM49.3162 0.25C50.5857 0.25 51.367 1.71484 50.6834 2.78906L39.7459 18.3164C36.9139 15.582 33.2029 13.7266 29.1014 13.043L35.8396 1.8125C36.4256 0.835938 37.4021 0.25 38.4764 0.25H49.3162ZM25.9764 15.875C35.449 15.875 43.1639 23.5898 43.1639 33.0625C43.1639 42.6328 35.449 50.25 25.9764 50.25C16.4061 50.25 8.78887 42.6328 8.78887 33.0625C8.78887 23.5898 16.4061 15.875 25.9764 15.875ZM34.9607 31.3047C35.6443 30.6211 35.2537 29.5469 34.3748 29.3516L29.199 28.668L26.9529 23.9805C26.7576 23.5898 26.367 23.3945 25.8787 23.3945C25.4881 23.3945 25.0975 23.5898 24.9021 23.9805L22.6561 28.668L17.4803 29.3516C16.6014 29.5469 16.2107 30.6211 16.8943 31.3047L20.6053 34.918L19.7264 39.9961C19.5311 40.875 20.5076 41.5586 21.3865 41.168L25.9764 38.7266L30.4686 41.168C31.3475 41.5586 32.324 40.875 32.1287 39.9961L31.2498 34.918L34.9607 31.3047Z" fill="white"/>
</svg>
